<?xml version="1.0" encoding="UTF-8" standalone="no"?>

<svg
   xmlns:svg="http://www.w3.org/2000/svg"
   xmlns="http://www.w3.org/2000/svg"
   width="21px"
   height="24px"
   version="1.1"
>
    <g
	stroke-width="1"
	fill="#82878c"
       transform="matrix(1.7486247,0,0,1.9172586,-212.45727,-216.23236)">
      <path
         d="m 132.93706,118.96952 -2.71875,1.06641 0.8789,0.67968 q -0.17578,0.375 -0.44531,0.77344 -0.26953,0.38672 -0.66797,0.72656 -0.38672,0.32813 -0.91406,0.57422 -0.52734,0.23438 -1.21875,0.31641 l 0,-4.75781 1.03125,0 q 0.28125,0 0.48047,-0.19922 0.21094,-0.19922 0.21094,-0.49219 l 0,0 0,-0.44531 q 0,-0.0586 -0.0469,-0.0937 -0.0352,-0.0469 -0.0937,-0.0469 l -1.57031,0 0,-0.98437 q 0.46875,-0.19922 0.76172,-0.6211 0.30468,-0.43359 0.30468,-0.97265 0,-0.70313 -0.5039,-1.20703 -0.50391,-0.50391 -1.20703,-0.50391 -0.71485,0 -1.21875,0.50391 -0.49219,0.5039 -0.49219,1.20703 0,0.53906 0.29297,0.97265 0.29297,0.42188 0.76172,0.60938 l 0.0117,0.0117 0,0.98437 -1.57032,0 q -0.0586,0 -0.10547,0.0469 -0.0351,0.0352 -0.0351,0.0937 l 0,0 0,0.44531 q 0,0.29297 0.19922,0.49219 0.21093,0.19922 0.49218,0.19922 l 0,0 1.01954,0 0,4.75781 q -0.55079,-0.0469 -1.05469,-0.24609 -0.49219,-0.1875 -0.91406,-0.49219 -0.42188,-0.31641 -0.75,-0.72656 -0.32813,-0.41016 -0.53907,-0.89063 l -0.0117,-0.0234 0.91407,-0.6914 -2.71875,-1.06641 0.11718,3.04688 0.72657,-0.55079 q 0.30468,0.60938 0.73828,1.10157 0.44531,0.5039 0.98437,0.8789 0.55078,0.36328 1.1836,0.58594 0.63281,0.23438 1.33593,0.28125 l 0.0117,0 q 0.0117,0.0469 0.0352,0.082 0.0234,0.0352 0.0586,0.0703 l 0,0 0.23438,0.19922 q 0.0586,0.0586 0.1289,0.082 0.0703,0.0352 0.16407,0.0352 0.082,0 0.15234,-0.0352 0.082,-0.0234 0.14063,-0.082 l 0,0 0.22265,-0.19922 q 0.0352,-0.0352 0.0586,-0.0703 0.0234,-0.0352 0.0352,-0.082 l 0,0 q 0.70313,-0.0469 1.34766,-0.26953 0.63281,-0.22266 1.17187,-0.59766 0.55078,-0.375 0.9961,-0.86718 0.43359,-0.50391 0.72656,-1.08985 l 0.0117,-0.0352 0.73828,0.5625 0.11719,-3.04688 z m -5.71875,-5.12109 q 0.26953,0 0.45703,0.19922 0.1875,0.1875 0.1875,0.44531 0,0.26953 -0.1875,0.45703 -0.1875,0.1875 -0.45703,0.1875 -0.26953,0 -0.45703,-0.1875 -0.1875,-0.1875 -0.1875,-0.45703 l 0,0 q 0,-0.25781 0.1875,-0.44531 0.1875,-0.19922 0.45703,-0.19922 l 0,0 z"
	stroke-width="1"
	fill="#82878c"
	/>
    </g>
</svg>
