<?xml version="1.0" encoding="UTF-8"?>
<svg width="26px" height="30px" viewBox="0 0 26 30" version="1.1" xmlns="http://www.w3.org/2000/svg" xmlns:xlink="http://www.w3.org/1999/xlink">
    <!-- Generator: sketchtool 54.1 (76490) - https://sketchapp.com -->
    <title>9819D0FF-4F07-40DA-92C1-93A24A5B89BF@3x</title>
    <desc>Created with sketchtool.</desc>
    <g id="Package-Migration" stroke="none" stroke-width="1" fill="none" fill-rule="evenodd">
        <g id="Package-Migration-/-Package---Package-complete" transform="translate(-620.000000, -504.000000)">
            <g id="box" transform="translate(410.000000, 132.000000)">
                <g id="instructions" transform="translate(80.000000, 271.000000)">
                    <g id="Package-Archive-download" transform="translate(115.000000, 86.000000)">
                        <g id="Icon-/-Package-/-ZIP" transform="translate(15.000000, 15.000000)">
                            <path d="M4,1 C2.34314575,1 1,2.34314575 1,4 L1,26 C1,27.6568542 2.34314575,29 4,29 L22,29 C23.6568542,29 25,27.6568542 25,26 L25,10.0194728 C25,8.67656126 24.4597992,7.39009985 23.5010433,6.44978156 L19.4027573,2.43030876 C18.4680197,1.51354683 17.2109836,1 15.901714,1 L4,1 Z" id="Background" stroke="#17A8E3" stroke-width="2" fill="#E1F6FF"></path>
                            <polygon id="Fold" fill="#17A8E3" points="17 1 18.4545455 1 25 8.36363636 25 10 17 10"></polygon>
                            <path d="M9.31876413,22.9945055 L11.5795026,22.9945055 L11.5795026,24 L8.02260739,24 L8.02260739,23.2706044 L10.2607385,19.0096154 L8,19.0096154 L8,18 L11.5380558,18 L11.5380558,18.7129121 L9.31876413,22.9945055 Z M13.4182366,24 L12.3104748,24 L12.3104748,18 L13.4182366,18 L13.4182366,24 Z M15.4566692,21.8901099 L15.4566692,24 L14.3489073,24 L14.3489073,18 L16.2177845,18 C16.7603644,18 17.1930403,18.1840641 17.5158252,18.5521978 C17.83861,18.9203315 18,19.3983487 18,19.9862637 C18,20.5741788 17.8404939,21.0384598 17.521477,21.3791209 C17.2024601,21.7197819 16.7603645,21.8901099 16.1951771,21.8901099 L15.4566692,21.8901099 Z M15.4566692,20.8804945 L16.2177845,20.8804945 C16.4287878,20.8804945 16.5920617,20.8049458 16.7076112,20.6538462 C16.8231606,20.5027465 16.8809344,20.2829685 16.8809344,19.9945055 C16.8809344,19.6950534 16.8219046,19.4567317 16.7038433,19.279533 C16.5857819,19.1023343 16.4275318,19.0123627 16.2290882,19.0096154 L15.4566692,19.0096154 L15.4566692,20.8804945 Z" id="ZIP" fill="#1E92C1" fill-rule="nonzero"></path>
                        </g>
                    </g>
                </g>
            </g>
        </g>
    </g>
</svg>