<?xml version="1.0" encoding="UTF-8"?>
<svg width="26px" height="30px" viewBox="0 0 26 30" version="1.1" xmlns="http://www.w3.org/2000/svg" xmlns:xlink="http://www.w3.org/1999/xlink">
    <!-- Generator: sketchtool 54.1 (76490) - https://sketchapp.com -->
    <title>F9B4FCD3-9F98-459E-B8A4-EFEB784D22EF@3x</title>
    <desc>Created with sketchtool.</desc>
    <g id="Package-Migration" stroke="none" stroke-width="1" fill="none" fill-rule="evenodd">
        <g id="Package-Migration-/-Package---Package-complete" transform="translate(-872.000000, -504.000000)">
            <g id="box" transform="translate(410.000000, 132.000000)">
                <g id="instructions" transform="translate(80.000000, 271.000000)">
                    <g id="Installer-download" transform="translate(367.000000, 86.000000)">
                        <g id="Icon-/-Package-/-PHP" transform="translate(15.000000, 15.000000)">
                            <path d="M4,1 C2.34314575,1 1,2.34314575 1,4 L1,26 C1,27.6568542 2.34314575,29 4,29 L22,29 C23.6568542,29 25,27.6568542 25,26 L25,10.0194728 C25,8.67656126 24.4597992,7.39009985 23.5010433,6.44978156 L19.4027573,2.43030876 C18.4680197,1.51354683 17.2109836,1 15.901714,1 L4,1 Z" id="Background" stroke="#FECF2F" stroke-width="2" fill="#FFF5D5"></path>
                            <polygon id="Fold" fill="#FECF2F" points="16.8235294 0.75 18.3529412 0.75 25.2352941 7.5 25.2352941 9 16.8235294 9"></polygon>
                            <path d="M7.20754825,21.8027344 L7.20754825,23.8652344 L6,23.8652344 L6,18 L8.03722426,18 C8.62867943,18 9.10033046,18.1799298 9.45219152,18.5397949 C9.80405258,18.89966 9.97998047,19.3669405 9.97998047,19.9416504 C9.97998047,20.5163603 9.80610621,20.9702132 9.45835248,21.3032227 C9.11059875,21.6362321 8.62867955,21.8027344 8.01258042,21.8027344 L7.20754825,21.8027344 Z M7.20754825,20.8157959 L8.03722426,20.8157959 C8.26723461,20.8157959 8.44521613,20.7419441 8.57117417,20.5942383 C8.69713222,20.4465325 8.76011029,20.2316909 8.76011029,19.949707 C8.76011029,19.656981 8.69576313,19.4240121 8.56706687,19.2507935 C8.4383706,19.0775748 8.26586544,18.989624 8.04954619,18.9869385 L7.20754825,18.9869385 L7.20754825,20.8157959 Z M14.9785731,23.8652344 L13.7751321,23.8652344 L13.7751321,21.3555908 L11.9925609,21.3555908 L11.9925609,23.8652344 L10.7850126,23.8652344 L10.7850126,18 L11.9925609,18 L11.9925609,20.3726807 L13.7751321,20.3726807 L13.7751321,18 L14.9785731,18 L14.9785731,23.8652344 Z M17.1554458,21.8027344 L17.1554458,23.8652344 L15.9478975,23.8652344 L15.9478975,18 L17.9851218,18 C18.5765769,18 19.048228,18.1799298 19.400089,18.5397949 C19.7519501,18.89966 19.927878,19.3669405 19.927878,19.9416504 C19.927878,20.5163603 19.7540037,20.9702132 19.40625,21.3032227 C19.0584963,21.6362321 18.5765771,21.8027344 17.9604779,21.8027344 L17.1554458,21.8027344 Z M17.1554458,20.8157959 L17.9851218,20.8157959 C18.2151321,20.8157959 18.3931136,20.7419441 18.5190717,20.5942383 C18.6450297,20.4465325 18.7080078,20.2316909 18.7080078,19.949707 C18.7080078,19.656981 18.6436606,19.4240121 18.5149644,19.2507935 C18.3862681,19.0775748 18.213763,18.989624 17.9974437,18.9869385 L17.1554458,18.9869385 L17.1554458,20.8157959 Z" id="PHP" fill="#BB9D39" fill-rule="nonzero"></path>
                        </g>
                    </g>
                </g>
            </g>
        </g>
    </g>
</svg>