<?xml version="1.0" encoding="UTF-8"?>
<svg width="15px" height="16px" viewBox="0 0 15 16" version="1.1" xmlns="http://www.w3.org/2000/svg" xmlns:xlink="http://www.w3.org/1999/xlink">
    <!-- Generator: Sketch 48.2 (47327) - http://www.bohemiancoding.com/sketch -->
    <title>edit</title>
    <desc>Created with Sketch.</desc>
    <defs></defs>
    <g id="Page-1" stroke="none" stroke-width="1" fill="none" fill-rule="evenodd">
        <g id="edit" transform="translate(0.000000, 1.000000)" fill="#000000">
            <path d="M-1.73472348e-18,14.5126953 L1.39160156,9.94238281 L11.2646484,0.0546875 C11.3037111,0.0156248047 11.347656,-0.0136717773 11.3964844,-0.033203125 C11.4453127,-0.0527344727 11.4941404,-0.0625 11.5429687,-0.0625 C11.6015628,-0.0625 11.6552732,-0.0527344727 11.7041016,-0.033203125 C11.7529299,-0.0136717773 11.791992,0.0156248047 11.8212891,0.0546875 L14.8681641,3.11621094 C14.9072268,3.14550796 14.9365233,3.18457007 14.9560547,3.23339844 C14.975586,3.28222681 14.9853516,3.33593721 14.9853516,3.39453125 C14.9853516,3.44335962 14.975586,3.49218726 14.9560547,3.54101562 C14.9365233,3.58984399 14.9072268,3.63378887 14.8681641,3.67285156 L4.99511719,13.5458984 L0.424804687,14.9375 C0.415039014,14.9375 0.402832104,14.9399414 0.388183594,14.9448242 C0.373535083,14.9497071 0.361328174,14.9521484 0.3515625,14.9521484 C0.302734131,14.9521484 0.256347876,14.9423829 0.212402344,14.9228516 C0.168456812,14.9033202 0.131836084,14.8740236 0.102539062,14.8349609 C0.0634763672,14.8056639 0.0341797852,14.7690432 0.0146484375,14.7250977 C-0.00488291016,14.6811521 -0.0146484375,14.6347659 -0.0146484375,14.5859375 C-0.0146484375,14.5761718 -0.0122070557,14.5639649 -0.00732421875,14.5493164 C-0.00244138184,14.5346679 -1.73472348e-18,14.522461 -1.73472348e-18,14.5126953 Z M1.2890625,13.6337891 L4.21875,12.7548828 L2.18261719,10.71875 L1.2890625,13.6337891 Z" id="/"></path>
        </g>
    </g>
</svg>