<?xml version="1.0" encoding="utf-8"?>
<!-- Generator: Adobe Illustrator 22.1.0, SVG Export Plug-In . SVG Version: 6.00 Build 0)  -->
<svg version="1.1" id="Layer_1" xmlns="http://www.w3.org/2000/svg" xmlns:xlink="http://www.w3.org/1999/xlink" x="0px" y="0px"
	 viewBox="0 0 134.9 120.9" style="enable-background:new 0 0 134.9 120.9;" xml:space="preserve">
<style type="text/css">
	.st0{fill:#8D745A;}
	.st1{fill:#592484;}
	.st2{fill:#645148;}
	.st3{fill:#6F8597;}
	.st4{fill:#3B275D;}
	.st5{fill:#BFCAD2;}
	.st6{fill:#95A6B3;}
	.st7{fill:#667E90;}
	.st8{fill:#66A8DE;}
	.st9{fill:#2A4A98;}
	.st10{fill:#386399;}
	.st11{fill:#C60099;}
	.st12{fill:#D7A59C;}
	.st13{fill:#291C35;}
	.st14{fill:#666666;}
	.st15{fill:#FAF139;}
	.st16{fill:#FBE039;}
	.st17{fill:#D1AF8B;}
	.st18{fill:#AE8E6E;}
	.st19{fill:#3F4149;}
	.st20{fill:#7F6754;}
	.st21{fill:#292D3B;}
	.st22{fill:#7F664E;}
	.st23{fill:#8C7156;}
	.st24{fill:#491D6C;}
	.st25{fill:#512178;}
	.st26{fill:#917559;}
	.st27{fill:#9C7E60;}
	.st28{fill:#4F2074;}
	.st29{fill:#381753;}
	.st30{fill:#64513E;}
	.st31{fill:#504031;}
	.st32{fill:#381754;}
	.st33{fill:#31204F;}
	.st34{fill:#65513E;}
	.st35{fill:#231739;}
	.st36{fill:#332253;}
	.st37{fill:#64503D;}
	.st38{fill:#2D1242;}
	.st39{fill:#2E1E4A;}
	.st40{fill:#917459;}
	.st41{fill:#8A6F55;}
	.st42{fill:#572381;}
	.st43{fill:#4D1F73;}
	.st44{fill:#471D69;}
	.st45{fill:#826850;}
	.st46{fill:#7E664E;}
	.st47{fill:#9C7D60;}
	.st48{fill:#425554;}
	.st49{fill:#313642;}
	.st50{fill:#ECC19C;}
	.st51{fill:#EEBF2D;}
	.st52{fill:#F0F1F1;}
	.st53{fill:#323643;}
	.st54{fill:#493C2F;}
	.st55{fill:#473A2D;}
	.st56{fill:#4A3D2F;}
	.st57{fill:#9E8973;}
	.st58{fill:#4D3F31;}
	.st59{fill:#3D2E1E;}
	.st60{fill:#5F4F7C;}
	.st61{fill:#CACACA;}
	.st62{fill:#4A1079;}
	.st63{fill:none;stroke:#8D745A;}
	.st64{fill:none;stroke:#8D745A;stroke-width:0.74;}
	.st65{opacity:0.6;fill:#FFFFFF;enable-background:new    ;}
	.st66{fill:none;stroke:#BAAF7E;}
	.st67{fill:#BAAF7E;}
	.st68{fill:#808083;}
	.st69{fill:#6E6E71;}
</style>
<title>Untitled</title>
<desc>Created with Sketch.</desc>
<g id="Page-1">
	<g id="Hosting-graphic">
		<g id="Front_Stance" transform="translate(138.000000, 50.000000)">
			<path id="Path" class="st0" d="M-45.5,0.9c0,0,4.7-0.7,7.5,0c2.1,0.5,17.2,4.3,14.3,19.5s-13,19.5-19.1,17.5L-45.5,0.9z"/>
			<path id="Path_1_" class="st0" d="M-42,34.2c0,0,3.6,13,8.4,20.1s10.2,6.1,11.8,11.6c4.3-3,9.2-7.4,9.5-21.5s-9.2-23.9-15.8-27.8
				S-42,34.2-42,34.2z"/>
			<path id="Path_2_" class="st0" d="M-27.2,58.2c0,0-3.2,6.3-2.2,15.2s12.3,17.2,14.2,27.1c-1,1.8-6,6.9-6,6.9l-1.5,4.4
				c-0.3,1,0.2,2,1.1,2.4l1,0.4l3.9-0.9c0,0-2.5,0.3-2.4,1.7s3.1,5.7,4.1,6.8c1,1,3.6,0.3,5.2-1.5c0.4,0.3,0.8,0.6,1.3,0.6
				c0,0,1.8-0.9,2.5-1.6c0.5,0.3,1.1,0.6,1.7,0.6l2.3-1.4c0,0,1.3-1.6,1.7-1.6s1.1-1.5,1.4-2.5s0.6-2.9,0.2-4.3
				c-0.4-1.4-3-12-3.8-15.2c0.1-4.2-1.1-40.4-11.9-41C-25.3,53.4-27.2,58.2-27.2,58.2z"/>
			<path id="Path_3_" class="st1" d="M-14.8,71.5c2.1-6.5,0.8-13.1,0.4-14.7c-0.5-1.5,0.4-3.7,0.4-5.3c0-4.2-0.4-8.5-1.3-12.6
				c-0.7-3.9-3.4-7.8-5.5-11.1c-0.9-1.5-2.4-2.6-3.5-3.9c-1.3-1.6-1.4-3.3-2.1-5.1c-1.1-2.8-3.9-5.1-6.5-2.9c-1.2,1-2,3.5-3.6,3.6
				c-3.3,0-6.6-0.4-9.8-1l0.9,19c0.5,0.3,1.7,0.4,2.8,0.5c1.9,3.8,5.7,11.3,9.2,16.4c1.5,2.2,3.4,4.1,5.7,5.5
				c-1.5,4.3-2,8.9-1.5,13.5c1,8.7,11.9,16.9,14.1,26.5c2.1-0.8,1.6,0.2,3.9,0C-8.7,99.7-18.1,85.7-14.8,71.5z"/>
			<path id="Path_4_" class="st2" d="M-16.5,119.6c-1-1.2-1.6-3-2.7-4.1c0.4,1.5,3,5.5,4,6.4c0.9,1,3.2,0.4,4.7-1.1
				C-12.6,121.9-15.1,121.4-16.5,119.6L-16.5,119.6z"/>
			<path id="Path_5_" class="st2" d="M-0.7,117.1c0.4,0,1.1-1.5,1.4-2.4v-0.1c-0.4,0.4-0.7,0.8-1.1,1.1c-0.5,0.5-1.1,0.6-1.6,1
				c-1.1,0.8-1.6,3-3.5,1.9h0c-0.1-0.1-0.1-0.1-0.2-0.1c-0.1,0-0.1,0.1-0.2,0.1l-0.3,0.4c-0.1,0.2-0.2,0.3-0.3,0.5c0,0-0.1,0-0.1,0
				c-0.9,0.2-1.6,0.9-2.6,0.4c-0.5-0.2-0.8-0.1-0.9,0.5c0,0,0,0,0,0c0.3,0.3,0.8,0.5,1.3,0.6c0,0,1.7-0.9,2.4-1.6
				c0.5,0.3,1.1,0.5,1.7,0.6l2.3-1.4C-2.4,118.7-1.1,117.1-0.7,117.1z"/>
			<path id="Path_6_" class="st2" d="M-17.9,114.8c0.8-0.2,1.7-0.4,2.5,0h0c0,0.1,0,0.1,0,0.2c0,0.2,0,0.5,0,0.7
				c0.1,0.5,0.2,0.9,0.3,1.4c0.2,0.5,0.8,0.2,0.6-0.3c-0.2-0.5-0.4-1-0.5-1.6c0-0.2,0-0.4-0.1-0.6c0,0,0,0,0,0c1.4,0.4,2.7,1,4,1.4
				c0.4,0.1,0.6-0.5,0.2-0.7c-0.4-0.1-0.7-0.3-1.1-0.4c0-0.1,0-0.1-0.1-0.1c-1.1-0.5-1.7-1.2-1.4-2.5c0.2-0.7,0.7-1.1,0.9-1.7
				c0.3-0.7-0.6-1.1-0.5-1.8c0-0.2-0.2-0.5-0.4-0.3c-0.3,0.4-0.6,0.9-0.8,1.4c-0.2,0.3-0.5,0.7-0.8,0.9c0,0-0.1,0-0.1,0
				c-0.6,0-1.3,0-1.9,0c-0.4,0-0.8,0.1-1.2,0.1c-0.2,0-0.8,0.2-0.8,0.1c-1.2-0.3-1.8-2.4-2.1-3.3c0-0.1-0.1-0.1-0.2-0.1l-1.5,4.3
				c-0.2,0.5-0.1,1,0.1,1.4c0.2,0.4,0.6,0.8,1,0.9l1,0.4l3-0.7c-0.7,0.2-1.7,0.7-1.6,1.5c0,0.1,0,0.1,0,0.2
				C-18.8,115.2-18.4,115-17.9,114.8L-17.9,114.8z"/>
		</g>
		<g id="Hop">
			<path id="Path_7_" class="st3" d="M-33.6,157.9c0,0,3.3-5.8,3.5-5.9s16.4-10,29.2-10.8C-22,153.9-33.6,157.9-33.6,157.9z"/>
			<path id="Path_8_" class="st4" d="M26.8,138.9c0,0-7.8-6.7-21.6,10.3c2.4,17.1,13,16.6,13,16.6l20.5-4.3L26.8,138.9z"/>
			<path id="Path_9_" class="st5" d="M22,142.8c-3.8-4.9-31.7-8.1-59.8,18.5c-7.1,7-5.5,18.2,1.5,27c3.7,4.7,14,10.2,26.7,1.5
				C5.1,179.3,32.5,156.3,22,142.8z"/>
			<path id="Path_10_" class="st6" d="M-35,179.8c0-0.3-2.8,0.9-3,1c-0.6,0.4-1.7,0.8-1.8,1.6c0,0.2,0.2,0.5,0.2,0.4
				c0.2-1.1,2-2.1,3-2.4c0.4-0.1,1.7-0.2,1.9-0.5C-34.6,179.6-35,179.5-35,179.8z"/>
			<path id="Path_11_" class="st6" d="M-9.7,189.7c12.8-9.1,35.2-27.6,34-41.2c-0.9,0.4-1.8,0.9-2.7,1.4c-2.5,1.3-4.8,2.8-7,4.5
				c-4.4,3.4-8.3,7.3-12.2,11.2c-3.6,3.8-7.5,7.2-11.8,10.1c-2.2,1.5-4.4,2.8-6.7,4.1c-1.6,0.9-2.6,1.9-4.5,2.1
				c-1.4,0.2-2.9,0-4.3-0.4c-1-0.3-1.7,0.5-1.8,1.4c-0.2,1.7-0.6,3.6-1.6,5c-0.9,1.3-2.3,1.5-3.3,2.5c-0.4,0.4-0.6,0.9-0.6,1.4
				C-27.1,194.9-19,196.2-9.7,189.7z"/>
			
				<ellipse id="Oval" transform="matrix(0.8833 -0.4689 0.4689 0.8833 -87.7512 6.1586)" class="st7" cx="-31.5" cy="179.3" rx="7.7" ry="14.4"/>
			<path id="Path_12_" class="st8" d="M-36.7,166.1c-0.8,3.8,0.1,9.2,2.9,14.5s6.6,9,10.2,10.5c2.5-2.8,2.1-9.2-1.1-15.4
				S-33,165.7-36.7,166.1z"/>
			<path id="Path_13_" class="st6" d="M-20.1,191.2c0,0,0-0.1,0.1-0.4l0.1-0.5l0.2-0.6c0.3-1.4,0.4-2.7,0.4-4.1
				c-0.1-3.5-1.5-8.3-4.3-12.9c-1.3-2.1-2.9-4.1-4.8-5.8c-1.5-1.4-3.3-2.5-5.2-3.2c-1.3-0.5-2.7-0.6-4-0.4c-1,0.2-1.4,0.5-1.5,0.4
				c0-0.1,0.1-0.1,0.3-0.2c0.3-0.2,0.7-0.3,1.1-0.4c1.4-0.3,2.9-0.2,4.2,0.2c2,0.7,3.8,1.8,5.4,3.2c1.9,1.7,3.6,3.7,4.9,5.9
				c2.9,4.6,4.2,9.6,4.2,13.2c0,1.4-0.2,2.8-0.6,4.2c-0.1,0.2-0.2,0.5-0.2,0.6c-0.1,0.2-0.2,0.3-0.2,0.5
				C-20,191.1-20.1,191.2-20.1,191.2z"/>
			<path id="Path_14_" class="st5" d="M-19.7,182.7c0.2,1.1,0.3,2.2,0.3,3.3c0,0.9,0,1.8-0.2,2.7c-0.2,1.5-0.6,2.4-0.5,2.5
				s0.6-0.8,1-2.4c0.2-0.9,0.3-1.8,0.3-2.8c0-1.2-0.1-2.3-0.3-3.4c-0.1-0.3-0.1-0.6-0.2-0.8c-0.2,0.1-0.4,0.1-0.6,0.2
				C-19.8,182.2-19.8,182.4-19.7,182.7z"/>
			<path id="Path_15_" class="st6" d="M18.9,141.5c-0.7,0.2-1.4,0.3-2.2,0.4c-2,0.4-3.9,0.8-5.8,1.4c-2.8,0.9-5.6,1.9-8.3,3.1
				c-3.3,1.5-6.5,3.2-9.6,5c-5.7,3.3-11.1,7.1-16.3,11.1c-1,0.8-1.9,1.5-2.6,2.2c-0.6,0.6-1.2,1.2-1.7,1.9c-0.9,1.1-1.4,1.7-1.4,1.7
				c0,0,0.3-0.7,1.2-1.9c0.5-0.7,1.1-1.4,1.7-2c0.8-0.8,1.7-1.6,2.6-2.3c5.1-4.2,10.6-8,16.3-11.4c3.1-1.8,6.4-3.5,9.7-5
				c2.7-1.2,5.5-2.2,8.4-3c1.9-0.5,3.9-0.9,5.9-1.2C17.4,141.5,18.2,141.5,18.9,141.5z"/>
			<path id="Path_16_" class="st6" d="M10.1,151c0,0-0.2-0.2-0.6-0.6l-0.7-0.7l-0.4-0.5c-0.1-0.1-0.1-0.2-0.2-0.3l-0.1-0.1L8,148.9
				l-0.2,0.2l-0.5,0.3l-1.1,0.8l-2.6,1.7c-1.9,1.2-4.1,2.7-6.4,4.1l-2.8,1.7l-2.3,1.5l2.2,3l1.9,2.6c1,1.5,1.6,2.3,1.6,2.4
				c-0.1,0.1-0.8-0.7-1.9-2.1l-2-2.5l-2.8-3.5l5.6-3.6c2.3-1.5,4.5-2.9,6.4-4.1l2.7-1.7l2.4-1.4l0.5,0.7l0.4,0.5
				c0.2,0.3,0.4,0.6,0.6,0.8C10,150.7,10.1,151,10.1,151z"/>
			<path id="Path_17_" class="st6" d="M10.2,152.2c0.1,0.1-0.3,0.5-1,1.2c-0.4,0.4-0.8,0.8-1.3,1.3l-1.5,1.5l0,0l0.1,0.2l0.1,0.4
				l0.3,0.8c0.2,0.6,0.4,1.2,0.7,1.9l-1,0.8c-2.1,1.9-4,3.5-5.5,4.6c-1.4,1.1-2.3,1.9-2.4,1.8c-0.1-0.1,0.7-0.9,2.1-2.2
				c1.3-1.3,3.2-2.9,5.3-4.8l0.6-0.5L5.6,156l1.1-1l0.8-0.7c0.5-0.5,1-0.9,1.4-1.2C9.6,152.5,10.1,152.2,10.2,152.2z"/>
			<path id="Path_18_" class="st9" d="M1.2,156.2c-0.9-0.5-1.9-0.4-2.6,0.4c-1.3,1.2-0.4,3.6,1.3,4.7c1.6,1.1,2.9-0.9,3-1.5
				C2.9,159,1.2,156.2,1.2,156.2z"/>
			<path id="Path_19_" class="st10" d="M0,156.1c-1.3,0.3-1,2.8,0.3,3.8c1.3,1,2.6,0.9,2.6-0.9C2.9,157.2,1.6,155.8,0,156.1z"/>
			<path id="Path_20_" class="st11" d="M-4.2,160.7c-0.2,0.2-0.3,0.4-0.4,0.6c0,0.3,0.1,0.5,0.2,0.7c0.5,0.6,1.3-0.3,1.1-0.7
				C-3.4,160.8-3.5,160.5-4.2,160.7z"/>
			<path id="Path_21_" class="st12" d="M-4.1,161.2l0.4,0.5c0,0-0.1,0.3-0.4,0S-4.1,161.2-4.1,161.2z"/>
			<g id="Group" transform="translate(0.000000, 155.498442)">
				<path id="Path_22_" class="st8" d="M-31,30.7l4.4,3c0.1,0.3,0.2,0.5,0.3,0.8l-2.5-1.7l-2.9-2l0.1-0.6l0.6,0.3L-31,30.7z"/>
				<path id="Path_23_" class="st13" d="M-31,30.5l3.9,2c0.1,0.4,0.3,0.8,0.4,1.2l-4.4-3L-31,30.5z"/>
				<path id="Path_24_" class="st13" d="M-30,21.3c0.7,3.8,1.7,7.5,3,11.2l-3.9-2l-0.6-0.3l-1.6-0.8l1.3-6.1l1.4-2.2L-30,21.3z"/>
				<path id="Path_25_" class="st13" d="M-30.1,20.9c0,0.1,0.1,0.3,0.1,0.5l-0.4-0.2l-1.4,2.2l-1.3,6.1l1.6,0.8l-0.1,0.6l2.9,2
					c-5.8,1.7-6.4,1.4-6.5,1.4l-1.5-11.4l0.8,0.6l0.2,0.2l0.1-0.1C-34,22.4-32.1,21.5-30.1,20.9z"/>
				<path id="Path_26_" class="st8" d="M-29.6,20.5c0,0.1,0,0.1,0,0.2c0.1,0.4,0.2,1,0.3,1.7c0,0.2,0.1,0.5,0.1,0.7
					c0.8,3.8,1.9,7.5,3.2,11.1c0.1,0.2,0.2,0.5,0.3,0.7h-0.1l-0.5-0.1l-0.1-0.4c-0.1-0.3-0.2-0.5-0.3-0.8c-0.1-0.4-0.3-0.8-0.4-1.2
					c-1.2-3.7-2.2-7.4-3-11.2c0-0.2-0.1-0.3-0.1-0.5c0-0.2-0.1-0.4-0.1-0.6L-29.6,20.5z"/>
				<path id="Path_27_" class="st13" d="M-37.4,13.1c3.3,2.3,6.3,4.7,8.5,6.5c-2.6,0.7-5,1.8-7.3,3.2c-6.4-5.4-8.6-7.4-9.3-8.1
					L-37.4,13.1z"/>
				<path id="Path_28_" class="st8" d="M-38.1,12.5l0,0.1l0.2,0.1l0.5,0.3l-8.1,1.6c0.8,0.7,3,2.7,9.3,8.1c2.3-1.4,4.7-2.5,7.3-3.2
					l0.7,0.6c-0.4,0.1-0.9,0.3-1.5,0.4c0-0.1,0-0.1,0-0.2l-0.6-0.3c0,0.2,0.1,0.4,0.1,0.6c-2,0.7-3.9,1.6-5.6,2.7l-0.1,0.1l-0.2-0.2
					l-0.8-0.6c-4.3-3.7-9.2-7.8-9.4-8.4l-0.2-0.3L-38.1,12.5z"/>
				<path id="Path_29_" class="st13" d="M-17.7,31.3c2.3,7.4,2.9,9.9,3.1,10.6l-11.4-7.7c-1.3-3.6-2.4-7.3-3.2-11.1
					C-25.5,26.1-21.6,28.8-17.7,31.3L-17.7,31.3z"/>
				<path id="Path_30_" class="st8" d="M-17.2,31.2c1.6,5.1,3.4,11.2,3.2,11.5l-0.1,0.2l-11.8-8h0.1c-0.1-0.2-0.2-0.5-0.3-0.7
					l11.4,7.7c-0.2-0.8-0.8-3.2-3.1-10.6c-4-2.5-7.8-5.2-11.5-8.2c-0.1-0.3-0.1-0.5-0.1-0.7c0.5,0.4,1.2,1,2.1,1.6l0.7,0.6
					c2.3,1.7,5.3,3.9,8.6,6l0.5,0.3l0.2,0.1L-17.2,31.2L-17.2,31.2z"/>
				<path id="Path_31_" class="st13" d="M-40,2l10.4,9.5c1.2,3.1,2.2,6.3,3,9.5c-3.5-3.1-7.2-5.9-11-8.6C-39.4,5.3-39.9,2.8-40,2z"
					/>
				<path id="Path_32_" class="st8" d="M-40.5,0.9l10.7,9.8l-0.1,0l0.1,0.2c0.1,0.2,0.1,0.3,0.2,0.5L-40,2c0.1,0.8,0.6,3.3,2.4,10.4
					c3.8,2.7,7.5,5.5,11,8.6c0.1,0.3,0.1,0.5,0.2,0.8c-0.5-0.4-1-0.9-1.7-1.5l-0.7-0.6c-2.2-1.9-5.3-4.3-8.5-6.5l-0.5-0.3l-0.2-0.1
					l0-0.1l0-0.1c-1.3-5-2.7-11-2.5-11.3L-40.5,0.9z"/>
				<path id="Path_33_" class="st13" d="M-19,20.3c6.5,5,8.7,6.9,9.5,7.6l-8.4,2.7c-3.2-2-6.3-4.2-8.6-6
					C-23.8,23.6-21.3,22.1-19,20.3L-19,20.3z"/>
				<path id="Path_34_" class="st8" d="M-19.3,19.5l0.2,0.2c4.6,3.5,10.1,7.9,10.4,8.4l0.2,0.3l-8.7,2.7l0-0.2l-0.2-0.1l-0.5-0.3
					l8.4-2.6c-0.8-0.7-3-2.6-9.5-7.6c-2.2,1.8-4.8,3.3-7.5,4.3l-0.7-0.6c0.3-0.1,0.7-0.3,1.3-0.5l0.5-0.2c1.9-0.8,3.7-1.9,5.4-3.2
					c0.2-0.1,0.3-0.3,0.5-0.4l0.2-0.1L-19.3,19.5z"/>
				<path id="Path_35_" class="st13" d="M-22.4,8.6l2.3,11.5c-1.7,1.3-3.5,2.4-5.4,3.2c-1-4.1-2.2-8.1-3.7-12
					C-24.7,9.3-23,8.8-22.4,8.6z"/>
				<path id="Path_36_" class="st8" d="M-21.9,8l2.3,11.6c-0.2,0.1-0.3,0.3-0.5,0.4l-2.3-11.5c-0.6,0.1-2.3,0.7-6.8,2.7
					c1.5,3.9,2.8,7.9,3.7,12l-0.5,0.2c-0.1-0.5-0.3-1.1-0.4-1.8c-0.1-0.3-0.1-0.5-0.2-0.8c-0.8-3.2-1.9-6.4-3-9.5
					c-0.1-0.2-0.1-0.3-0.2-0.5l-0.1-0.2l0.1,0h0c3.2-1.4,7.1-3,7.6-2.8L-21.9,8z"/>
			</g>
			<path id="Path_37_" class="st4" d="M63.5,28.4c0-0.1,0.1-0.1,0.1-0.2c0.1-0.1,0.1-0.2,0.1-0.3c0,0,0,0,0,0c0-0.3,0-0.5-0.1-0.8
				l0,0c0.4-0.5,1.5-2.2,0.2-2.3c-0.5,0-0.9,0.1-1.3,0.4c-0.4,0.5,0,1.3-0.1,1.9c0,0.1,0,0.2,0,0.3c0,0.1,0,0.1,0.1,0.1
				c-0.1,0.2-0.1,0.4-0.1,0.6c0,0.1,0,0.2,0.1,0.3c-0.1,0.2-0.1,0.3-0.2,0.5c-0.4,0.7-0.7,1.5,0.2,1.7c0.5,0.2,2.5,0.4,2.4-0.6
				C64.9,29.8,64.1,28.8,63.5,28.4z"/>
			<path id="Path_38_" class="st14" d="M62.6,26.4c-0.5,0-0.9,0-1.4,0c-0.4,0-0.8,0-1.2,0l0,0c-0.4-0.1-0.8-0.1-1,0.2
				c-0.2,0.3,0,1.1,0.1,1.5c0.2,0.4,0.5,0.5,0.9,0.5c0.4,0,1.1,0,1.6-0.1c0.2,0,0.5,0.1,0.7,0.1c0.6,0,0.6-0.7,0.7-1.2
				C63.1,26.9,63.1,26.5,62.6,26.4z"/>
			<path id="Path_39_" class="st15" d="M33,50.8c-0.5-0.1-6.3-7.1-8.3-16.7c-2-9.6,3-14,3-14s-1.5-7.9,11-11.8s19-5.9,20.6-7.6
				c1.8,1.5,1.6,13.7-7,16.1S33,50.8,33,50.8z"/>
			<path id="Path_40_" class="st16" d="M55.2,11.2c-2.3,0.8-4.5,0.2-6.8,0c-2.2-0.2-4.5,0.1-6.6,0.9c-2,0.7-3.9,1.7-5.6,2.9
				c-0.8,0.6-1.5,1.4-2.3,2.1c-0.4,0.3-1.4,1.8-2.1,2.2c-0.1,0-0.2,0-0.2,0.1c0,0-0.1,0-0.1,0c-0.1,0-0.1,0.2,0,0.2h0.1
				c0,0.1,0,0.2,0,0.2s0.1,0.1,0.2,0.1c0.5,0.1,0.1,3.5,0,3.9c-0.2,1.2-0.4,2.6-1,3.7c-0.1,0.2,0,0.5,0.2,0.4
				c1.2-0.3,1.6-0.7,1.8-1.9c0.3-1.4,0.4-2.9,0.9-4.3c0.5-1.6,1.7-2.9,3.2-3.6c1.5-0.7,3-1.3,4.5-1.7c3.4-0.8,7.2-0.5,10.7,0.1
				c1.2,0.2,1.6,0.4,2.1-0.8c0.5-1.4,1-2.7,1.3-4.2C55.6,11.4,55.5,11.1,55.2,11.2z"/>
			<path id="Path_41_" class="st17" d="M28.5,36.6c0,0-2.1,8.2,0.7,10.2c2.8,1.9,5.4-7.7,5.4-7.7s-2.6-5.4-2.7-5.6
				S28.5,36.6,28.5,36.6z"/>
			<path id="Path_42_" class="st18" d="M33.5,36.7c-1.5,0-3,0.8-3.8,2.1c-0.6,0.8-1,1.7-1.4,2.6c-0.2,0.4-0.2,1-0.7,1.6l0,0
				c0,0.2,0.1,0.4,0.1,0.6c0,0,0.1,0.1,0.1,0.1c0,0.2-0.3,0.4,0.2,0.5l0,0c0-0.3,0.1-0.6,0.3-0.9c0.2-0.4,0.3-0.9,0.5-1.3
				c0.4-1,0.9-1.9,1.6-2.7c0.4-0.5,0.6-0.9,1.2-1.2c0.6-0.3,1.3-0.4,1.9-0.3H34L33.5,36.7z"/>
			<path id="Path_43_" class="st4" d="M22,204.7c0,0-11.4,1.6-16.4,1.4c1.6,7.6,4.7,7.6,4.7,7.6L22,204.7z"/>
			<path id="Path_44_" class="st4" d="M-8.2,206L-8.2,206c-0.9-0.3-1.9-0.7-2.8-1.1c-0.5-0.2-1-0.5-1.4-0.8
				c-0.2-0.2-0.4-0.4-0.7-0.5c0,0-0.1-0.1-0.2,0.7c0,0.1-0.1,1.3-0.2,2.3c-0.1,0.9-0.1,1.9-0.2,2.8c0,0.3-0.2,1,0.1,1.2
				c0.5,0.4,2.3-1.4,2.7-1.7c0.7-0.6,1.4-1.3,2.1-1.9c0.3-0.2,0.8-0.5,0.9-0.9C-8,206-8.1,205.9-8.2,206z"/>
			<path id="Path_45_" class="st4" d="M5.5,93.7c0,0-1.9,7.2,4.9,13.6c2.2,1.9-0.9,6.8,8.4,25.2c4.7,7.5,13,16.7,13,16.7
				s5.5-4.3,5.6-5.5c0.1-1.1-5.6-36.4-5.6-36.4L13.7,87.2C13.7,87.2,7.3,83.6,5.5,93.7z"/>
			<path id="Path_46_" class="st19" d="M35.4,137.5c0,0-26.2,17.1-38.5,40.9c-2.7,6.5-3.6,9-3.6,9s-1.2,1.2-2,3.9
				c-0.8,2.7-1.4,11.4-1.4,11.4s-4.2,6.3-5.4,18.9s1.1,33.9,0.7,39.8c-0.4,5.9-12.7,18.1-15.6,20.4c-2.9,2.3-11.8,10.3-10.8,12
				c1,1.7,6.4,4,8.8,4.5s12.2-3.7,18.7-9.7c3.8-3.1,9.3-3,14-6.4s-0.2-10.3-0.8-12.3c-0.6-2-1.9-7.5,0.6-16.8
				c2.5-9.2,11.7-18.4,13.8-31.2c2.1-12.9-3.2-17.2-3.8-18.3c-0.6-1,0-2.9,0.8-3.1s12.1-1.8,26-10.1s25.2-22.3,25.2-22.3L35.4,137.5
				z"/>
			<path id="Path_47_" class="st0" d="M35.4,139.1c-1-5-4-11.9-4.9-14.6c-0.9-2.7-2.7-7.9-2.7-7.9s-7.2-4.2-13.1-16
				c-3-3.8-9.1-6.9-9.1-6.9s1.1-8.6,6.9-11.6l3.8-1.1c0,0,6.1-12,28-18.5s15-8.4,31-7.6c12.5-3.2,28.4-11.9,36.1,4.5
				c-2.8,2-14.4,15.5-15,24.5s-6.9,17.2-9.6,20.3c-2.7,3.2-2.1,20.8-1.6,21.4c3.1,3.4,8.1,10.6,7.1,23.6c-1,13-37.9-1.9-37.9-1.9
				L35.4,139.1z"/>
			<path id="Path_48_" class="st20" d="M60.8,67.2c1.2-0.6,2.1-2.1,2.7-3.2c0.9-1.5,1.9-2.9,2.7-4.5c0.4-0.8,0.7-1.6,0.9-2.4
				c0.2-0.6,0.7-1.6,0.7-2.3C63.2,55,62,56,56.8,58.2c-0.9,1.2-1.8,2.4-2.7,3.5c-0.6,0.7-1.2,1.4-1.9,2.2c-0.3,0.3-0.6,0.7-0.8,1.1
				c0,0-0.5,0.8-0.5,0.7c-0.1,0-0.1,0.1-0.1,0.2c0,0,0,0-0.1,0s0,0,0,0.1c0,0,0,0,0.1,0.1c0,0.1,0.1,0.1,0.2,0.1l0,0
				c0.2,0,0.5,0.1,0.7,0.2c0,0,0.1,0,0.1,0s0.1,0,0.1-0.1c1.6,0.2,3.1,0.6,4.7,0.9C58,67.4,59.4,67.9,60.8,67.2z"/>
			<path id="Path_49_" class="st19" d="M32.7,66c0,0-3.9,1.5-3.5,3.6s1.2,2.9,5.2,7.1c4,4.2,4.9,8,6.3,7.5c1.4-0.4,2.2-3.9,6.5-7.9
				c4.4-4,16.4-18,18.1-19.7c1.7-1.7-2.9-2.1-3.8-1.9S32.7,66,32.7,66z"/>
			<path id="Path_50_" class="st21" d="M61.6,54.7c-0.2,0-1.3,0.5-3,1.1c-0.2,0.2-0.4,0.5-0.6,0.7c-1.3,1.7-2.6,3.5-3.9,5.2
				c-0.6,0.7-1.2,1.4-1.9,2.2c-0.3,0.3-0.6,0.7-0.8,1.1c0,0-0.5,0.8-0.5,0.7c-0.1,0-0.1,0.1-0.1,0.2c0,0,0,0-0.1,0s0,0,0,0.1
				c0,0,0,0,0.1,0.1c0,0.1,0.1,0.1,0.2,0.1l0,0c0.2,0,0.5,0.1,0.7,0.2c0,0,0.1,0,0.1,0s0.1,0,0.1-0.1c1.4,0.2,2.8,0.5,4.1,0.8
				c4.2-4.7,8.4-9.4,9.3-10.4C67.1,54.8,62.5,54.5,61.6,54.7z"/>
			<path id="Path_51_" class="st1" d="M96.4,83.9c0.1-2.3,1-4.8,2.2-7.4c0,0,0,0,0,0c-0.9-1-2-2.7-3.5-2c-1.3,0.6-2.2,2.5-2.9,3.6
				c-0.5,0.8-0.9,1.6-1.8,2.1c-1.2,0.6-2.9,0.4-4.2,0.4c-2.6,0-5.3-0.2-7.8,0.1c-2.7,0.2-5.4,0.7-8.1,1.3c-2.5,0.6-5.1,0.9-7.6,1.8
				c-1,0.4-2,0.8-2.9,1.4c-1.1,0.7-2.3,1.2-3.5,1.8c-2.2,1.1-4.2,2.7-6.4,3.9c-1,0.5-2.1,0.9-3.1,1.4c-1.1,0.6-2.1,1.4-3.1,2.2
				c-1.2,0.9-2.6,1.6-4.1,2c-1.3,0.4-2.7,0.6-4,1.1c-1.5,0.6-3,1.4-4.5,2c-1.3,0.5-2.5,1.1-3.7,1.8c-2.7,1.6-5.3,3.2-8,4.9
				c-0.4,0.3-0.8,0.5-1.2,0.8c4.9,7.1,9.5,9.8,9.5,9.8s1.8,5.2,2.7,7.9c1.4,4.6,2.6,9.2,3.6,13.9l12.1,6.3
				c8.4-0.8,16.2,9.5,24.6,8.5c7.1-0.9,14.1-1.7,21.2-2.5c0.2-0.5,0.3-1,0.3-1.5c1-13-4-20.2-7.1-23.6c-0.5-0.6-1.1-18.3,1.7-21.4
				S95.8,92.9,96.4,83.9z"/>
			<path id="Path_52_" class="st1" d="M77.2,105c-11.4,3.7-18.9,0.1-34.9,6.3c-4.5,3.6-7,9.4-9.4,8.5c-2.4-0.9-6.3-1.2-1.1-4.7
				c5.2-3.5,12-10.8,27.8-12.5C75.4,101,86.5,102,77.2,105z"/>
			<g id="Group_1_" transform="translate(77.841642, 84.479751)">
				<polygon id="Path_53_" class="st22" points="-38.7,4.2 -38.2,4.5 -43.9,10.8 -44.4,10.6 				"/>
				<polygon id="Path_54_" class="st23" points="-44.4,10.6 -43.9,10.8 -41.2,14 -41.6,13.8 				"/>
				<polygon id="Path_55_" class="st24" points="-38.7,4.2 -41.6,13.8 -44.4,10.6 				"/>
				<polygon id="Path_56_" class="st25" points="-38.7,4.2 -38.2,4.5 -41.2,14 -41.6,13.8 				"/>
				<polygon id="Path_57_" class="st26" points="-35.6,2.4 -35.1,2.6 -36.6,7.4 -37.1,7.1 				"/>
				<polygon id="Path_58_" class="st27" points="-44.9,14.3 -44.4,14.5 -43.2,22.5 -43.6,22.3 				"/>
				<polygon id="Path_59_" class="st26" points="-38.1,10.3 -37.6,10.6 -39.3,16.1 -39.8,15.9 				"/>
				<polygon id="Path_60_" class="st28" points="-44.9,14.3 -44.4,14.5 -38.9,20.9 -39.4,20.7 				"/>
				<polygon id="Path_61_" class="st29" points="-39.4,20.7 -38.9,20.9 -43.2,22.5 -43.6,22.3 				"/>
				<polygon id="Path_62_" class="st30" points="-33.1,8.5 -32.6,8.7 -37.6,10.6 -38.1,10.3 				"/>
				<polygon id="Path_63_" class="st23" points="-39.8,15.9 -39.3,16.1 -36.1,19.8 -36.5,19.6 				"/>
				<polygon id="Path_64_" class="st31" points="-28.5,3.9 -28,4.2 -35.1,2.6 -35.6,2.4 				"/>
				<polygon id="Path_65_" class="st32" points="-28.5,3.9 -28,4.2 -36.6,7.4 -37.1,7.1 				"/>
				<polygon id="Path_66_" class="st33" points="-33.1,8.4 -32.6,8.7 -29.2,12.5 -29.7,12.3 				"/>
				<polygon id="Path_67_" class="st34" points="-25.9,5.8 -25.4,6 -29.7,7.6 -30.2,7.4 				"/>
				<polygon id="Path_68_" class="st35" points="-31.4,17.8 -31,18 -36,19.9 -36.5,19.6 				"/>
				<polygon id="Path_69_" class="st36" points="-29.7,12.3 -29.2,12.5 -31,18 -31.4,17.8 				"/>
				<polygon id="Path_70_" class="st37" points="-32.5,21 -32,21.2 -40.6,24.4 -41.1,24.2 				"/>
				<polygon id="Path_71_" class="st38" points="-34,25.8 -33.5,26 -40.6,24.4 -41.1,24.2 				"/>
				<polygon id="Path_72_" class="st24" points="-32.5,21 -34,25.8 -41.1,24.2 				"/>
				<polygon id="Path_73_" class="st25" points="-32.5,21 -32,21.2 -33.5,26 -34,25.8 				"/>
				<polygon id="Path_74_" class="st39" points="-33.1,8.4 -29.7,12.3 -31.4,17.8 -36.5,19.6 -39.8,15.9 -38.1,10.3 				"/>
				<polygon id="Path_75_" class="st40" points="-27.8,14.4 -27.4,14.6 -30.4,24.1 -30.8,23.9 				"/>
				<polygon id="Path_76_" class="st41" points="-30.2,7.4 -29.7,7.6 -24.1,14 -24.5,13.8 				"/>
				<polygon id="Path_77_" class="st42" points="-25.9,5.8 -25.4,6 -24.1,14 -24.5,13.8 				"/>
				<polygon id="Path_78_" class="st24" points="-27.8,14.4 -25.1,17.5 -30.8,23.9 				"/>
				<polygon id="Path_79_" class="st43" points="-27.8,14.4 -27.4,14.6 -24.6,17.8 -25.1,17.5 				"/>
				<polygon id="Path_80_" class="st44" points="-25.1,17.5 -24.6,17.8 -30.4,24.1 -30.8,23.9 				"/>
				<path id="Shape" class="st45" d="M-25.3,3.5l-11.6-2.5l-9.3,10.3l-0.1,0.1l2.1,13.2l11.3,2.8l9.7-10.8L-25.3,3.5z M-24.5,13.8
					l-5.7-6.4l4.3-1.6L-24.5,13.8L-24.5,13.8z M-35.6,2.4l7.1,1.6l-8.6,3.2L-35.6,2.4L-35.6,2.4z M-38.7,4.2l-3,9.5l-2.8-3.2
					L-38.7,4.2L-38.7,4.2z M-44.9,14.3l5.6,6.4l-4.3,1.6L-44.9,14.3L-44.9,14.3z M-34,25.8l-7.1-1.7l8.6-3.2L-34,25.8L-34,25.8z
					 M-36.5,19.6l-3.2-3.7l1.7-5.6l5-1.9l3.4,3.8l-1.7,5.5L-36.5,19.6L-36.5,19.6z M-30.8,23.9l3-9.5l2.8,3.1L-30.8,23.9L-30.8,23.9
					z"/>
				<polygon id="Path_81_" class="st24" points="-44.9,14.3 -43.6,22.3 -39.4,20.7 				"/>
				<polygon id="Path_82_" class="st24" points="-35.6,2.4 -28.5,3.9 -37.1,7.1 				"/>
				<polygon id="Path_83_" class="st31" points="-32.8,27.3 -32.4,27.6 -43.7,24.8 -44.1,24.6 				"/>
				<polygon id="Path_84_" class="st24" points="-25.9,5.8 -24.5,13.8 -30.2,7.4 				"/>
				<polygon id="Path_85_" class="st46" points="-23.1,16.6 -22.6,16.8 -32.4,27.6 -32.8,27.3 				"/>
				<polygon id="Path_86_" class="st47" points="-25.3,3.5 -24.9,3.7 -22.6,16.8 -23.1,16.6 				"/>
			</g>
			<path id="Path_87_" class="st48" d="M-35,179.8c0-0.3-2.8,0.9-3,1c-0.4,0.2-0.7,0.4-1.1,0.6c0,0.1,0.1,0.1,0.1,0.2
				c0.7-0.5,1.5-0.9,2.3-1.2c0.4-0.1,1.7-0.3,1.9-0.6C-34.6,179.6-35,179.5-35,179.8z"/>
			<path id="Path_88_" class="st48" d="M-25.8,190.4c-0.3,0.9-1.5,1.6-2.4,1.7c-0.2,0.3,0.4,0.2,0.5,0.2c0.5,0,0.9-0.2,1.2-0.5
				c0.4-0.3,0.7-0.8,0.9-1.3C-25.5,190.4-25.8,190.3-25.8,190.4z"/>
			<path id="Path_89_" class="st5" d="M-27.6,193.5c-0.1-0.1-0.2-0.2-0.3-0.4c-0.1-0.1-0.1-0.3-0.1-0.5
				C-28.4,193-27.9,193.5-27.6,193.5C-27.6,193.7-27.6,193.6-27.6,193.5z"/>
			<path id="Path_90_" class="st4" d="M93.7,206.4c0,0,0.6,3.4,1.4,7.3c0.8,3.8,3.2,11.2,3.2,11.2c0.8,2.7,1,3.9,4.1,3.4
				c3.1-0.5,6.9-0.2,6.6-7.4c-0.3-7.2,2.3-10.6,2-13.5c-0.4-3-2.2-7.4-6.7-11.5C99.6,191.6,93.7,206.4,93.7,206.4z"/>
			<path id="Path_91_" class="st1" d="M76,188.4c-1.4,1-0.8,6.1,6.6,14c7.4,7.8,12,8.4,16,6.7c3.9-1.7,9.7-10,8.9-22.9
				c-0.8-12.9-5.1-16.7-15-14C82.4,174.9,76,188.4,76,188.4z"/>
			<path id="Path_92_" class="st4" d="M76.4,192.9c0,0,11.3,12.4,18.4,11.7c5-3.5,14.9-30.9,4.8-32.3
				C89.3,170.9,72.3,184.5,76.4,192.9z"/>
			<path id="Path_93_" class="st49" d="M100.1,185.1c-6.7-10.3-16.3-3.1-20.5,3.4c-1.7,2.7-0.8,5.8,0.8,8.5
				c3.9,3.6,9.9,8.2,14.3,7.7c2.2-1.6,5.5-8,7.5-14.8C101.8,188.2,101.1,186.6,100.1,185.1z"/>
			<path id="Path_94_" class="st50" d="M59.9,58.7L59.9,58.7c-3.3-0.4-9.2-18-9.2-18S32.1,50.5,31.5,57s0.3,10.1,0.3,10.1
				c0.1,0.2,2.3,6.9,8.6,11c10-11.4,22.1-21,22.1-21L59.9,58.7z"/>
			<path id="Path_95_" class="st17" d="M40.4,78.1c0.1-0.1,0.2-0.2,0.3-0.4c-0.7-0.5-1.2-1.1-1.9-1.6c-1.1-0.9-2.2-1.9-3-3.1
				c-0.5-0.9-1.1-1.8-1.6-2.7c0,0-2.6-4-2.5-3.6c0,0.2,0.1,0.4,0.1,0.5C32.1,68.2,34.4,74.3,40.4,78.1z"/>
			<path id="Path_96_" class="st18" d="M60.5,58.3l-0.6,0.4c-0.3-0.1-0.6-0.2-0.8-0.4c-0.3,0-0.6,0.1-0.9,0.2
				c-1.3,0.2-2.5,0.3-3.8,0.5c-2.5,0.2-4.9,0.5-7.4,0.8S42,60,39.5,60c-1.1-0.1-2.2-0.1-3.3,0c-0.9,0-1.8,0.1-2.6,0.2
				c-0.1,0.1-0.2,0.2-0.3,0.3s0,0.3,0.1,0.4c0.2,0.2,0.4,0.4,0.7,0.5c0.6,0.6,1.5,0.9,2.3,1.2c1.5,0.6,3.1,1,4.6,1.5
				c2.9,0.9,5.7,2.1,8.5,3.1c0.3,0.1,0.7,0.3,1.1,0.4c4.3-4.1,8.2-7.4,10.3-9.1C60.7,58.5,60.6,58.3,60.5,58.3z"/>
			<path id="Path_97_" class="st50" d="M31.9,37.3l-0.6,21.8l0.1,0.6c0,0-1.6,2.1,10.5,2.3C54,62.3,59.5,60.7,61,60.2
				c1.5-0.5,5.2-6.3,4.9-9.2c-0.2-2.9-6.6-13.5-9-23.4c-2.4-9.9-2.9-13-5.1-14.7s-19,3.6-19.5,6.6c0,6.3-1.1,6.7-1.7,9.6
				C30.7,31.8,31.1,34.6,31.9,37.3L31.9,37.3z"/>
			<path id="Path_98_" class="st17" d="M46.9,33.2c0.8-1,1.5-2.1,2.3-3.1c0.3-0.4,0.6-0.7,0.9-1.1c0.5-0.4,1.1-0.7,1.7-0.9
				c0.2-0.1,0.2-0.5,0-0.5c-1.9-0.1-3.2,1.9-4.1,3.3c-0.6,1-1.3,1.9-2,2.9c-0.7,0.9-1.6,1.7-2.5,2.4c-1,0.9-2,1.9-3.3,2
				c-1.1,0.1-2.3-0.2-3.5-0.4c-0.6-0.1-1.2-0.3-1.9-0.5c0.1-0.1,0.2-0.2,0.2-0.3c0-0.1-0.1-0.2-0.3-0.3c-0.9-0.1-1.8-0.1-2.7,0.3
				l0.1,0.3v0.7c0.5-0.2,1.1-0.3,1.6-0.2h0.7c0.3,0.1,0.6,0.2,0.8,0.2c1,0.2,1.9,0.4,2.9,0.6c1.8,0.3,3.6-0.2,5-1.4
				C44.5,36.1,45.8,34.7,46.9,33.2L46.9,33.2z"/>
			<path id="Path_99_" class="st17" d="M35.8,24.5c0,0,2.4-6.3,6.6-5.7c1-1-1.5-3-2.8-3.1C38.2,15.7,34.2,18.2,35.8,24.5z"/>
			<path id="Path_100_" class="st17" d="M49.5,17.6c-1.3,1,0.3-3.9,1.2-4.3c0.9-0.4,3.4-0.1,3.2,4.9C53.4,18.9,51.4,16.2,49.5,17.6z
				"/>
			<path id="Path_101_" class="st51" d="M35.3,22.2c0,0,2.4-6.3,6.6-5.7c1-1-1.5-3-2.8-3.1C37.8,13.4,33.8,15.9,35.3,22.2z"/>
			<path id="Path_102_" class="st51" d="M50.9,14.8c-1.3,1,0.3-3.9,1.2-4.3c0.9-0.4,3.4-0.1,3.2,4.9C54.8,16.1,52.8,13.4,50.9,14.8z
				"/>
			<path id="Path_103_" class="st19" d="M40.2,46.6c0-0.1,0-0.2,0-0.2c0-0.1,0.1-0.1,0.2-0.1c1.8,0,10.9-0.6,16.3-2.7
				c0.8-0.3-0.1,0.3-0.1,0.9c0,0.6,0.6,5.3-1.1,6.6s-8.2,0.3-10.6-0.6C41.8,49.3,40.6,47.3,40.2,46.6z"/>
			<path id="Path_104_" class="st52" d="M55.7,44.2c0,0-7.8,2.3-14.8,2.4c-0.1,0.4,1.8,3.6,8.6,4.6c1.9,0.3,3.9,0.3,5.8-0.2
				l-0.2-2.9l1-0.2L55.7,44.2z"/>
			<path id="Path_105_" class="st18" d="M56.9,39.5c0,0.2-0.1,0.4-0.3,0.5c-1.4,0.3-6.1,1.2-6.3,1C50,40.6,55,35.7,55,35.7
				s-0.6-3.9-0.7-4c-0.1-0.1-2.4-3.9-2.4-3.9s4.1,2.4,5.1,3.4c0.8,0.9,1.5,2,2,3.1c0,0,0.4,1.2-1,1.3c-0.6,0.1-1.3,0.1-1.9,0
				L56.9,39.5z"/>
			<path id="Path_106_" class="st17" d="M38.5,44.4c-0.5,0.5,2.7-3.5,4.7-4.6c1.3-0.6,2.8-1,2.7-0.8s-0.6,0.8-2.1,1.6
				C42.4,41.4,41.2,41.7,38.5,44.4z"/>
			<path id="Path_107_" class="st17" d="M36.3,47.9c0.1,1,0,1.9-0.1,2.9c-0.2,0.6,0.6-0.2,0.7-1.4S36.2,47.3,36.3,47.9z"/>
			<path id="Path_108_" class="st17" d="M44.8,53.8c-1-0.4,5.6,1.1,7.1,0.9c1.5-0.2,2.6-0.3,3.2,0c0.6,0.3,1,0.7,0.6,0.8
				c-0.4,0.1-2.8-0.3-5.6-0.4C47.4,55.1,45.9,54.2,44.8,53.8z"/>
			<path id="Path_109_" class="st53" d="M51.9,27.9c0,0,2,1.4,3.6,5c0.9,1.2,3.3,2,4.4,0.8c1-1.1-0.2-2.4-0.2-2.4
				c1-1.7,1.4-3.7,1.2-5.6c-0.5-3.1-2.2-8.3-3.5-8.9S52.3,17,49,19.9C48.4,24.2,50.5,27.2,51.9,27.9z"/>
			<path id="Path_110_" class="st21" d="M60.7,27.9c-1.4,0.8-3,1.5-4.6,1.4c-0.3-0.2-0.7-0.3-1-0.4c-0.1,0-0.4,0-0.7-0.1
				c-0.3-0.2-0.5-0.5-0.8-0.8c-0.1-0.5-0.3-1-0.7-1.3c-0.4-0.8-0.9-1.6-1.5-2.4c-0.1-0.1-0.2-0.1-0.3-0.1s-0.2,0.1-0.2,0.3
				c-0.2,0.3-0.1,0.7,0.1,0.9c0.1,0.1,0.2,0.1,0.3,0.2c0.3,0.9,0.7,1.7,1.3,2.5l0.2,0.2l0,0.1c0,0,0,0,0,0.1c0,0.2,0,0.3,0.1,0.5
				c0.1,0.1,0.2,0.2,0.3,0.4c0,0,0.1,0,0.1,0.1l0.1,0.2c0.1,0.1,0.2,0.3,0.3,0.4c0.3,0.4,0.8,0.7,1.2,0.9c1.2,0.6,2.6,0.5,3.7-0.2
				c0.7-0.5,1.3-1,1.9-1.6c0.1-0.4,0.2-0.9,0.3-1.3L60.7,27.9z"/>
			<g id="Group_2_" transform="translate(96.838710, 15.781931)">
				<path id="Path_111_" class="st54" d="M-32.7,6.5l-3.1,1.6c0,0-0.1,0-0.1,0l3.1-1.6C-32.8,6.6-32.7,6.6-32.7,6.5"/>
				<polygon id="Path_112_" class="st55" points="-32.8,6.6 -35.9,8.2 -36.3,8.2 -33.2,6.6 				"/>
				<path id="Path_113_" class="st54" d="M-35.7,2l-3.1,1.6c0-0.1,0.1-0.1,0.1-0.1l3.1-1.6C-35.6,1.9-35.6,1.9-35.7,2"/>
				<polygon id="Path_114_" class="st56" points="-35.9,2.4 -39,3.9 -38.7,3.6 -35.7,2 				"/>
				<path id="Path_115_" class="st54" d="M-35.6,11.3l-3.1,1.6c1.5-0.8,2.3-2.8,1.9-4.9c-0.6-2.6-2.9-4.6-5.2-4.3
					c-0.4,0-0.8,0.2-1.1,0.3l3.1-1.6c0.3-0.2,0.7-0.3,1.1-0.3c2.3-0.3,4.6,1.7,5.2,4.3C-33.3,8.5-34.1,10.5-35.6,11.3"/>
				<path id="Path_116_" class="st54" d="M-33.2,11l-3.1,1.6c0,0-0.1,0-0.1,0c-0.1,0-0.2,0-0.3-0.1l3.1-1.6c0.1,0.1,0.2,0.1,0.3,0.1
					C-33.3,11-33.2,11-33.2,11"/>
				<polygon id="Path_117_" class="st54" points="-33.6,10.9 -36.7,12.5 -37,12.2 -34,10.6 				"/>
				<path id="Path_118_" class="st57" d="M-39.6,1l-3.1,1.6c0-0.2,0-0.4,0.1-0.5l3.1-1.6C-39.6,0.6-39.7,0.8-39.6,1"/>
				<polygon id="Path_119_" class="st57" points="-39.5,1.5 -42.6,3 -42.7,2.6 -39.6,1 				"/>
				<path id="Path_120_" class="st54" d="M-35.6,11.3l-3.1,1.6c1.5-0.8,2.3-2.8,1.9-4.9c-0.6-2.6-2.9-4.6-5.2-4.3
					c-0.4,0-0.8,0.2-1.1,0.3l3.1-1.6c0.3-0.2,0.7-0.3,1.1-0.3c2.3-0.3,4.6,1.7,5.2,4.3C-33.3,8.5-34.1,10.5-35.6,11.3"/>
				<path id="Path_121_" class="st54" d="M-35.6,11.3l-3.1,1.6c1.5-0.8,2.3-2.8,1.9-4.9c-0.6-2.6-2.9-4.6-5.2-4.3
					c-0.4,0-0.8,0.2-1.1,0.3l3.1-1.6c0.3-0.2,0.7-0.3,1.1-0.3c2.3-0.3,4.6,1.7,5.2,4.3C-33.3,8.5-34.1,10.5-35.6,11.3"/>
				<path id="Path_122_" class="st54" d="M-35.3,11.9l-3.1,1.6c-0.3,0.2-0.7,0.3-1.1,0.4l3.1-1.6C-36,12.1-35.6,12-35.3,11.9"/>
				<polygon id="Path_123_" class="st58" points="-36.9,12.7 -40,14.3 -40.1,13.8 -37,12.3 				"/>
				<path id="Path_124_" class="st54" d="M-36.4,13.1l-3.1,1.6c0,0-0.1,0-0.1,0c-0.2,0-0.4-0.2-0.4-0.4l3.1-1.6
					C-36.8,13-36.7,13.2-36.4,13.1C-36.4,13.1-36.4,13.1-36.4,13.1"/>
				<path id="Path_125_" class="st54" d="M-41.9,3.1l-3.1,1.6c0.4-0.5,0.9-1,1.4-1.3l3.1-1.6C-41,2.1-41.5,2.5-41.9,3.1"/>
				<path id="Path_126_" class="st57" d="M-42.7,2.8l-3.1,1.6c0-0.1,0.1-0.1,0.1-0.1l3.1-1.6C-42.6,2.7-42.7,2.8-42.7,2.8"/>
				<path id="Path_127_" class="st59" d="M-35.6,11.3l-3.1,1.6c-0.4,0.2-0.7,0.3-1.1,0.3c-2.2,0.3-4.6-1.7-5.2-4.3
					c-0.5-2.2,0.3-4.1,1.9-4.9l3.1-1.6c-1.5,0.8-2.3,2.8-1.9,4.9c0.6,2.6,3,4.6,5.2,4.3C-36.4,11.6-36,11.4-35.6,11.3"/>
				<polygon id="Path_128_" class="st57" points="-42.2,3.8 -45.3,5.3 -45.7,5 -42.6,3.5 				"/>
				<path id="Path_129_" class="st57" d="M-42.6,3.5L-45.7,5c-0.2-0.1-0.2-0.4-0.1-0.6l3.1-1.6C-42.8,3.1-42.8,3.3-42.6,3.5"/>
				<path id="Path_130_" class="st54" d="M-37,12.3l-3.1,1.6c-1.1,0-2.1-0.3-2.9-1l3.1-1.6C-39.1,11.9-38,12.3-37,12.3"/>
				<path id="Path_131_" class="st54" d="M-42.6,7l-3.1,1.6c-0.2-1.1-0.1-2.2,0.4-3.2l3.1-1.6C-42.6,4.8-42.8,5.9-42.6,7"/>
				<path id="Path_132_" class="st54" d="M-39,2.1c2.3-0.3,4.6,1.7,5.2,4.3s-0.7,5-3,5.3C-39,11.9-41.3,10-42,7.3
					C-42.6,4.7-41.3,2.3-39,2.1z"/>
				<polygon id="Path_133_" class="st57" points="-40.8,11.1 -43.9,12.7 -43.7,12.3 -40.6,10.7 				"/>
				<path id="Path_134_" class="st54" d="M-40.6,10.7l-3.1,1.6c-0.8-0.8-1.5-1.9-1.8-3l3.1-1.6C-42.1,8.9-41.4,9.9-40.6,10.7"/>
				<path id="Path_135_" class="st57" d="M-40.2,11.8l-3.1,1.6c0,0-0.1,0-0.1,0c-0.1,0-0.2,0-0.3-0.1c-0.2-0.2-0.2-0.4-0.1-0.6
					l3.1-1.6c-0.1,0.2,0,0.5,0.1,0.6C-40.6,11.8-40.4,11.8-40.2,11.8C-40.3,11.8-40.3,11.8-40.2,11.8"/>
				<polygon id="Path_136_" class="st55" points="-42.4,7.7 -45.5,9.3 -45.9,9.3 -42.8,7.8 				"/>
				<path id="Shape_1_" class="st0" d="M-33,5.9c0.2,0,0.4,0.1,0.5,0.3c0,0.1,0,0.2,0,0.3c-0.1,0.1-0.2,0.1-0.3,0.1l-0.4,0
					c0.2,1.1,0.1,2.2-0.4,3.2l0.4,0.3c0.2,0.2,0.2,0.4,0.1,0.6c-0.1,0.1-0.1,0.2-0.2,0.2c-0.1,0-0.2,0-0.3-0.1l-0.4-0.3
					c-0.5,0.9-1.4,1.4-2.4,1.6l0.1,0.5c0.1,0.2,0,0.5-0.2,0.5c-0.2,0-0.4-0.2-0.4-0.4l-0.1-0.5c-1.1,0-2.1-0.3-2.9-1l-0.2,0.3
					c0,0.1-0.1,0.1-0.2,0.2c-0.1,0-0.2,0-0.3-0.1c-0.2-0.2-0.2-0.4-0.1-0.6l0.2-0.4c-0.8-0.8-1.5-1.9-1.8-3l-0.4,0
					c-0.2,0-0.4-0.1-0.5-0.3c0-0.1,0-0.2,0-0.3S-43.1,7-43,7l0.4,0c-0.2-1.1-0.1-2.2,0.4-3.2l-0.4-0.3c-0.2-0.1-0.3-0.4-0.1-0.6
					c0-0.1,0.1-0.1,0.2-0.2c0.1,0,0.2,0,0.3,0.1l0.3,0.3c0.5-0.8,1.4-1.4,2.3-1.6L-39.6,1c-0.1-0.2,0-0.5,0.2-0.5
					c0.2,0,0.4,0.2,0.4,0.4l0.1,0.4c1.1-0.1,2.1,0.3,3,1l0.3-0.4c0-0.1,0.1-0.1,0.2-0.2c0.1,0,0.2,0,0.3,0.1
					c0.2,0.2,0.2,0.4,0.1,0.6L-35.2,3c0.8,0.8,1.5,1.8,1.8,3L-33,5.9z M-36.8,11.6c2.3-0.3,3.6-2.6,3-5.3s-2.9-4.6-5.2-4.3
					s-3.6,2.6-3,5.3C-41.3,10-39,11.9-36.8,11.6L-36.8,11.6z"/>
				<path id="Path_137_" class="st57" d="M-42.8,7.8l-3.1,1.6c-0.2,0-0.4-0.1-0.5-0.3c-0.1-0.1,0-0.3,0.1-0.4l3.1-1.6
					c-0.1,0-0.1,0.1-0.2,0.2c0,0.1,0,0.2,0,0.2C-43.2,7.7-43,7.8-42.8,7.8"/>
			</g>
			<path id="Path_138_" class="st53" d="M31.2,37.6c1.1-0.5,2.4-0.5,3.4,0.1c1.9,0.9,5.3,1.6,7.7,0s7.4-9.6,9.6-9.7
				c-1.6-3.3-2-8.2-2-8.2s-4-2.2-9.6-0.4c-5.6,1.8-9.9,8.6-9.9,8.6l-1.6,4.5L31.2,37.6z"/>
			<path id="Path_139_" class="st21" d="M45.2,31.1L44.9,31c-0.3-0.1-0.5,0.3-0.4,0.5c-0.6,0.4-1.2,0.8-1.9,1
				c-0.1-0.3-0.3-0.4-0.6-0.4c-0.2,0-0.4,0.1-0.5,0.3c-0.1,0-0.2,0-0.2,0.1c0,0-0.1-0.1-0.1-0.1c-0.1-0.1-0.2-0.1-0.3-0.1l0,0
				c-0.1-0.1-0.2-0.2-0.4-0.2c-0.6-0.2-1.1-0.6-1.5-1c0-0.1-0.1-0.1-0.2-0.1s-0.2,0-0.2,0c-0.3-0.7-0.9-1.4-1.2-2.2
				c-0.6-1.3-0.8-2.6-0.8-4c0-0.2-0.2-0.4-0.4-0.4c-0.2,0-0.4,0.2-0.4,0.4c-0.1,0.6-0.1,1.2,0,1.9c0,0,0,0,0,0
				c-0.5,0.7-0.8,1.6-0.9,2.5c-0.2,0.8-0.2,1.6-0.2,2.4c0-0.1-0.1-0.2-0.1-0.2c0,0,0-0.1,0-0.1c0-0.1-0.1-0.2-0.2-0.2
				s-0.2,0-0.3,0.1c-0.1,0.1-0.1,0.2-0.2,0.2l-0.1,0.1c0-0.1,0-0.2,0-0.3c0-0.1-0.1-0.1-0.1-0.1c-0.1,0-0.1,0-0.2,0.1
				c-0.1,0.1-0.1,0.3-0.2,0.4c-0.2,0-0.4,0.2-0.4,0.4c0,0,0,0,0,0.1h0l0,0.1l0,0c-0.1,0.1-0.2,0.2-0.3,0.4c-0.3,0.3-0.6,0.7-0.9,1
				c-0.4,0.5-0.7,1-1,1.4c-0.2,0.2-0.3,0.4-0.5,0.6l0.2,0.5l0.5-0.7c0.5-0.6,0.9-1.3,1.4-1.9c0,0,0.1-0.1,0.1-0.1
				c0,0.1,0.1,0.1,0.2,0.1c0.1,0,0.2-0.1,0.2-0.1c0,0,0-0.1,0-0.1c0.1,0,0.2,0,0.3,0s0.2-0.1,0.2-0.2c0-0.1,0.1-0.2,0.1-0.3
				c0.1,0,0.1,0,0.1-0.1c0.1-0.1,0.2-0.2,0.2-0.2c0.1,0.1,0.2,0.1,0.3,0c0.2,0.1,0.3,0,0.4-0.1c0,0,0.1-0.1,0.1-0.2
				c0.8,0.2,1.7,0.4,2.5,0.5c0.9,0.1,1.9,0.3,2.9,0.3c-0.1,0.3-0.2,0.5-0.1,0.8c0,0.1,0.1,0.2,0.3,0.3c0.1,0,0.3,0,0.3-0.2
				c0.1-0.2,0.2-0.4,0.2-0.6c0.1,0.3,0.3,0.5,0.5,0.7c0.1,0,0.2,0.1,0.3,0c0.1,0,0.2-0.1,0.2-0.2c0,0,0-0.1,0-0.1
				c0.1,0,0.2-0.1,0.2-0.2C42,33.3,42,33.1,42,33c0,0.2,0.2,0.5,0.4,0.4c0.9-0.3,2.3-0.8,2.9-1.6c0.1-0.1,0.1-0.2,0.1-0.3
				S45.3,31.1,45.2,31.1z"/>
			<g id="Group_3_" transform="translate(81.548387, 16.710280)">
				<path id="Path_140_" class="st54" d="M-31.4,7.3L-34.8,9c0,0-0.1,0-0.1,0l3.4-1.7C-31.5,7.3-31.5,7.3-31.4,7.3"/>
				<polygon id="Path_141_" class="st55" points="-31.6,7.3 -34.9,9 -35.4,9.1 -32,7.4 				"/>
				<path id="Path_142_" class="st54" d="M-34.7,2.3L-38.1,4c0-0.1,0.1-0.1,0.1-0.1l3.4-1.7C-34.6,2.2-34.7,2.2-34.7,2.3"/>
				<polygon id="Path_143_" class="st56" points="-35,2.7 -38.3,4.4 -38.1,4 -34.7,2.3 				"/>
				<path id="Path_144_" class="st54" d="M-32,12.1l-3.4,1.7c0,0-0.1,0-0.1,0c-0.1,0-0.2,0-0.3-0.1l3.4-1.7c0.1,0.1,0.2,0.1,0.3,0.1
					C-32.1,12.1-32,12.1-32,12.1"/>
				<polygon id="Path_145_" class="st54" points="-32.4,12 -35.8,13.7 -36.2,13.4 -32.9,11.7 				"/>
				<path id="Path_146_" class="st57" d="M-39.1,1.2l-3.4,1.7c-0.1-0.2,0-0.4,0.1-0.5l3.4-1.7C-39.1,0.8-39.1,1-39.1,1.2"/>
				<polygon id="Path_147_" class="st57" points="-38.9,1.7 -42.3,3.4 -42.4,2.9 -39.1,1.2 				"/>
				<path id="Path_148_" class="st54" d="M-34.3,13l-3.4,1.7c-0.4,0.2-0.8,0.3-1.2,0.4l3.4-1.7C-35.1,13.4-34.7,13.2-34.3,13"/>
				<polygon id="Path_149_" class="st58" points="-36,14 -39.4,15.7 -39.5,15.2 -36.2,13.5 				"/>
				<path id="Path_150_" class="st54" d="M-35.5,14.4l-3.4,1.7c0,0-0.1,0-0.1,0c-0.2,0-0.4-0.2-0.5-0.5L-36,14
					C-36,14.3-35.8,14.5-35.5,14.4C-35.5,14.5-35.5,14.5-35.5,14.4"/>
				<path id="Path_151_" class="st54" d="M-41.5,3.4l-3.4,1.7c0.4-0.6,0.9-1.1,1.6-1.4l3.4-1.7C-40.5,2.4-41.1,2.9-41.5,3.4"/>
				<path id="Path_152_" class="st57" d="M-42.4,3.2l-3.4,1.7c0-0.1,0.1-0.1,0.1-0.1l3.4-1.7C-42.4,3.1-42.4,3.1-42.4,3.2"/>
				<path id="Path_153_" class="st59" d="M-34.7,12.4l-3.4,1.7c-0.4,0.2-0.8,0.3-1.2,0.4c-2.5,0.3-5-1.8-5.7-4.7
					c-0.6-2.4,0.3-4.5,2-5.4l3.4-1.7c-1.7,0.9-2.6,3-2,5.4c0.7,2.9,3.2,5,5.7,4.7C-35.5,12.7-35.1,12.6-34.7,12.4"/>
				<polygon id="Path_154_" class="st57" points="-41.9,4.2 -45.3,5.9 -45.7,5.6 -42.3,3.9 				"/>
				<path id="Path_155_" class="st57" d="M-42.3,3.9l-3.4,1.7c-0.2-0.2-0.3-0.4-0.2-0.7l3.4-1.7C-42.6,3.4-42.5,3.7-42.3,3.9"/>
				<path id="Path_156_" class="st54" d="M-36.2,13.5l-3.4,1.7c-1.2,0-2.3-0.4-3.2-1.1l3.4-1.7C-38.4,13.1-37.3,13.5-36.2,13.5"/>
				<path id="Path_157_" class="st54" d="M-42.3,7.7l-3.4,1.7c-0.2-1.2-0.1-2.4,0.4-3.5l3.4-1.7C-42.4,5.3-42.5,6.5-42.3,7.7"/>
				<path id="Path_158_" class="st54" d="M-34.7,12.4l-3.4,1.7c1.7-0.9,2.6-3,2-5.4c-0.7-2.9-3.2-5-5.7-4.7c-0.4,0-0.8,0.2-1.2,0.4
					l3.4-1.7c0.4-0.2,0.8-0.3,1.2-0.4c2.5-0.3,5,1.8,5.7,4.7C-32.1,9.4-33,11.6-34.7,12.4"/>
				<path id="Path_159_" class="st1" d="M-33.7,7.4c-0.7-2.9-3.2-5-5.7-4.7c-0.1,0-0.2,0-0.3,0.1c-1.7,0.9-2.5,3-2,5.4
					c0.7,2.9,3.2,5,5.7,4.7c0.1,0,0.2,0,0.3-0.1C-34,11.9-33.1,9.7-33.7,7.4z"/>
				<path id="Path_160_" class="st60" d="M-37.6,3.3c-0.8,2.1-1.8,4-2.6,6.1l0,0v0l0,0c-0.1,0.3,0.3,0.7,0.5,0.4
					c0.6-0.7,0.7-2,1.1-2.9c0.5-1.2,1-2.3,1.3-3.5c0-0.1,0-0.1,0-0.2c0-0.1-0.1-0.1-0.2-0.1C-37.5,3.2-37.6,3.3-37.6,3.3L-37.6,3.3z
					"/>
				<path id="Path_161_" class="st60" d="M-37.4,6.5c-0.1,0.6-0.6,1.4-0.9,1.9c-0.3,0.5-0.5,1-0.7,1.6c-0.1,0.3,0.3,0.5,0.4,0.2
					c0.3-0.7,0.6-1.5,0.9-2.2c0.3-0.5,0.5-1,0.6-1.6c0,0,0-0.1-0.1-0.1c0,0-0.1,0-0.1,0C-37.4,6.4-37.4,6.4-37.4,6.5z"/>
				<path id="Path_162_" class="st60" d="M-35,5.5L-35,5.5L-35,5.5c-0.6,1.6-1.5,3-2,4.6c0,0.1,0,0.2,0,0.3c0.1,0.1,0.2,0.1,0.3,0.1
					c0.1,0,0.2-0.1,0.2-0.2c0.6-1.5,1.4-3.1,1.7-4.6C-34.7,5.5-34.9,5.3-35,5.5z"/>
				<polygon id="Path_163_" class="st57" points="-40.3,12.2 -43.7,13.9 -43.5,13.5 -40.1,11.8 				"/>
				<path id="Path_164_" class="st54" d="M-40.1,11.8l-3.4,1.7c-0.9-0.9-1.6-2-2-3.2l3.4-1.7C-41.7,9.8-41,10.9-40.1,11.8"/>
				<path id="Path_165_" class="st57" d="M-39.7,13l-3.4,1.7c0,0-0.1,0-0.1,0c-0.1,0-0.2,0-0.3-0.1c-0.2-0.2-0.3-0.4-0.2-0.7
					l3.4-1.7c-0.1,0.2,0,0.5,0.2,0.7C-40.1,13-40,13-39.8,13C-39.8,13-39.8,13-39.7,13"/>
				<polygon id="Path_166_" class="st55" points="-42.1,8.5 -45.5,10.3 -45.9,10.3 -42.5,8.6 				"/>
				<path id="Path_167_" class="st57" d="M-42.5,8.6l-3.4,1.7c-0.2,0-0.5-0.1-0.5-0.4c-0.1-0.2,0-0.3,0.2-0.4l3.4-1.7
					C-43,7.9-43.1,8.1-43,8.2C-43,8.5-42.8,8.6-42.5,8.6"/>
				<path id="Shape_2_" class="st0" d="M-31.8,6.5c0.2,0,0.4,0.1,0.5,0.4c0,0.1,0,0.2,0,0.3s-0.2,0.1-0.3,0.2l-0.4,0
					c0.2,1.2,0.1,2.4-0.4,3.5l0.4,0.4c0.2,0.2,0.3,0.4,0.1,0.7c-0.1,0.1-0.2,0.2-0.3,0.2c-0.1,0-0.2,0-0.3-0.1l-0.4-0.3
					c-0.6,0.9-1.5,1.6-2.6,1.7l0.1,0.5c0.1,0.3,0,0.5-0.2,0.5c-0.2,0-0.4-0.2-0.5-0.5l-0.1-0.5c-1.1,0-2.3-0.4-3.2-1.1l-0.2,0.4
					c-0.1,0.1-0.1,0.2-0.3,0.2c-0.1,0-0.2,0-0.3-0.1c-0.2-0.2-0.3-0.5-0.2-0.7l0.2-0.4c-0.9-0.9-1.6-2-2-3.2l-0.4,0.1
					c-0.2,0-0.5-0.1-0.5-0.4c0-0.1,0-0.2,0-0.3c0.1-0.1,0.2-0.1,0.3-0.2l0.4-0.1c-0.2-1.2-0.1-2.4,0.4-3.5l-0.4-0.3
					c-0.2-0.2-0.3-0.4-0.2-0.7c0.1-0.1,0.1-0.2,0.3-0.2c0.1,0,0.2,0,0.3,0.1l0.4,0.3c0.6-0.9,1.5-1.5,2.5-1.7l-0.1-0.5
					c-0.1-0.3,0-0.5,0.2-0.5c0.2,0,0.4,0.2,0.5,0.4l0.1,0.5c1.2-0.1,2.3,0.3,3.3,1l0.3-0.4c0.1-0.1,0.1-0.2,0.3-0.2
					c0.1,0,0.2,0,0.3,0.1c0.2,0.2,0.3,0.4,0.2,0.7l-0.2,0.4c0.9,0.9,1.6,2,2,3.2L-31.8,6.5z M-35.9,12.8c2.5-0.3,3.9-2.9,3.2-5.8
					c-0.7-2.9-3.2-5-5.7-4.7c-2.5,0.3-3.9,2.9-3.2,5.8C-41,11-38.4,13.1-35.9,12.8L-35.9,12.8z"/>
			</g>
			<path id="Path_168_" class="st61" d="M56.1,47.9c0,0-2.5,0.4-4.7,0.7c2.4,0.1,4.2,0,4.2,0L56.1,47.9z"/>
			<path id="Path_169_" class="st61" d="M55.7,44.2c0,0-7.8,2.3-14.8,2.4c0,0.3,0.8,1.9,3.6,3.2c-0.8-0.6-1.6-1.4-2.1-2.3
				c0-0.1,0-0.1,0-0.2c0-0.1,0.1-0.1,0.2-0.1c7.8-0.4,12.1-1.8,13.2-2.2L55.7,44.2z"/>
			<path id="Path_170_" class="st1" d="M62,22.5c-0.6-2.6-2.9-4.6-5.2-4.3c-0.1,0-0.1,0-0.2,0c-1.5,0.8-2.3,2.8-1.8,4.9
				c0.6,2.6,3,4.6,5.2,4.3l0.2,0C61.8,26.5,62.6,24.6,62,22.5z"/>
			<path id="Path_171_" class="st1" d="M30.4,27.9c0,0-5.5,4.2-5.1,8.4c0.2,2.6,1.1,5,2.5,7.2c0,0,1.2-5.2,4.7-6.3
				C29.5,33.7,30.4,27.9,30.4,27.9z"/>
			<path id="Path_172_" class="st62" d="M31.4,36.4c-1.5-1.7-1.7-4.3-2.1-6.4c0,0,0,0,0,0c0,0,0,0-0.1,0c0,0,0,0,0,0.1
				c0.1,0.6,0.1,1.2,0.2,1.7c0.1,0.6,0.3,1.1,0.5,1.7c0.3,1.1,0.7,2.3,1.4,3.2C31.3,36.7,31.5,36.5,31.4,36.4z"/>
			<path id="Path_173_" class="st62" d="M30.6,37.5c-1-1-1.3-2.8-1.6-4.1c-0.2-0.9-0.4-1.8-0.7-2.6c0,0,0,0,0,0c0,0,0,0,0,0
				c0.3,1.2,0.5,2.5,0.8,3.7c0.3,1.1,0.5,2.5,1.3,3.3C30.5,38,30.8,37.7,30.6,37.5z"/>
			<path id="Path_174_" class="st62" d="M30,38.3c-0.4-1.1-0.9-2.1-1.4-3.2c-0.3-0.6-0.5-1.2-0.7-1.8c-0.1-0.5-0.3-0.9-0.5-1.3
				c0-0.1-0.2,0-0.1,0.1c0.7,2.2,1.5,4.3,2.4,6.4C29.8,38.6,30,38.4,30,38.3z"/>
			<path id="Path_175_" class="st62" d="M29.3,38.9c-1.1-2-2.2-3.8-2.6-6.1c0-0.1-0.1-0.1-0.1,0c0.3,2.3,1.1,4.4,2.4,6.3
				C29.1,39.3,29.4,39.1,29.3,38.9z"/>
			<path id="Path_176_" class="st62" d="M28.6,40.1c-0.4-1-1.2-1.8-1.6-2.8c-0.4-1-0.5-2.1-0.8-3.2c0,0,0-0.1-0.1-0.1
				c0,0-0.1,0-0.1,0c0,0,0,0.1,0,0.1c0.4,2.3,0.9,4.2,2.4,6.1C28.4,40.4,28.6,40.3,28.6,40.1z"/>
			<path id="Path_177_" class="st62" d="M27.7,41c-0.2-0.5-0.4-0.9-0.6-1.4c-0.1-0.4-0.3-0.8-0.5-1.1c0-0.1-0.1,0-0.1,0.1
				c0.5,0.8,0.5,1.8,1,2.6c0,0,0.1,0.1,0.2,0C27.7,41.1,27.7,41.1,27.7,41L27.7,41z"/>
			<path id="Path_178_" class="st63" d="M46.6,27.7c1.7-0.2,2.7-2,2.2-4s-2.2-3.5-4-3.2c-1.7,0.2-2.7,2-2.2,4S44.9,27.9,46.6,27.7"
				/>
			<path id="Path_179_" class="st64" d="M49.3,29.5c1.3-0.1,2-1.5,1.7-3c-0.3-1.5-1.7-2.6-2.9-2.4c-1.3,0.1-2,1.5-1.7,3
				C46.7,28.6,48,29.7,49.3,29.5"/>
			<path id="Path_180_" class="st65" d="M46.6,27.7c1.7-0.2,2.7-2,2.2-4s-2.2-3.5-4-3.2c-1.7,0.2-2.7,2-2.2,4S44.9,27.9,46.6,27.7"
				/>
			<path id="Path_181_" class="st65" d="M49.3,29.5c1.3-0.1,2-1.5,1.7-3c-0.3-1.5-1.7-2.6-2.9-2.4c-1.3,0.1-2,1.5-1.7,3
				C46.7,28.6,48,29.7,49.3,29.5"/>
			<polyline id="Path_182_" class="st66" points="32.9,29.8 40.8,31.9 47.1,28.7 			"/>
			<polyline id="Path_183_" class="st66" points="32.9,28.6 36.6,23.5 43.2,21.1 			"/>
			<path id="Path_184_" class="st66" d="M32.9,29.1L23,35.2"/>
			<path id="Path_185_" class="st67" d="M38.5,23.2c-0.1,0.2-0.5-0.2-0.6-0.2c-0.1-0.1-0.2-0.3-0.2-0.4c0-0.1,0-0.1-0.1-0.2
				c-0.1-0.3-0.5-0.2-0.5,0.1c0,0,0,0.1,0,0.1c0.1,0.2,0.1,0.4,0.1,0.7C37.1,23,37,22.8,37,22.5c-0.1-0.3-0.6-0.2-0.5,0.1
				c0,0,0,0,0,0l-0.1-0.1c-0.1-0.1-0.1-0.1-0.2-0.1c-0.1,0-0.1,0-0.2,0.1c-0.1,0.1-0.1,0.1-0.1,0.2c0,0,0,0,0-0.1
				c0.1-0.1,0.1-0.4-0.1-0.4h-0.1c-0.1,0-0.2,0.1-0.2,0.2c-0.1,0.6,0.6,2.3,1.4,2.3c0.1,0,0.2-0.1,0.3-0.2c0-0.2,0-0.3,0-0.5
				c0-0.1,0.1-0.2,0.1-0.3c0.1,0,0.1,0.1,0.2,0.1c0.1,0,0.2,0,0.3-0.1c0.1-0.1,0.1-0.2,0.1-0.3c0.4,0.4,0.8,0.5,1.1,0
				C39,23.2,38.6,22.9,38.5,23.2z"/>
			<path id="Path_186_" class="st67" d="M42.5,29.7c-0.3,0.1-0.3,0.6,0.1,0.5c0.3,0,0.5,0.7,0.3,0.9c-0.2,0.2-0.1,0.1-0.3-0.1
				c-0.1-0.2-0.2-0.2-0.3-0.3c-0.2-0.2-0.4,0-0.5,0.2c0,0.1,0,0.5,0,0.7c0,0,0-0.1,0-0.1c0-0.2,0-0.3-0.1-0.5c0-0.3-0.4-0.2-0.5,0
				c0,0.3,0,0.7-0.1,1C41,31.5,41,31,41,30.5c0-0.1-0.1-0.3-0.3-0.3c-0.1,0-0.3,0.1-0.3,0.3c0,0.3-0.1,0.7-0.1,1
				c0,0.3,0,0.5-0.1,0.8c-0.2-0.5-0.1-1.4-0.1-1.9c0-0.1-0.1-0.2-0.2-0.2c-0.1,0-0.2,0.1-0.2,0.2c-0.1,0.8-0.3,2.1,0.3,2.7
				c0.1,0.1,0.1,0.1,0.2,0.1c0.1,0,0.2,0,0.2-0.1c0.2-0.1,0.3-0.3,0.3-0.5c0.1,0.1,0.2,0.2,0.3,0.2c0.1,0,0.3,0,0.3-0.1
				c0.1-0.1,0.1-0.2,0.1-0.3c0.1,0,0.2,0,0.3,0c0.2-0.2,0.4-0.5,0.4-0.9c0.1,0.1,0.3,0.2,0.5,0.3c0.4,0.1,0.6-0.3,0.6-0.6
				C43.5,30.6,43.3,29.4,42.5,29.7z"/>
			<path id="Shape_3_" class="st67" d="M35.2,28.7c0-0.1-0.1-0.2-0.2-0.2c-0.1,0-0.2,0.1-0.2,0.2c-0.1,0.1-0.5,0.9-0.6,0.8
				C34,29.4,34,29.2,34,29.1c0-0.3,0-0.7-0.1-1c0-0.1-0.1-0.2-0.2-0.2s-0.2,0-0.3,0.1c0,0,0-0.1,0-0.1c0-0.1-0.1-0.2-0.2-0.2
				c-0.1-0.1-0.2-0.2-0.4,0c-0.4,0.5-0.7,1.1-0.9,1.8c-0.1,0.4-0.2,1.1,0.4,1.2c0.2,0,0.5-0.1,0.6-0.3c0.1,0.1,0.1,0.2,0.2,0.2
				c0.1,0.1,0.2,0.1,0.3,0c0.2-0.1,0.3-0.3,0.4-0.6c0,0,0.1,0.1,0.1,0.1c0.5,0.3,0.8-0.3,1-0.8c0.1,0,0.1,0,0.2-0.1
				c0.1,0,0.1-0.1,0.1-0.2C35.3,29,35.2,28.8,35.2,28.7L35.2,28.7z M32.4,30c0,0,0-0.1,0-0.3c0-0.2,0.1-0.4,0.1-0.6c0,0,0,0,0-0.1
				c0,0.2,0,0.3,0,0.5C32.6,29.7,32.5,29.9,32.4,30L32.4,30z"/>
			<path id="Path_187_" class="st67" d="M31.2,29c0-0.1-0.1-0.1-0.1-0.2c-0.1,0-0.2,0-0.2,0.1c-0.1,0.1-0.1,0.1-0.1,0.2
				c0.1,0.2,0.4,1.7,0.4,1.7s-0.6-1.1-0.8-1.3c0-0.1-0.1-0.2-0.3-0.1c-0.1,0-0.2,0.1-0.2,0.2c-0.1,0.5,0.2,1.2,0.2,1.7
				c-0.2-0.3-0.4-0.6-0.5-0.8c-0.2-0.2-0.4,0-0.4,0.2c0,0.1,0,0.3,0.1,0.4c0-0.1-0.1-0.3-0.1-0.4c-0.1-0.3-0.5-0.3-0.5,0
				c0,0,0,0,0,0.1h0v0c0,0.2,0.2,0.7,0.1,0.8c0.1,0.2,0.1,0.2,0,0.1c-0.1-0.2-0.2-0.4-0.3-0.5C28.3,30.9,28,31,28,31.2l0,0
				c-0.2-0.1-0.3,0-0.4,0.2c0,0.3,0,0.6-0.1,0.8c0,0-0.1-0.4-0.2-0.6c0-0.1-0.1-0.2-0.1-0.3c-0.1-0.1-0.2-0.2-0.3-0.1
				c-0.1,0.1-0.2,0.2-0.1,0.3c0,0.1,0.1,0.2,0.1,0.3c0,0.3-0.1,0.5-0.2,0.7c-0.2,0.3,0.3,0.6,0.4,0.3c0-0.1,0.1-0.2,0.1-0.3
				c0.1,0.2,0.3,0.3,0.5,0.2c0.2,0,0.3-0.2,0.3-0.3c0.1,0.1,0.1,0.2,0.2,0.3c0.2,0.1,0.4-0.1,0.4-0.2c0-0.1,0-0.2,0-0.3
				c0.1,0.1,0.2,0.1,0.3,0.1c0.1,0,0.2-0.1,0.2-0.2c0-0.1,0.1-0.2,0.1-0.3c0.1,0.1,0.1,0.1,0.2,0.2c0.1,0,0.1,0.1,0.2,0
				c0.1,0,0.1-0.1,0.1-0.2c0-0.1,0-0.2,0-0.3c0.1,0.1,0.2,0.2,0.3,0.2c0.1,0,0.1,0.1,0.2,0c0.1,0,0.1-0.1,0.2-0.1
				c0.2-0.3,0.2-0.7,0.1-1.1c0.2,0.3,0.5,0.6,0.8,0.5C32,31,31.3,29.4,31.2,29z"/>
			<path id="Path_188_" class="st67" d="M23.5,35.2c-0.1-0.3-0.1-0.6-0.1-0.9c0-0.1-0.1-0.3-0.3-0.3s-0.3,0.1-0.3,0.3
				c0,0.1,0,0.1,0,0.2l0,0c-0.2-0.1-0.4,0.2-0.4,0.4c0,0.1,0,0.2,0.1,0.4C22.4,35.1,22.2,35,22,35c-0.1,0-0.2,0.1-0.2,0.2
				c-0.1,0.2-0.1,0.4,0,0.6c0.1,0.3,0.5,0.2,0.5-0.1c0.1,0.1,0.3,0.3,0.3,0.4c0.2,0.1,0.3,0.2,0.5,0.2c0.2-0.1,0.2-0.2,0.2-0.4
				c0-0.1,0-0.2-0.1-0.3C23.4,35.6,23.5,35.4,23.5,35.2z"/>
			<path id="Path_189_" class="st60" d="M59.9,19.5c-0.6,0.1-0.9,1.5-1.1,1.9c-0.6,1.3-1.3,2.5-1.9,3.8c-0.2,0.5,0.4,0.9,0.7,0.5
				c0.4-0.9,0.8-1.8,1.2-2.8c0.2-0.6,0.5-1.1,0.7-1.7c0.1-0.3,0.3-1.3,0.6-1.4C60.1,19.8,60,19.5,59.9,19.5z"/>
			<path id="Path_190_" class="st60" d="M60.5,21c-0.5,0.6-0.9,1.3-1.2,2c-0.4,0.7-0.8,1.4-1.1,2.1c-0.1,0.3,0.2,0.6,0.5,0.4
				c0.5-0.3,0.7-1.2,0.9-1.8c0.3-0.9,0.7-1.8,1.1-2.6C60.8,21.1,60.6,20.9,60.5,21z"/>
			<path id="Path_191_" class="st60" d="M58,18.7c-0.3,0.1-0.4,0.6-0.6,0.9c-0.3,0.5-0.6,1-0.9,1.5c-0.2,0.3,0.2,0.5,0.4,0.3
				c0.2-0.4,0.5-0.8,0.6-1.3c0.1-0.2,0.2-0.4,0.3-0.6c0.1-0.1,0.1-0.4,0.2-0.5C58.2,18.9,58.1,18.7,58,18.7z"/>
			<path id="Path_192_" class="st49" d="M10.9,200.5c0.8-0.2,12.1-1.8,26-10.1c11.5-6.9,21.2-17.6,24.2-21.2
				c-0.2-0.3-0.5-0.6-0.8-0.8c-1.3-1.1-3.3-1.7-4.9-2.3c-0.8-0.3-1.6-0.5-2.4-0.7h-0.1c0.5-1,0.7-2.1,0.7-3.2
				c-0.1-1.8-1.6-3.2-3.4-3.1c-0.5-1.5-0.9-3.1-1.5-4.6c-0.4-1.1-0.9-2.2-1.4-3.3l-9.1-10.4c-0.8-0.5-1.6-1-2.4-1.5
				c-0.4-0.3-0.8,0.4-0.5,0.7c1.3,1.5,2.8,2.8,3.8,4.6c0.9,1.6,1.6,3.2,2.4,4.8c1.7,3.1,2.3,6.4,3.1,9.8c0.4,1.8,0.8,3.5,1.2,5.3
				c0.1,0.5,0.2,1.1,0.3,1.6c-1.6,3.1-3.7,6.1-6,8.7c-3.7,4.1-8.2,7.3-12.7,10.3c-4.4,2.9-9.3,4.8-13.6,7.7c-2,1.4-3.8,2.9-5.6,4.5
				c-0.8,0.6-1.5,1.3-2.1,2c-0.2-0.4-0.6-0.8-1-1.1c-0.1-0.1-0.2-0.1-0.4-0.1c-0.1-0.2-0.3-0.4-0.5-0.4c-0.8,0-1.6,0.3-2.2,0.9
				c-0.7,0.5-0.2,1.8,0.6,1.8c2.1,0.1,1.3,2.8,2.8,3.7c0.4,0.3,0.9,0.4,1.4,0.2c0.1,0.6,0.4,1.1,0.7,1.5c0.8,0.9,1.7,1.8,2.6,2.5
				c-1.8,0.8-3.8,1.3-5.7,2.1c-2.7,1.1-5.2,2.6-7.6,4.3c-2.3,1.7-4.3,3.8-6.1,6.1c-0.6-1.5-1.2-3-1.6-4.6c-0.8-2.8-1.4-5.6-1.8-8.4
				c-0.8,2.2-1.4,4.4-1.9,6.7c0.2,1.4,0.5,2.9,0.8,4.3c0.5,2.2,1.1,4.3,1.6,6.5c0.1,0.3,0.1,0.5,0.2,0.8c-0.2,0.5-0.3,1-0.4,1.5
				c-0.1,0.3,0,0.6,0.2,0.8c0.3,0.2,0.6,0.1,0.8-0.1c0.3,0.8,0.8,1.5,1.5,2c2.3,1.5,4.2-1.7,2.7-3.6c-0.6-0.8-1-2-1.3-3.1
				c2.4-2.8,5.6-5,8.7-6.8c2.4-1.4,4.9-2.4,7.6-3.1c2.1-0.5,4.2-1.2,6-2.4c-1-5-3.5-7.1-3.9-7.8C9.5,202.5,10.1,200.7,10.9,200.5z"
				/>
			<path id="Path_193_" class="st62" d="M28.6,38.4c0.7-1.1,1.5-2.2,2.3-3.2l0.2-0.3c-0.1-0.2-0.1-0.4-0.2-0.6l-0.3,0.4
				c-0.8,1.1-1.6,2.3-2.4,3.4c-0.2,0.3-1,1.6-1.8,2.9c0.1,0.2,0.2,0.3,0.2,0.5C27.3,40.4,27.9,39.4,28.6,38.4z"/>
			<path id="Path_194_" class="st49" d="M0,199.3c0-0.1-0.1-0.1-0.1-0.2c0-0.1-0.1-0.2-0.2-0.2c-1.1,0-1.6,0.1-2.2,1.1
				c-0.5,0.8-0.7,0.9-1.7,0.9c-0.8,0-1.6-0.2-2.5-0.2c-0.2,0-0.4,0.2-0.4,0.4c0,0.2,0.2,0.4,0.4,0.4c1.3,0.1,2.8,0.7,4.1,0.3
				c0.4-0.1,0.6-0.4,0.8-0.7c0.1-0.3,0.2-0.6,0.4-0.9c0.2-0.3,0.5-0.5,0.8-0.6c0,0.1,0,0.1,0,0.2c0,0.1,0.1,0.2,0.1,0.2
				c0.1,0.1,0.2,0.1,0.3,0l0.3-0.1C0.7,199.9,0.5,199.1,0,199.3z"/>
			<path id="Path_195_" class="st68" d="M85.1,125.6C85.1,125.6,85.1,125.6,85.1,125.6c-49.4,1-51.5,10.9-51.5,10.9s-0.6,0.6-1.2,3
				c4.2,1.9,7.9,5.6,11.2,9.8c1.1,1.4,1.8,3,2.1,4.7v0c0.4,2.3,0.9,4.6,1.2,6.9c0.3,1.9,0.5,4,1.3,5.8c1.3,2.9,3.6,4.4,6.8,4.5
				c2,0.1,3.9-0.4,5.8-0.8s3.9-0.7,5.8-1.4c0,0.2,0.1,0.5,0.4,0.4l0.7-0.2c0.2-0.1,0.3-0.3,0.3-0.5c-0.7-2.4-2.2-4.8-3.6-7
				c1.7-4.2,3.5-8.3,6.3-8.6c7.1-0.9,14.1-1.7,21.2-2.5c0.2-0.5,0.3-1,0.3-1.5C93.2,136.2,88.2,129,85.1,125.6z"/>
			<path id="Path_196_" class="st69" d="M55.1,171.3c2,0.1,3.9-0.4,5.8-0.8c0.8-0.2,1.6-0.3,2.4-0.5c0.7-0.3,1.4-0.8,1.7-1.5
				c0.6-1.2-0.1-3.2-1.3-3.5c1.2-1.5,0.6-4.4-1.6-4.3c-0.4,0-0.8,0-1.2,0.1c-0.3-0.1-0.6-0.1-0.9,0c-0.1,0-0.1,0-0.2,0.1
				c0.1-0.2,0.1-0.5,0.1-0.7c0.1-0.4-0.1-0.9-0.4-1.2c-0.3-0.3-0.7-0.5-1.2-0.5c0-0.5,0.1-1,0.2-1.6c0.2-1.5,0.5-2.9,0.9-4.3
				c0.1-0.3,0.2-0.7,0.2-1c0.3-0.8,0.6-1.5,0.8-2.4c0.2-0.6,0-1.2-0.5-1.5s-1.1-0.3-1.6,0.1c-0.9,0.9-1.5,2.2-1.9,3.6
				c-0.5,0.8-1,1.7-1.3,2.6c-0.8,2.2-1,4.6-1.6,6.8c-0.2,0.8-0.6,1.5-1.2,2c-0.7,0.3-1.5,0.7-2.2,1c-0.2,0-0.3-0.1-0.5-0.1
				c-1.8-0.6-2.4-2.7-2.9-4.5c0.1,0.6,0.2,1.3,0.3,1.9c0.3,1.9,0.5,4,1.3,5.8C49.6,169.7,51.9,171.2,55.1,171.3z"/>
			<path id="Path_197_" class="st69" d="M40.9,146.1c-2.1-3.2-4.9-5.9-8.1-7.9c-0.1,0.4-0.3,0.8-0.4,1.3
				C35.5,140.9,38.3,143.3,40.9,146.1z"/>
			<path id="Path_198_" class="st19" d="M67.7,181.1c0,0,13.2,17.2,17.8,18.2c4.7,0.9,14.5-4.3,12.5-8.1c-2-3.5-6.4-14.7-3.8-17.5
				c2.5-2.7,1.3-25.2-2.8-32.2c-3.5-5.9-7-7.3-13.9-8.2c-6.5-0.8-15.4,6.4-20.5,15.3C56.7,149.8,49.1,157.9,67.7,181.1z"/>
			<path id="Path_199_" class="st49" d="M90.2,140.2c2,2,2.6,5,3.5,7.6c0,0.1,0.1,0.2,0.1,0.3c-0.6-2.7-1.4-5-2.3-6.6
				c-3.5-5.9-7-7.3-13.9-8.2c-6.5-0.8-15.4,6.4-20.5,15.3c-0.2,0.4-1.2,1.7-1.7,4.2c0.7-1.4,2.9-5.5,4-6.6c1.8-1.9,3.9-4.9,5.8-6.7
				c3.7-3.4,7-5.6,12.3-6.1c2.5-0.3,5.7,1.3,8.1,2.2C87.5,136.1,88.8,138.8,90.2,140.2z"/>
			<path id="Path_200_" class="st1" d="M22,204.7C22,204.6,22,204.6,22,204.7C21.9,204.6,21.9,204.6,22,204.7c-0.1,0-0.1,0-0.1,0
				l0,0.1l0,0c-0.5,0.5-1.2,0.5-1.8,0.7c-0.8,0.3-1.6,0.6-2.3,0.9c-1.4,0.5-2.9,1-4.2,1.5c-3.1,1.3-6.1,2.6-9,4.1
				c-3.1,1.5-5.9,3.5-8.8,5.3c-2.4,1.5-4.7,3.2-6.8,5.1c-0.9-2.4-1.6-5-2-7.5c-0.2-2-0.3-4.1-0.3-6.1c0-1.5,0.1-3,0.2-4.5
				c0-0.3,0.1-0.6,0.1-0.5c-0.1,0.3-0.1,0.5-0.2,0.8c-0.1,0.7-0.3,1.4-0.4,2.1c-0.3,1.7-0.6,3.5-0.9,5.2c-0.6,3.1-1.1,6.1-1.4,9.2
				c-0.4,3.3-0.6,6.6-0.5,9.9c0.1,3.1,0.4,6.2,0.8,9.3c0,0,0.1,0,0.1,0c0-0.3-0.1-0.6-0.1-1c0,0.1,0.1,0.1,0.1,0.2
				c0.4,9.4,1.1,18.5,0.8,22.1c-0.4,5.9-12.7,18.1-15.6,20.4c-2.9,2.3-11.8,10.3-10.8,11.9c1,1.7,6.4,4,8.8,4.5s12.2-3.7,18.7-9.7
				c3.8-3.1,9.3-3,14-6.4s-0.2-10.3-0.8-12.3c-0.6-2-1.9-7.5,0.6-16.8c0.4-1.5,1-3,1.6-4.4c0.1-0.1,2.3-4.7,3.5-6.5
				c1.2-1.8,1.9-2.5,3.1-4.1c2.5-3.3,4.8-6.8,7-10.4c2.1-3.5,3.7-7.2,4.9-11.1c1.2-3.7,1.8-7.6,1.8-11.6c0,0,0-0.1,0-0.1
				C22,204.8,22,204.7,22,204.7z"/>
			<path id="Path_201_" class="st62" d="M27.7,43.5c0,0,1.2-5.2,4.7-6.3c-0.1-0.1-0.2-0.2-0.2-0.3c-1.1,0.5-2,1.3-2.7,2.3
				c-0.9,1.1-1.9,2.4-2,3.9C27.7,43.4,27.7,43.5,27.7,43.5z"/>
			<path id="Path_202_" class="st21" d="M57.1,33.9c-0.1,0-0.3-0.1-0.4-0.1c1.1,0.6,2.5,0.7,3.2-0.1c1-1.1-0.2-2.4-0.2-2.4l0,0
				c-0.3,0.1-0.6,0.2-0.9,0.2c-0.6,0.1-1.1,0.2-1.7,0.3c-0.1,0-0.1,0.1,0,0.1c0.7,0,1.3-0.1,2-0.3c0.2-0.1,0.5-0.1,0.7-0.2
				c0,0,0,0,0,0C60.4,33.4,58.6,34.3,57.1,33.9z"/>
		</g>
	</g>
</g>
</svg>
