<?xml version="1.0" encoding="UTF-8"?>
<svg width="192px" height="192px" viewBox="0 0 192 192" version="1.1" xmlns="http://www.w3.org/2000/svg" xmlns:xlink="http://www.w3.org/1999/xlink">
    <!-- Generator: Sketch 42 (36781) - http://www.bohemiancoding.com/sketch -->
    <title>ss-circle-smile</title>
    <desc>Created with Sketch.</desc>
    <defs>
        <circle id="path-1" cx="96" cy="96" r="96"></circle>
        <polygon id="path-3" points="96.787244 1.05 0.251020018 1.05 0.251020018 85.9759187 96.787244 85.9759187 96.787244 1.05"></polygon>
    </defs>
    <g id="Snapshot-3.0" stroke="none" stroke-width="1" fill="none" fill-rule="evenodd">
        <g id="Sprite-v1.0" transform="translate(-662.000000, -738.000000)">
            <g id="ss-circle-smile" transform="translate(662.000000, 738.000000)">
                <g id="Snappie-Smile">
                    <mask id="mask-2" fill="white">
                        <use xlink:href="#path-1"></use>
                    </mask>
                    <use id="Mask" fill="#A5A0D2" xlink:href="#path-1"></use>
                    <g id="Page-1" mask="url(#mask-2)">
                        <g transform="translate(-90.000000, -16.500000)">
                            <path d="M260.4801,93.93885 C260.4801,93.93885 256.3176,98.02185 256.2411,99.95385 C256.1646,101.88585 259.8201,102.36135 261.5751,102.71235 C263.3301,103.06485 266.2071,103.73835 265.9836,100.47585 C265.7601,97.21485 265.3611,93.56535 265.3611,93.56535 L260.4801,93.93885 Z" id="Fill-1" stroke="none" fill="#661E88" fill-rule="evenodd"></path>
                            <path d="M261.57495,85.5624 C261.57495,85.5624 266.63895,86.6049 267.83745,87.7224 C269.03595,88.8384 268.22295,91.0239 268.04595,92.1369 C267.86895,93.2514 267.36195,95.4744 265.88895,95.5299 C264.41745,95.5839 259.40895,94.0044 259.40895,94.0044 L261.57495,85.5624 Z" id="Fill-3" stroke="none" fill="#654E7E" fill-rule="evenodd"></path>
                            <path d="M259.45725,88.19145 C259.58775,87.37545 260.57925,85.34745 261.57525,85.56195 C262.57125,85.77645 262.12125,88.88445 261.57525,91.22745 C261.02925,93.57045 260.30025,93.98895 259.40925,94.00545 C258.51675,94.02195 258.65325,93.20145 259.45725,88.19145" id="Fill-5" stroke="none" fill="#661E88" fill-rule="evenodd"></path>
                            <path d="M260.99955,87.8016 C259.84605,87.3681 258.53805,87.1746 257.35305,86.7966 C256.29105,86.4576 255.10155,86.0601 253.97055,86.0781 C253.88505,86.0796 253.82805,86.1411 253.80255,86.2161 C253.62105,86.2926 253.50705,86.5656 253.71855,86.7216 C253.40505,87.7506 253.03005,88.8321 252.82755,89.8821 C252.74355,90.3186 252.67005,90.4326 252.97905,90.7221 C253.09605,90.8301 253.75155,90.8751 253.90305,90.9036 C254.15655,90.9501 254.40855,90.9996 254.66205,91.0476 C256.41105,91.6401 258.27405,92.1921 260.02005,92.4891 C260.22705,92.5251 260.38305,92.3616 260.47605,92.1951 C260.72055,92.1651 260.87655,91.9716 260.91705,91.6986 C261.08205,90.6051 261.29205,89.3586 261.29955,88.2636 C261.30105,88.0611 261.19155,87.8736 260.99955,87.8016" id="Fill-7" stroke="none" fill="#666666" fill-rule="evenodd"></path>
                            <path d="M258.91515,87.55245 C258.85215,87.39195 258.60165,87.50445 258.65415,87.66045 C259.08165,88.90095 258.98565,90.16395 259.02915,91.45395 C259.03815,91.74195 259.44015,91.76295 259.44915,91.46895 C259.48815,90.16095 259.39815,88.77645 258.91515,87.55245" id="Fill-9" stroke="none" fill="#989898" fill-rule="evenodd"></path>
                            <path d="M260.0247,87.8424 C259.9767,87.6354 259.6962,87.7194 259.7307,87.9189 C259.9047,88.9074 259.9842,89.9709 259.8972,90.9729 C259.8687,91.2999 260.3607,91.3194 260.3697,90.9894 C260.4027,89.9484 260.2617,88.8549 260.0247,87.8424" id="Fill-11" stroke="none" fill="#989898" fill-rule="evenodd"></path>
                            <path d="M260.98935,88.5441 C260.97135,88.3551 260.67285,88.3911 260.68035,88.5786 C260.71185,89.3526 260.68635,90.1056 260.63235,90.8781 C260.61285,91.1631 261.01485,91.1736 261.04185,90.8931 C261.11835,90.1026 261.06585,89.3316 260.98935,88.5441" id="Fill-13" stroke="none" fill="#989898" fill-rule="evenodd"></path>
                            <path d="M263.0475,87.1419 C263.0475,87.1419 261.93,79.9734 262.1595,78.5094 C262.389,77.0454 265.6515,77.7759 268.098,78.5094 C270.5445,79.2429 271.935,80.0949 269.631,83.3904 C267.327,86.6859 266.4675,87.7389 266.4675,87.7389 L263.0475,87.1419 Z" id="Fill-15" stroke="none" fill="#654E7E" fill-rule="evenodd"></path>
                            <path d="M276.105,205.01925 C230.697,177.59775 192.0315,177.06375 185.01,177.21525 C177.987,177.06375 139.323,177.59775 93.9135,205.01925 C65.6325,212.45625 43.0425,212.14275 43.0425,212.14275 C43.0425,212.14275 49.863,381.22725 185.01,381.85875 C320.1555,381.22725 326.976,212.14275 326.976,212.14275 C326.976,212.14275 304.386,212.45625 276.105,205.01925" id="Fill-22" stroke="none" fill="#977558" fill-rule="evenodd"></path>
                            <path d="M185.0094,177.2154 C174.8154,177.2154 137.1639,176.6904 137.1414,194.5464 C137.1204,212.4024 147.8304,218.7309 155.8959,222.1824 C160.8219,224.2899 170.5899,236.3439 177.4479,245.4099 C181.2444,250.4274 188.7744,250.4274 192.5709,245.4099 C199.4289,236.3439 209.1969,224.2899 214.1229,222.1824 C222.1884,218.7309 232.8984,212.4024 232.8774,194.5464 C232.8549,176.6904 195.2034,177.2154 185.0094,177.2154" id="Fill-24" stroke="none" fill="#3B3F47" fill-rule="evenodd"></path>
                            <path d="M148.7361,85.8987 C148.7361,84.3177 142.2066,78.8397 138.7266,80.6082 C135.2481,82.3767 134.7576,96.3492 140.5686,97.6272 C146.3796,98.9067 148.7361,96.7932 148.7361,96.7932 L148.7361,85.8987 Z" id="Fill-26" stroke="none" fill="#FBC39C" fill-rule="evenodd"></path>
                            <path d="M221.8149,89.1495 C224.6169,86.976 228.0564,80.892 232.2849,85.245 C236.5119,89.5995 236.4264,103.35 225.1929,101.8545 C213.9609,100.359 221.8149,89.1495 221.8149,89.1495" id="Fill-28" stroke="none" fill="#FBC39C" fill-rule="evenodd"></path>
                            <path d="M216.3657,204.35325 L188.3067,224.60475 C185.9172,226.32975 182.6757,226.26825 180.3522,224.45325 L154.7022,204.41025 C151.1082,201.60375 149.0097,197.29725 149.0097,192.73875 L149.0097,159.96375 L222.5097,159.96375 L222.5097,192.34275 C222.5097,197.10075 220.2237,201.56925 216.3657,204.35325" id="Fill-30" stroke="none" fill="#FBC39C" fill-rule="evenodd"></path>
                            <path d="M222.2361,159.45 L148.7361,159.45 L148.7361,174.426 C157.7361,181.1175 172.2111,188.6445 191.9031,194.3745 C192.7821,194.631 194.4591,194.601 195.3201,194.2845 C206.5011,190.182 216.2361,185.064 222.2361,179.9475 L222.2361,159.45 Z" id="Fill-32" stroke="none" fill="#BA8F6D" fill-rule="evenodd"></path>
                            <path d="M214.41,37.45035 C214.41,37.45035 221.415,79.88985 221.8155,83.71335 C222.216,87.53535 222.9525,89.59935 226.3425,85.47135 C226.2825,84.11685 225.0945,75.22935 224.631,65.98335 C224.166,56.73885 232.833,38.60085 228.114,27.98835 C220.8885,26.66085 214.41,37.45035 214.41,37.45035" id="Fill-34" stroke="none" fill="#FEC100" fill-rule="evenodd"></path>
                            <path d="M154.14675,46.73955 C154.14675,46.73955 138.30075,149.26305 137.79225,156.81255 C137.28975,164.25855 156.81225,178.46205 191.50575,187.83705 C192.45225,188.09355 193.47825,188.06355 194.40525,187.74705 C222.08775,178.31355 236.04375,163.51605 235.04925,155.71455 C234.03675,147.77805 219.31575,54.93855 219.51375,49.28655 C219.71175,43.63605 218.27175,29.17005 218.27175,29.17005 L164.99475,22.14105 L154.14675,46.73955 Z" id="Fill-36" stroke="none" fill="#FBC39C" fill-rule="evenodd"></path>
                            <path d="M228.92385,115.39035 C228.77235,114.40335 228.62085,113.40885 228.46785,112.41135 C226.50135,112.40085 224.40585,111.82485 222.69435,111.39285 C217.95885,110.19435 213.11835,109.08285 208.58685,107.26785 C203.78835,105.34485 199.16235,103.21335 194.74485,100.49385 C192.61635,99.18435 190.53135,97.87185 188.33985,96.67035 C187.41585,96.16185 185.97135,94.75035 184.87785,94.60635 C182.02635,94.23285 179.30535,98.68185 177.39285,100.02435 C173.62485,102.67335 169.07085,104.70285 164.76885,106.27335 C160.62135,107.78985 156.44835,109.27485 152.19735,110.52435 C149.66835,111.26835 147.08085,111.87435 144.58335,112.71885 C144.40785,112.77885 144.22785,112.85835 144.04935,112.93185 C143.88885,114.00735 143.72685,115.07985 143.56785,116.14335 C147.56535,115.41135 151.71285,113.81235 155.47335,112.61235 C159.53235,111.31785 163.54335,109.99635 167.48235,108.39735 C171.65235,106.70235 176.14185,104.63685 179.70285,101.84685 C181.11135,100.74435 182.58585,98.23485 184.46085,97.68285 C184.57935,97.75785 184.78935,97.89435 185.11785,98.16735 C186.08235,98.96685 187.42485,99.43035 188.51235,100.04685 C193.26585,102.74535 197.72685,105.71985 202.68285,108.08085 C206.73735,110.01285 210.95985,111.20085 215.23935,112.48485 C219.40935,113.73585 224.39235,115.54935 228.92385,115.39035" id="Fill-38" stroke="none" fill="#DEB18A" fill-rule="evenodd"></path>
                            <path d="M210.73485,51.64575 C213.98985,50.97825 216.88035,50.09775 219.52185,48.78975 C219.54735,47.41575 219.49785,45.65025 219.40035,43.71225 C215.55285,45.40875 211.53435,46.68525 207.37785,47.51475 C200.60535,48.86625 194.76735,47.83125 188.15835,46.22325 C182.27535,44.79225 177.19185,41.45625 173.27685,36.87825 C171.40485,34.68975 169.17285,32.84775 167.48235,30.50925 C166.38735,28.99575 165.86235,27.62325 164.36535,26.87475 C164.30385,26.38575 163.85835,26.34675 163.54935,26.55825 C163.52685,26.55225 163.51035,26.54325 163.48635,26.53575 C163.33485,26.49525 163.20285,26.50875 163.06635,26.51325 L161.99985,28.93275 C162.15435,29.13525 162.35385,29.30925 162.65685,29.39025 C162.75585,29.41725 162.84735,29.46825 162.94035,29.51175 C162.39435,33.77775 161.86335,38.03775 161.23035,42.29775 C160.82085,45.04575 160.27035,47.81325 159.55335,50.49675 C159.04035,52.41675 157.99785,54.37425 157.88835,56.37525 C157.80735,57.83775 159.60585,58.40025 160.39785,57.21075 C162.74835,53.68425 164.17035,49.56975 164.90085,45.41775 C165.40935,42.53025 165.91185,39.40725 166.10235,36.34275 C166.65135,36.94425 167.22135,37.53975 167.77335,38.16975 C169.77885,40.45725 171.65235,42.51375 174.19935,44.24325 C179.67585,47.96175 185.87085,51.68025 192.61635,52.11375 C198.51735,52.49325 204.91035,52.84125 210.73485,51.64575" id="Fill-40" stroke="none" fill="#DEB18A" fill-rule="evenodd"></path>
                            <g id="Group-44" stroke="none" stroke-width="1" fill="none" fill-rule="evenodd" transform="translate(142.500000, 0.450000)">
                                <mask id="mask-4" fill="white">
                                    <use xlink:href="#path-3"></use>
                                </mask>
                                <g id="Clip-43"></g>
                                <path d="M20.32935,27.5907 C20.27085,27.5052 20.14635,27.5577 20.16735,27.6582 C20.71485,30.3357 23.00385,44.4222 15.02835,62.2617 C8.32185,76.5897 6.95385,78.1842 6.67635,78.2787 C6.62685,78.2952 6.60585,78.3537 6.60435,78.4062 L6.50985,85.3782 C6.50985,85.4202 6.48735,85.4547 6.44685,85.4667 C5.86785,85.6347 1.47435,86.8497 2.78985,84.7947 C4.19685,82.5972 4.09485,69.7557 2.89185,65.7627 C1.69035,61.7742 -6.59115,27.7422 14.12985,18.7122 C14.17785,18.6912 14.20035,18.6312 14.17785,18.5817 C11.65785,13.1832 8.05485,12.2547 6.88785,12.0942 C6.79185,12.0807 6.77385,11.9487 6.86535,11.9142 C8.24985,11.4012 13.37685,10.0272 16.89585,16.1352 C16.94985,16.2282 17.08335,16.1787 17.06235,16.0722 C14.45535,3.3717 18.20385,1.3512 19.09935,1.0542 C19.17585,1.0287 19.24335,1.1052 19.21335,1.1817 C18.73185,2.4282 16.05135,9.9462 20.84685,11.5332 C20.87835,11.5437 20.91585,11.5377 20.94135,11.5167 C31.70685,2.9232 48.39585,3.2292 65.51835,12.6507 C78.66285,19.4787 94.92735,12.4722 96.66135,11.6892 C96.73035,11.6577 96.79785,11.7192 96.78585,11.7942 C96.35835,14.3952 90.85485,45.2397 69.39735,48.9102 C47.25735,52.6977 27.83685,38.6007 20.32935,27.5907" id="Fill-42" fill="#FEF202" mask="url(#mask-4)"></path>
                            </g>
                            <path d="M184.10625,91.95 C184.10625,91.95 182.18175,108.666 181.88775,111.861 C181.59525,115.056 183.79575,129.822 185.51325,130.1715 C187.22925,130.521 203.42175,129.3 203.42175,129.3 C203.42175,129.3 190.00275,134.076 186.44025,134.5035 C182.87775,134.9325 179.95425,133.1415 180.02475,128.151 C180.09675,123.1605 180.59625,113.3055 180.59625,113.3055 L182.59275,91.95 L184.10625,91.95 Z" id="Fill-45" stroke="none" fill="#BA8F6D" fill-rule="evenodd"></path>
                            <path d="M155.82285,139.32855 C155.82285,139.32855 157.20585,139.72605 156.72435,143.28405 C156.24135,146.04105 154.55385,147.42855 154.55385,147.42855 C154.55385,147.42855 154.06485,146.12055 154.55385,145.64205 C155.04285,145.16205 156.52185,141.24705 155.82285,139.32855" id="Fill-47" stroke="none" fill="#DEB18A" fill-rule="evenodd"></path>
                            <path d="M225.19365,124.54455 C225.00315,125.09055 223.63815,128.30055 223.94265,130.53855 C224.24865,132.77505 225.19365,132.53655 225.19365,132.53655 C225.19365,132.53655 225.10065,129.42705 225.19365,128.54355 C225.28665,127.66155 225.52065,123.60855 225.19365,124.54455" id="Fill-49" stroke="none" fill="#DEB18A" fill-rule="evenodd"></path>
                            <path d="M166.42965,146.54655 C176.79615,146.81055 195.61215,143.37855 214.09815,130.13805 C218.81415,125.66355 213.53715,139.05855 212.57865,142.25505 C211.62015,145.45155 198.76215,163.07655 178.21815,168.33705 L174.94215,168.81705 C174.94215,168.81705 178.53765,167.21805 178.37715,165.29955 C178.21815,163.38255 173.54715,147.42855 173.54715,147.42855 C173.54715,147.42855 163.30065,146.46705 166.42965,146.54655" id="Fill-51" stroke="none" fill="#333333" fill-rule="evenodd"></path>
                            <path d="M197.76525,116.7135 C197.76525,116.7135 214.40775,113.214 220.70775,118.713 C223.88475,121.338 219.21375,118.713 219.21375,118.713 L200.79525,118.1805 C200.79525,118.1805 196.29675,116.982 197.76525,116.7135" id="Fill-53" stroke="none" fill="#DEB18A" fill-rule="evenodd"></path>
                            <path d="M174.95505,147.1473 C174.95505,147.1473 179.25255,159.8823 180.02355,166.9233 C183.37455,166.2618 191.61555,162.0708 199.44855,157.3488 C207.33705,150.9603 212.01255,144.1368 212.57805,142.2588 C211.45455,142.9998 210.00855,144.1173 208.03605,145.4913 C209.39205,144.2058 212.00205,141.3723 213.56205,139.3278 C213.91005,138.3138 214.29555,137.1783 214.65855,136.0413 C214.20555,134.3583 213.00555,131.9268 213.00555,131.9268 C200.53005,143.0058 174.95505,147.1473 174.95505,147.1473" id="Fill-55" stroke="none" fill="#F0F2F2" fill-rule="evenodd"></path>
                            <path d="M228.11385,89.1495 C228.11385,89.1495 225.60435,93.5925 225.91485,95.6295 C226.22535,97.665 229.49985,95.6295 229.49985,95.6295 L227.69385,92.8995 L228.11385,89.1495 Z" id="Fill-57" stroke="none" fill="#CB916B" fill-rule="evenodd"></path>
                            <path d="M139.4601,85.2453 C139.4601,85.2453 142.6266,85.3098 144.9081,89.1498 C146.3061,92.1048 143.4036,94.6998 143.4036,94.6998 C143.4036,94.6998 142.3851,91.5093 142.6611,89.1498 C142.1511,86.2068 139.4601,85.2453 139.4601,85.2453" id="Fill-59" stroke="none" fill="#CB916B" fill-rule="evenodd"></path>
                            <path d="M197.47095,53.05395 C197.47095,53.05395 199.00395,40.81095 204.93495,36.16845 C210.86595,31.52445 218.53095,33.58845 221.47845,40.36845 C222.65745,43.75845 212.39295,38.66895 208.01895,43.94145 C203.64345,49.21245 196.94145,55.99995 197.47095,53.05395" id="Fill-61" stroke="none" fill="#FEC100" fill-rule="evenodd"></path>
                            <path d="M151.7601,46.7823 C151.7601,46.7823 168.7686,54.8133 176.4771,55.6983 C179.3226,56.5818 179.1036,56.0103 180.0246,53.0538 C180.9441,50.0973 178.2201,50.7648 173.5386,50.9478 C168.8586,51.1293 159.1296,42.8778 151.7601,46.7823" id="Fill-63" stroke="none" fill="#FEC100" fill-rule="evenodd"></path>
                            <path d="M214.65885,136.04145 C214.20435,134.35845 213.00585,131.92695 213.00585,131.92695 C200.52885,143.00595 174.95535,147.14745 174.95535,147.14745 C174.95535,147.14745 175.46085,148.65195 176.15235,150.89145 C185.15385,150.10095 201.74535,147.55095 209.92485,139.32795 C210.48135,140.75745 210.01785,142.50045 208.64235,144.89595 C210.07185,143.46045 212.20935,141.09945 213.56085,139.32795 C213.90885,138.31395 214.29585,137.17845 214.65885,136.04145" id="Fill-65" stroke="none" fill="#CCCCCB" fill-rule="evenodd"></path>
                            <path d="M213.1446,155.4645 C213.1206,155.298 213.0861,155.13 213.0411,154.965 C212.6916,155.4315 212.3256,155.868 212.0856,156.4005 C211.8501,156.9195 211.5036,157.368 211.1421,157.815 C210.4236,158.709 209.5551,159.501 208.4991,159.9735 C207.3456,160.4895 206.0571,160.593 204.8361,160.92 C201.2406,161.88 198.4806,164.667 195.3951,166.7475 C194.4081,167.412 193.3761,168.0105 192.3096,168.537 C191.9691,168.705 190.9881,169.1415 190.9206,169.5645 C190.8036,170.2935 191.8791,170.175 192.3591,170.04 C194.4456,169.4565 196.2636,168.339 197.9526,167.0085 C199.6626,165.6615 201.3111,164.1885 203.2761,163.2495 C204.7101,162.564 206.2686,162.1875 207.7731,161.6745 C209.2776,161.1615 210.7761,160.4805 211.8681,159.3255 C212.8386,158.2995 213.3471,156.861 213.1446,155.4645" id="Fill-67" stroke="none" fill="#DEB18A" fill-rule="evenodd"></path>
                            <path d="M234.1212,63.5676 C233.3487,63.9996 232.8387,64.5681 232.2597,65.2431 C231.6597,65.9406 230.8977,66.5256 230.5032,67.3686 C230.3232,67.7571 230.4657,68.3451 230.9817,68.3556 C231.8397,68.3721 232.7712,67.4946 233.3817,66.9786 C233.7912,66.6321 234.1662,66.2031 234.5907,65.8806 C234.9117,65.6361 235.2672,65.5131 235.4442,65.1096 C235.8162,64.2621 235.1637,62.9841 234.1212,63.5676" id="Fill-69" stroke="none" fill="#A78A72" fill-rule="evenodd"></path>
                            <path d="M195.1095,68.81145 C195.042,68.17395 194.3355,67.99395 193.869,68.26845 C193.4235,68.04945 192.99,67.80945 192.564,67.56495 C192.2505,67.32645 191.916,67.11795 191.541,66.97845 C190.3695,66.54495 189.5445,68.44995 190.5705,69.04845 C190.6515,69.09495 190.7355,69.12495 190.7355,69.16995 L190.7355,69.17295 C190.7355,69.17895 190.857,69.18945 190.8735,69.19545 C191.3415,69.44745 191.856,69.67845 192.3405,69.88695 C192.42,69.92445 192.5205,69.96045 192.6,69.99345 C193.0245,70.17495 193.461,70.35345 193.881,70.55745 C194.5215,70.86795 195.087,70.13895 195.132,69.59745 C195.1545,69.32295 195.138,69.08595 195.1095,68.81145" id="Fill-71" stroke="none" fill="#A78A72" fill-rule="evenodd"></path>
                            <path d="M260.4801,93.93885 C260.4801,93.93885 256.3176,98.02185 256.2411,99.95385 C256.1646,101.88585 259.8201,102.36135 261.5751,102.71235 C263.3301,103.06485 266.2071,103.73835 265.9836,100.47585 C265.7601,97.21485 265.3611,93.56535 265.3611,93.56535 L260.4801,93.93885 Z" id="Fill-73" stroke="none" fill="#661E88" fill-rule="evenodd"></path>
                            <path d="M250.16415,80.1135 L253.76715,81.5745 C254.23215,81.7635 254.50665,82.2495 254.42865,82.746 L253.87815,86.2305 L251.79315,93.1875 L250.03215,95.562 C249.58965,96.1605 248.85165,96.462 248.11815,96.3465 L244.66365,95.805 L250.16415,80.1135 Z" id="Fill-75" stroke="none" fill="#989898" fill-rule="evenodd"></path>
                            <path d="M251.4048,92.808 C251.3478,92.718 251.2683,92.646 251.1558,92.619 C249.9408,92.3325 248.6643,92.157 247.4148,92.226 C247.4073,92.226 247.4043,92.2335 247.3968,92.2335 C247.1883,92.229 246.9753,92.211 246.7713,92.22 C246.5298,92.229 246.3798,92.4075 246.3273,92.6085 C246.2868,92.6085 246.2463,92.604 246.2058,92.6055 C245.9748,92.61 245.9598,92.9805 246.1923,92.991 C246.2583,92.9955 246.3243,93.006 246.3903,93.0105 C246.4413,93.09 246.5058,93.1635 246.6138,93.201 C246.6693,93.2205 246.7293,93.231 246.7863,93.2475 C246.6243,93.453 246.6213,93.7875 246.7833,93.9945 C246.7473,94.0995 246.7428,94.215 246.7578,94.3245 C246.4383,94.401 246.1188,94.4655 245.8008,94.5495 C245.4378,94.6455 245.3583,95.019 245.4753,95.2995 C245.4558,95.3145 245.4348,95.322 245.4153,95.337 C245.2593,95.4645 245.2638,95.724 245.3628,95.9145 L246.2193,96.048 C246.3723,96.024 246.5238,96.003 246.6768,95.982 C246.6813,96.03 246.6933,96.0795 246.7098,96.126 L248.1168,96.3465 C248.8518,96.462 249.5883,96.1605 250.0308,95.562 L251.7918,93.1875 L251.8728,92.916 C251.8668,92.9145 251.8653,92.907 251.8578,92.9055 C251.7108,92.8725 251.5548,92.841 251.4048,92.808" id="Fill-77" stroke="none" fill="#666666" fill-rule="evenodd"></path>
                            <path d="M253.0059,85.91655 C252.9954,85.90305 252.9804,85.91055 252.9684,85.90455 C253.0149,85.66605 252.9384,85.40355 252.6669,85.33605 C251.5374,85.05255 250.3929,85.09305 249.2634,84.88005 C248.9004,84.81105 248.7309,85.36155 249.0909,85.47255 C250.1769,85.81005 251.3094,85.89855 252.3849,86.30355 C252.5154,86.35305 252.6279,86.33205 252.7209,86.27955 C252.5214,86.72805 252.3939,87.99705 252.3564,88.21305 C252.2154,89.01705 252.0084,89.78955 251.7699,90.56655 C251.7579,90.58755 251.7564,90.61605 251.7474,90.64155 C251.7414,90.66105 251.7369,90.68205 251.7294,90.70305 L251.7309,90.70305 C251.7264,90.72555 251.7159,90.74355 251.7144,90.76755 C251.7129,90.78855 251.7114,90.80955 251.7099,90.83055 C251.6709,91.36605 252.1344,91.78905 252.2949,91.27905 C252.6009,90.30255 252.9879,88.99155 253.0764,87.97605 C253.1319,87.33405 253.3929,86.47905 253.0059,85.91655" id="Fill-79" stroke="none" fill="#666666" fill-rule="evenodd"></path>
                            <path d="M250.734,88.3029 C250.563,87.5754 250.542,86.7234 250.2015,86.0529 C250.1205,85.8969 249.885,85.9584 249.8865,86.1339 C249.9105,87.9594 250.365,89.8014 250.7745,91.5714 C250.8855,92.0484 251.484,91.8414 251.436,91.3974 C251.3235,90.3519 250.974,89.3259 250.734,88.3029" id="Fill-81" stroke="none" fill="#666666" fill-rule="evenodd"></path>
                            <path d="M249.85725,89.72745 C249.70575,89.27145 249.62175,88.80045 249.48225,88.34295 C249.35775,87.93795 249.15525,87.56595 249.09375,87.14445 C249.05925,86.92095 248.73525,86.96895 248.73225,87.18495 C248.72475,87.56145 248.78175,87.94695 248.85225,88.33095 C248.64825,88.27995 248.39925,88.42845 248.36025,88.62945 C248.30475,88.92645 248.20125,90.79095 247.98675,90.78195 C247.46025,90.76245 247.43175,91.62795 247.95525,91.66095 C248.62125,91.70295 249.26025,91.99395 249.92775,91.94595 C250.17825,91.92645 250.36425,91.75095 250.37625,91.48995 C250.40475,90.90345 250.03875,90.27495 249.85725,89.72745" id="Fill-83" stroke="none" fill="#666666" fill-rule="evenodd"></path>
                            <path d="M244.5297,71.415 C244.4112,71.6025 247.6722,73.824 249.6732,75.1605 C250.6452,75.81 251.1822,76.926 251.0742,78.09 C250.7622,81.4365 249.5907,88.9185 245.1792,98.7465 C242.5782,101.319 239.1492,101.04 239.1492,101.04 L244.5297,71.415 Z" id="Fill-85" stroke="none" fill="#977558" fill-rule="evenodd"></path>
                            <path d="M235.38345,63.6762 C235.38345,63.6762 243.38745,58.9737 245.53095,71.9547 C247.67445,84.9357 242.78145,99.6417 237.52545,107.3022 C234.02145,111.8967 230.22045,109.2297 224.62995,109.4682 C219.03945,109.7067 235.38345,63.6762 235.38345,63.6762" id="Fill-87" stroke="none" fill="#1A1A1A" fill-rule="evenodd"></path>
                            <path d="M184.7361,57.96345 L184.7361,95.46345 C184.7361,95.46345 207.2586,107.90595 213.0516,109.46895 C218.8461,111.03045 226.3266,113.47245 228.5706,113.52945 C230.8161,113.58795 230.8401,110.44545 231.0966,109.41195 C235.4886,104.35845 249.5511,84.55695 236.2341,62.32545 C236.2341,62.32545 238.9566,59.95695 235.5411,57.72045 C232.5321,55.75095 231.3201,57.60345 228.3846,58.28445 C225.4506,58.96395 225.8766,53.23695 212.2296,54.22395 C198.5826,55.21245 193.7361,57.96345 184.7361,57.96345" id="Fill-89" stroke="none" fill="#333333" fill-rule="evenodd"></path>
                            <path d="M237.52515,80.62365 C237.52515,94.51815 226.26165,105.78015 212.36865,105.78015 C198.47415,105.78015 187.21215,94.51815 187.21215,80.62365 C187.21215,66.73065 198.47415,55.46715 212.36865,55.46715 C226.26165,55.46715 237.52515,66.73065 237.52515,80.62365" id="Fill-91" stroke="none" fill="#8B6342" fill-rule="evenodd"></path>
                            <path d="M236.30445,81.444 C236.30445,94.2105 225.95445,104.5605 213.18795,104.5605 C200.42295,104.5605 190.07295,94.2105 190.07295,81.444 C190.07295,68.6775 200.42295,58.329 213.18795,58.329 C225.95445,58.329 236.30445,68.6775 236.30445,81.444" id="Fill-93" stroke="none" fill="#977558" fill-rule="evenodd"></path>
                            <path d="M233.2359,81.444 C233.2359,92.5155 224.2599,101.4915 213.1884,101.4915 C202.1169,101.4915 193.1409,92.5155 193.1409,81.444 C193.1409,70.3725 202.1169,61.3965 213.1884,61.3965 C224.2599,61.3965 233.2359,70.3725 233.2359,81.444" id="Fill-95" stroke="none" fill="#661E88" fill-rule="evenodd"></path>
                            <path d="M218.41365,53.0832 C216.83415,52.8642 216.88215,54.7857 216.78015,55.8447 C216.69765,56.6967 216.48915,57.5997 216.54465,58.4622 C216.57015,58.8252 216.62415,59.2077 216.71115,59.5632 C216.74415,59.7027 216.89715,60.5832 217.02465,60.2577 C216.96615,60.4092 217.01865,60.6117 217.12215,60.7302 L217.15215,60.7632 C217.38465,61.0272 217.77465,60.9702 217.95315,60.6792 C218.54715,59.7147 218.53815,58.3647 218.75115,57.2817 C218.85165,56.7687 218.86365,56.2707 218.89215,55.7502 C218.91615,55.3182 218.82315,54.7437 219.04365,54.3837 C219.38115,53.8377 219.01815,53.1672 218.41365,53.0832" id="Fill-97" stroke="none" fill="#A78A72" fill-rule="evenodd"></path>
                            <path d="M241.17585,81.58995 C240.73635,81.32445 240.47235,81.47595 240.01335,81.54945 C239.65485,81.60645 238.87035,81.60345 238.39785,81.64845 C237.27735,81.75345 235.72785,81.69795 234.95535,82.66995 C234.89235,82.74795 234.87735,82.85295 234.94485,82.93545 C235.56885,83.68845 236.89185,83.59095 237.78585,83.71095 C238.64385,83.82345 239.96835,84.20295 240.82035,83.86845 C241.69485,83.52645 242.12085,82.15995 241.17585,81.58995" id="Fill-99" stroke="none" fill="#A78A72" fill-rule="evenodd"></path>
                            <path d="M235.82985,96.22245 C235.59885,95.23545 234.52485,94.70145 233.64585,94.34595 C232.92735,94.05345 231.92985,93.71745 231.19935,94.13445 C230.93235,94.28745 230.73735,94.69545 230.83935,95.00145 C231.07785,95.71695 231.83235,96.37845 232.48335,96.72045 C233.27235,97.13745 234.09135,97.86195 235.03485,97.62195 C235.62435,97.47345 235.96335,96.79545 235.82985,96.22245" id="Fill-101" stroke="none" fill="#A78A72" fill-rule="evenodd"></path>
                            <path d="M222.0471,105.8022 C221.9151,105.2922 221.6571,104.6202 221.2911,104.0457 C221.3481,104.0367 221.3556,103.9407 221.2926,103.9422 C221.2746,103.9422 221.2461,103.9452 221.2221,103.9482 C220.8711,103.4277 220.4346,102.9987 219.9156,102.8697 C219.3546,102.7317 218.8581,103.2342 218.9931,103.8042 C219.0171,103.9047 219.0756,103.9782 219.1161,104.0637 C219.1251,104.4372 219.1551,104.8182 219.2076,105.1647 C219.2976,105.7602 219.6381,106.2387 219.9036,106.6947 C220.5996,107.8962 222.4011,107.1672 222.0471,105.8022" id="Fill-103" stroke="none" fill="#A78A72" fill-rule="evenodd"></path>
                            <path d="M206.39895,103.3656 C206.34045,102.8466 205.95045,102.5121 205.53045,102.7791 C205.53645,102.7731 205.54245,102.7671 205.54845,102.7611 C205.52595,102.7611 205.50345,102.7596 205.48095,102.7596 C205.12245,102.7476 204.85245,102.9696 204.70245,103.2621 C204.13245,103.9566 203.93295,104.9226 203.88945,105.8076 C203.83095,106.9611 205.56945,107.3781 205.82595,106.1631 C205.94745,105.5796 206.19495,104.9361 206.32545,104.3016 C206.53995,103.9506 206.52645,103.6266 206.39895,103.3656" id="Fill-105" stroke="none" fill="#A78A72" fill-rule="evenodd"></path>
                            <path d="M195.31665,93.91965 C194.80215,93.66015 194.18565,93.92115 194.02215,94.41765 C193.95765,94.45515 193.88565,94.50615 193.84965,94.53015 C193.58715,94.69515 193.33665,94.87665 193.07115,95.03865 C192.61965,95.31465 192.11415,95.57265 191.66865,95.87865 C191.62215,95.90115 191.57865,95.92815 191.53065,95.94915 C191.53365,95.95515 191.53665,95.95965 191.53815,95.96565 C191.47365,96.01515 191.39415,96.05115 191.33415,96.10365 C190.47315,96.85515 191.46615,98.22765 192.40965,97.72815 C192.41415,97.74015 192.42015,97.75065 192.42465,97.76115 C193.29165,97.31415 194.10915,96.76365 194.92215,96.22365 C195.63165,95.75115 196.44165,94.48815 195.31665,93.91965" id="Fill-107" stroke="none" fill="#A78A72" fill-rule="evenodd"></path>
                            <path d="M227.604,69.92115 C228.0375,69.62115 228.4695,69.31815 228.9015,69.01815 C228.4485,68.44665 227.9745,67.89615 227.463,67.37865 C222.549,70.47615 217.8165,73.91865 213.2025,77.41065 C210.552,79.41765 207.801,81.25515 205.059,83.13315 C203.082,84.48615 200.3715,87.17265 197.8965,88.01265 C197.847,87.96915 197.784,87.94065 197.7045,87.96315 C197.304,88.07415 197.283,88.07565 196.944,88.30065 C196.575,88.54515 196.5075,89.19015 196.797,89.49465 C196.4955,90.11715 196.407,90.76515 196.833,91.44015 C197.133,91.91115 197.6655,92.19765 198.2055,91.88265 C204.222,88.37565 209.553,83.43465 215.232,79.39965 C219.432,76.41465 223.44,73.01565 227.604,69.92115" id="Fill-109" stroke="none" fill="#654E7E" fill-rule="evenodd"></path>
                            <path d="M228.4536,79.20705 C227.0586,79.41255 225.7176,80.74905 224.5116,81.48105 C222.3516,82.78905 220.2456,84.19605 218.1846,85.65555 C214.1691,88.49805 210.4476,91.88355 206.2731,94.48455 C205.8261,94.76355 206.0466,95.72805 206.6241,95.49255 C210.6006,93.87705 214.1136,89.86005 217.4766,87.29355 C219.4911,85.75455 221.5476,84.26205 223.6656,82.86705 C225.0636,81.94605 226.9011,80.11305 228.5646,79.72005 C228.8721,79.64655 228.7686,79.16055 228.4536,79.20705" id="Fill-111" stroke="none" fill="#654E7E" fill-rule="evenodd"></path>
                            <path d="M223.78815,87.7677 C223.74915,87.6567 223.69215,87.5577 223.62015,87.4707 C223.63665,87.4482 223.65765,87.4272 223.67415,87.4062 C223.85865,87.1677 223.60215,86.7822 223.34415,87.0207 C223.26465,87.0957 223.17915,87.1587 223.09815,87.2322 C223.00215,87.2427 222.90465,87.2727 222.80415,87.3477 C221.44065,88.3677 220.00365,89.2872 218.64465,90.3147 C218.20815,90.6432 217.79115,90.9987 217.36665,91.3392 C217.32015,91.3542 217.27515,91.3587 217.22415,91.3872 C216.48015,91.8012 215.74365,92.2287 215.01315,92.6697 C214.77315,92.8152 214.66215,93.0627 214.64265,93.3192 C214.23765,93.7977 214.75965,94.6332 215.36115,94.3047 C215.36415,94.3107 215.36715,94.3182 215.37165,94.3257 C215.44365,94.2792 215.51715,94.2297 215.58915,94.1817 C215.92215,94.0917 216.23265,93.9672 216.52665,93.8202 C216.66465,94.1397 216.97365,94.3482 217.34415,94.0947 C218.68215,93.1812 219.80415,91.8927 221.09715,90.8907 C222.01815,90.1752 223.03365,89.5422 223.68015,88.5522 C223.78965,88.4442 223.90815,88.3467 224.01465,88.2372 C224.21265,88.0347 224.00865,87.7212 223.78815,87.7677" id="Fill-113" stroke="none" fill="#654E7E" fill-rule="evenodd"></path>
                            <path d="M233.75715,63.4575 C233.50665,63.342 233.21115,63.3585 232.96965,63.6165 C232.70265,63.8985 232.43415,64.191 232.16115,64.4805 C232.07715,64.554 231.99615,64.629 231.90915,64.6995 C231.69465,64.872 231.44265,65.187 231.16065,65.208 C230.69865,65.2425 230.45865,65.6085 230.46315,65.979 C230.36715,66.084 230.27115,66.1875 230.18415,66.309 C229.77165,66.876 230.48115,67.818 231.12015,67.401 C231.17865,67.3635 231.23265,67.317 231.29115,67.2765 C231.91965,67.1325 232.40715,66.681 232.86015,66.246 C233.38815,65.739 233.94615,65.1885 234.40515,64.6185 C234.81615,64.1085 234.43965,63.1935 233.75715,63.4575" id="Fill-115" stroke="none" fill="#A78A72" fill-rule="evenodd"></path>
                            <path d="M203.66625,59.24775 C203.56425,58.78575 203.36625,58.37925 203.15475,57.97275 C202.93875,57.20025 202.69875,56.42775 202.32225,55.77525 C202.09875,55.38825 201.70875,55.25175 201.35775,55.31175 C201.28725,55.26675 201.21225,55.26825 201.13125,55.32375 C200.64375,55.19175 200.16075,55.71525 200.23725,56.27625 C200.35575,57.14475 200.73525,57.95325 201.05925,58.76025 C201.17475,59.05125 201.28275,59.36775 201.41925,59.66025 C201.41775,59.95875 201.56025,60.24375 201.91425,60.34425 C201.92925,60.34875 201.94125,60.34725 201.95625,60.35175 C202.03575,60.41175 202.10325,60.48225 202.19775,60.52425 C202.43025,60.62475 202.61325,60.55875 202.73625,60.41625 C202.91775,60.42825 203.10225,60.35325 203.25825,60.23025 C203.57625,60.02025 203.75325,59.64075 203.66625,59.24775" id="Fill-117" stroke="none" fill="#A78A72" fill-rule="evenodd"></path>
                            <path d="M195.2208,67.34085 C194.9553,67.13235 194.6268,67.03335 194.3433,66.85635 C193.9233,66.59235 193.5498,66.25335 193.1553,65.95635 C192.4428,65.42235 191.6598,64.83285 190.8303,64.50285 C189.8928,64.12785 189.1548,65.57235 189.8328,66.21885 C190.3638,66.72435 190.9443,67.19085 191.5518,67.61985 C191.9688,67.98885 192.4788,68.24835 192.9783,68.53785 C193.6098,68.90235 194.1768,69.31485 194.9373,69.16485 C195.7983,68.99385 195.8073,67.80135 195.2208,67.34085" id="Fill-119" stroke="none" fill="#A78A72" fill-rule="evenodd"></path>
                            <path d="M136.10055,63.6762 C136.10055,63.6762 128.09655,58.9737 125.95305,71.9547 C123.80955,84.9357 128.70255,99.6417 133.95855,107.3022 C137.46255,111.8967 141.26355,109.2297 146.85405,109.4682 C152.44455,109.7067 136.10055,63.6762 136.10055,63.6762" id="Fill-121" stroke="none" fill="#1A1A1A" fill-rule="evenodd"></path>
                            <path d="M186.2361,57.96345 L186.2361,95.46345 C186.2361,95.46345 163.9701,107.90595 158.1756,109.46895 C152.3826,111.03045 145.0296,113.47245 142.7841,113.52945 C140.5401,113.58795 140.5806,110.44545 140.3226,109.41195 C135.9306,104.35845 121.9011,84.55695 135.2181,62.32545 C135.2181,62.32545 132.5106,59.95695 135.9276,57.72045 C138.9351,55.75095 140.1561,57.60345 143.0901,58.28445 C146.0256,58.96395 145.3476,53.23695 158.9946,54.22395 C172.6416,55.21245 177.2361,57.96345 186.2361,57.96345" id="Fill-123" stroke="none" fill="#333333" fill-rule="evenodd"></path>
                            <path d="M133.95885,80.62365 C133.95885,94.51815 145.22235,105.78015 159.11535,105.78015 C173.00985,105.78015 184.27335,94.51815 184.27335,80.62365 C184.27335,66.73065 173.00985,55.46715 159.11535,55.46715 C145.22235,55.46715 133.95885,66.73065 133.95885,80.62365" id="Fill-125" stroke="none" fill="#8B6342" fill-rule="evenodd"></path>
                            <path d="M135.1797,81.444 C135.1797,94.2105 145.5297,104.5605 158.2962,104.5605 C171.0612,104.5605 181.4112,94.2105 181.4112,81.444 C181.4112,68.6775 171.0612,58.329 158.2962,58.329 C145.5297,58.329 135.1797,68.6775 135.1797,81.444" id="Fill-127" stroke="none" fill="#977558" fill-rule="evenodd"></path>
                            <path d="M138.24825,81.444 C138.24825,92.5155 147.22425,101.4915 158.29575,101.4915 C169.36725,101.4915 178.34325,92.5155 178.34325,81.444 C178.34325,70.3725 169.36725,61.3965 158.29575,61.3965 C147.22425,61.3965 138.24825,70.3725 138.24825,81.444" id="Fill-129" stroke="none" fill="#661E88" fill-rule="evenodd"></path>
                            <path d="M148.8969,54.62055 C150.4224,54.15555 150.6789,56.06055 150.9444,57.08955 C151.1604,57.91905 151.5084,58.77705 151.5894,59.63805 C151.6224,60.00105 151.6299,60.38655 151.5999,60.75255 C151.5879,60.89505 151.5759,61.78905 151.3989,61.48755 C151.4799,61.62705 151.4604,61.83555 151.3764,61.96755 L151.3524,62.00505 C151.1649,62.30355 150.7704,62.30805 150.5469,62.04855 C149.8104,61.18905 149.6064,59.85705 149.2254,58.81905 C149.0439,58.32855 148.9539,57.83955 148.8444,57.32955 C148.7529,56.90655 148.7529,56.32455 148.4799,56.00505 C148.0614,55.51755 148.3134,54.79755 148.8969,54.62055" id="Fill-131" stroke="none" fill="#A78A72" fill-rule="evenodd"></path>
                            <path d="M138.49275,99.9645 C138.56475,98.9535 139.54275,98.2575 140.35275,97.767 C141.01725,97.3665 141.94875,96.876 142.73625,97.173 C143.02425,97.2825 143.28075,97.656 143.22825,97.974 C143.10675,98.7165 142.46475,99.489 141.87675,99.9285 C141.16275,100.4655 140.46825,101.31 139.49775,101.2215 C138.89325,101.1675 138.45075,100.551 138.49275,99.9645" id="Fill-133" stroke="none" fill="#A78A72" fill-rule="evenodd"></path>
                            <path d="M153.6123,107.2539 C153.6633,106.7289 153.8118,106.0254 154.0833,105.3999 C154.0248,105.3999 154.0023,105.3069 154.0653,105.2979 C154.0818,105.2949 154.1118,105.2949 154.1358,105.2934 C154.3998,104.7249 154.7628,104.2314 155.2563,104.0229 C155.7873,103.7964 156.3573,104.2149 156.3123,104.7999 C156.3063,104.9034 156.2598,104.9844 156.2328,105.0759 C156.2823,105.4449 156.3123,105.8259 156.3168,106.1769 C156.3213,106.7799 156.0603,107.3064 155.8698,107.7984 C155.3718,109.0929 153.4773,108.6579 153.6123,107.2539" id="Fill-135" stroke="none" fill="#A78A72" fill-rule="evenodd"></path>
                            <path d="M168.6813,102.38295 C168.6573,101.86095 168.9903,101.46945 169.4463,101.66745 C169.4388,101.66295 169.4328,101.65695 169.4253,101.65245 C169.4478,101.64795 169.4703,101.64345 169.4928,101.63895 C169.8438,101.57145 170.1453,101.74845 170.3403,102.01395 C171.0123,102.60945 171.3618,103.53345 171.5448,104.40045 C171.7833,105.52995 170.1318,106.21545 169.6878,105.05445 C169.4748,104.49795 169.1298,103.90095 168.9018,103.29495 C168.6348,102.98295 168.5973,102.66195 168.6813,102.38295" id="Fill-137" stroke="none" fill="#A78A72" fill-rule="evenodd"></path>
                            <path d="M178.13745,91.30935 C178.60395,90.97185 179.25495,91.13235 179.49495,91.59735 C179.56395,91.62435 179.64195,91.66335 179.68245,91.68135 C179.96745,91.80285 180.24345,91.94235 180.53145,92.06085 C181.02045,92.26335 181.56045,92.43735 182.04795,92.66985 C182.09745,92.68335 182.14545,92.70435 182.19645,92.71785 C182.19345,92.72235 182.19195,92.72835 182.19045,92.73435 C182.26245,92.77335 182.34645,92.79585 182.41395,92.83785 C183.38295,93.44535 182.61795,94.95735 181.60845,94.61235 C181.60545,94.62435 181.60095,94.63635 181.59795,94.64835 C180.67245,94.34235 179.77845,93.92835 178.88895,93.52185 C178.11345,93.16785 177.11745,92.04885 178.13745,91.30935" id="Fill-139" stroke="none" fill="#A78A72" fill-rule="evenodd"></path>
                            <path d="M179.85615,77.26695 C180.00615,76.77495 180.37665,76.66995 180.78165,76.60695 C181.35015,76.27995 182.05065,76.11495 182.64915,75.95145 C183.33765,75.76245 184.15215,75.43995 184.84215,75.80295 C185.75265,76.27995 185.76915,77.58045 184.73415,77.91345 C183.81315,78.21045 182.88015,78.34095 181.93215,78.51495 C181.34265,78.62295 180.76215,78.80145 180.22815,78.42495 C179.87565,78.17445 179.73315,77.67345 179.85615,77.26695" id="Fill-141" stroke="none" fill="#A78A72" fill-rule="evenodd"></path>
                            <path d="M173.6442,69.92115 C174.0777,69.62115 173.0097,69.31815 173.4417,69.01815 C173.4237,68.99415 173.4042,68.97015 173.3862,68.94765 C172.6302,67.99965 171.2472,67.84665 170.2542,68.54115 C166.2702,71.32665 163.2867,74.35065 159.2427,77.41065 C156.5922,79.41765 153.8412,81.25515 151.0992,83.13315 C149.1222,84.48615 146.4117,87.17265 143.9367,88.01265 C143.8872,87.96915 143.8242,87.94065 143.7447,87.96315 C143.3442,88.07415 143.3232,88.07565 142.9842,88.30065 C142.6152,88.54515 142.5477,89.19015 142.8372,89.49465 C142.5357,90.11715 142.4472,90.76515 142.8732,91.44015 C143.1732,91.91115 143.7057,92.19765 144.2457,91.88265 C150.2622,88.37565 155.5932,83.43465 161.2722,79.39965 C165.4722,76.41465 169.4802,73.01565 173.6442,69.92115" id="Fill-143" stroke="none" fill="#654E7E" fill-rule="evenodd"></path>
                            <path d="M174.49395,79.20705 C173.09895,79.41255 171.75795,80.74905 170.55195,81.48105 C168.39195,82.78905 166.28595,84.19605 164.22495,85.65555 C160.20945,88.49805 156.48795,91.88355 152.31345,94.48455 C151.86645,94.76355 152.08695,95.72805 152.66445,95.49255 C156.64095,93.87705 160.15395,89.86005 163.51695,87.29355 C165.53145,85.75455 167.58795,84.26205 169.70595,82.86705 C171.10395,81.94605 172.94145,80.11305 174.60495,79.72005 C174.91245,79.64655 174.80895,79.16055 174.49395,79.20705" id="Fill-145" stroke="none" fill="#654E7E" fill-rule="evenodd"></path>
                            <path d="M169.82835,87.7677 C169.78935,87.6567 169.73235,87.5577 169.66035,87.4707 C169.67685,87.4482 169.69785,87.4272 169.71435,87.4062 C169.89885,87.1677 169.64235,86.7822 169.38435,87.0207 C169.30485,87.0957 169.21935,87.1587 169.13835,87.2322 C169.04235,87.2427 168.94485,87.2727 168.84435,87.3477 C167.48085,88.3677 166.04385,89.2872 164.68485,90.3147 C164.24835,90.6432 163.83135,90.9987 163.40685,91.3392 C163.36035,91.3542 163.31535,91.3587 163.26435,91.3872 C162.52035,91.8012 161.78385,92.2287 161.05335,92.6697 C160.81335,92.8152 160.70235,93.0627 160.68285,93.3192 C160.27785,93.7977 160.79985,94.6332 161.40135,94.3047 C161.40435,94.3107 161.40735,94.3182 161.41185,94.3257 C161.48385,94.2792 161.55735,94.2297 161.62935,94.1817 C161.96235,94.0917 162.27285,93.9672 162.56685,93.8202 C162.70485,94.1397 163.01385,94.3482 163.38435,94.0947 C164.72235,93.1812 165.84435,91.8927 167.13735,90.8907 C168.05835,90.1752 169.07385,89.5422 169.72035,88.5522 C169.82985,88.4442 169.94835,88.3467 170.05485,88.2372 C170.25285,88.0347 170.04885,87.7212 169.82835,87.7677" id="Fill-147" stroke="none" fill="#654E7E" fill-rule="evenodd"></path>
                            <path d="M135.3789,67.28205 C135.6069,67.12755 135.9024,67.09905 136.1829,67.31505 C136.4889,67.55205 136.8009,67.79805 137.1159,68.04105 C137.2104,68.09955 137.3034,68.16255 137.4009,68.21805 C137.6379,68.35455 137.9364,68.62605 138.2184,68.60205 C138.6804,68.56305 138.9759,68.88705 139.0299,69.25305 C139.1409,69.34155 139.2519,69.43005 139.3569,69.53505 C139.8519,70.03005 139.3014,71.07255 138.6039,70.76205 C138.5394,70.73355 138.4794,70.69605 138.4164,70.66605 C137.7729,70.62105 137.2209,70.25355 136.7049,69.89505 C136.1019,69.47655 135.4644,69.02205 134.9214,68.53155 C134.4369,68.09205 134.6634,67.12905 135.3789,67.28205" id="Fill-149" stroke="none" fill="#A78A72" fill-rule="evenodd"></path>
                            <path d="M164.4312,58.3854 C164.4597,57.9129 164.5917,57.4809 164.7357,57.0444 C164.8272,56.2494 164.9412,55.4484 165.2112,54.7434 C165.3717,54.3264 165.7347,54.1314 166.0917,54.1344 C166.1532,54.0804 166.2282,54.0699 166.3167,54.1104 C166.7772,53.9034 167.3367,54.3444 167.3487,54.9114 C167.3682,55.7874 167.1222,56.6454 166.9287,57.4929 C166.8597,57.7989 166.8042,58.1289 166.7157,58.4394 C166.7637,58.7334 166.6677,59.0364 166.3332,59.1924 C166.3197,59.1984 166.3077,59.1999 166.2927,59.2059 C166.2252,59.2779 166.1697,59.3589 166.0812,59.4144 C165.8682,59.5509 165.6777,59.5134 165.5337,59.3934 C165.3567,59.4324 165.1617,59.3874 164.9892,59.2914 C164.6412,59.1354 164.4072,58.7874 164.4312,58.3854" id="Fill-151" stroke="none" fill="#A78A72" fill-rule="evenodd"></path>
                            <path d="M174.04605,65.04735 C174.27555,64.79985 174.58305,64.64985 174.83655,64.42935 C175.21005,64.10385 175.52505,63.70935 175.86855,63.35385 C176.48655,62.71635 177.16755,62.00985 177.93405,61.55235 C178.80255,61.03485 179.75805,62.34435 179.18955,63.09135 C178.74555,63.67335 178.24605,64.22535 177.71355,64.74585 C177.35955,65.17485 176.89755,65.51085 176.44905,65.87685 C175.88355,66.33585 175.38855,66.83235 174.61455,66.80385 C173.73705,66.77085 173.53905,65.59485 174.04605,65.04735" id="Fill-153" stroke="none" fill="#A78A72" fill-rule="evenodd"></path>
                            <path d="M254.9652,88.25325 C254.8572,87.66675 254.8092,87.02025 254.4597,86.52225 C254.3802,86.40975 254.2347,86.55225 254.2842,86.65875 C254.5722,87.26325 254.5377,88.15725 254.6307,88.82325 C254.7312,89.54925 254.7372,90.29325 254.8902,91.00875 C254.9592,91.33725 255.3687,91.19025 255.3402,90.89025 C255.2607,89.99925 255.1272,89.13375 254.9652,88.25325" id="Fill-155" stroke="none" fill="#989898" fill-rule="evenodd"></path>
                            <path d="M256.07325,88.43745 C256.00575,87.96945 255.91275,87.25245 255.54225,86.90895 C255.39525,86.77395 255.19425,86.98995 255.32775,87.12645 C255.72975,87.53295 255.72825,88.51995 255.75675,89.02395 C255.79125,89.62995 255.79275,90.23745 255.77925,90.84495 C255.77025,91.16745 256.24725,91.18245 256.24125,90.86145 C256.22625,90.05445 256.18875,89.23845 256.07325,88.43745" id="Fill-157" stroke="none" fill="#989898" fill-rule="evenodd"></path>
                            <path d="M256.60875,87.1215 C256.52025,87.006 256.34475,87.156 256.41675,87.2715 C257.13975,88.413 256.88025,89.8965 257.03175,91.1775 C257.06925,91.4955 257.57175,91.4355 257.55225,91.119 C257.47575,89.826 257.42175,88.194 256.60875,87.1215" id="Fill-159" stroke="none" fill="#989898" fill-rule="evenodd"></path>
                            <path d="M258.02085,86.95755 C257.90685,86.73255 257.60985,86.92905 257.70735,87.14205 C258.28785,88.40505 257.89035,90.01455 258.10185,91.35555 C258.14235,91.61505 258.53235,91.56705 258.52635,91.30905 C258.50085,89.97705 258.63885,88.17705 258.02085,86.95755" id="Fill-161" stroke="none" fill="#989898" fill-rule="evenodd"></path>
                            <path d="M254.22765,88.49625 C254.20065,88.18725 253.76865,88.14975 253.76415,88.47975 C253.75965,89.01975 253.71465,89.54175 253.63515,90.07575 C253.57815,90.47625 254.19615,90.51075 254.22915,90.09675 C254.27115,89.55525 254.27415,89.03775 254.22765,88.49625" id="Fill-163" stroke="none" fill="#989898" fill-rule="evenodd"></path>
                            <path d="M191.4078,80.3232 C191.1828,79.8612 190.8003,79.8162 190.3893,79.8177 C189.7773,79.5837 189.0588,79.5312 188.4423,79.4637 C187.7328,79.3857 186.8763,79.1967 186.2538,79.6617 C185.4303,80.2782 185.6193,81.5637 186.6918,81.7302 C187.6488,81.8772 188.5908,81.8592 189.5538,81.8817 C190.1538,81.8952 190.7553,81.9807 191.2218,81.5247 C191.5323,81.2232 191.5938,80.7057 191.4078,80.3232" id="Fill-165" stroke="none" fill="#A78A72" fill-rule="evenodd"></path>
                            <path d="M170.6688,81.444 C170.6688,88.278 165.1293,93.8175 158.2953,93.8175 C151.4613,93.8175 145.9218,88.278 145.9218,81.444 C145.9218,74.61 151.4613,69.0705 158.2953,69.0705 C165.1293,69.0705 170.6688,74.61 170.6688,81.444 L170.6688,81.444 Z" id="Stroke-167" stroke="#A78A72" stroke-width="1.5" fill="none"></path>
                            <path d="M170.6688,81.444 C170.6688,88.278 165.1293,93.8175 158.2953,93.8175 C151.4613,93.8175 145.9218,88.278 145.9218,81.444 C145.9218,74.61 151.4613,69.0705 158.2953,69.0705 C165.1293,69.0705 170.6688,74.61 170.6688,81.444" id="Fill-169" stroke="none" fill="#FFFFFF" fill-rule="evenodd"></path>
                            <path d="M155.89635,94.39095 C155.89635,99.31095 151.90785,103.30095 146.98635,103.30095 C142.06635,103.30095 138.07785,99.31095 138.07785,94.39095 C138.07785,89.47095 142.06635,85.48095 146.98635,85.48095 C151.90785,85.48095 155.89635,89.47095 155.89635,94.39095 L155.89635,94.39095 Z" id="Stroke-171" stroke="#A78A72" stroke-width="1.5" fill="none"></path>
                            <path d="M155.89635,94.39095 C155.89635,99.31095 151.90785,103.30095 146.98635,103.30095 C142.06635,103.30095 138.07785,99.31095 138.07785,94.39095 C138.07785,89.47095 142.06635,85.48095 146.98635,85.48095 C151.90785,85.48095 155.89635,89.47095 155.89635,94.39095" id="Fill-173" stroke="none" fill="#FFFFFF" fill-rule="evenodd"></path>
                            <path d="M139.1076,90.2379 L130.6506,82.2969 L135.6306,65.2809 C135.8556,64.5144 136.7796,64.2144 137.4066,64.7109 C140.5236,67.1829 148.1526,73.2504 148.2726,73.5144" id="Stroke-175" stroke="#C0B17C" stroke-width="1.5" fill="none"></path>
                            <path d="M133.95885,81.84495 L118.95585,96.24645" id="Stroke-177" stroke="#C0B17C" stroke-width="1.5" fill="none"></path>
                            <path d="M134.90295,75.32325 C134.18295,74.82525 132.37545,74.92725 131.17395,75.51675 C131.45895,75.13125 131.74395,74.74425 132.02745,74.35875 C132.14745,74.27475 133.84395,73.98975 134.10045,74.38425 C134.18145,74.50875 134.38845,74.44125 134.34045,74.28375 C133.83495,72.62175 129.80445,73.77225 130.15095,75.52875 C130.18695,75.71325 130.29795,75.87225 130.45395,76.00875 C130.18545,76.27275 130.01745,76.58175 130.01895,76.94025 C130.01895,77.04375 130.03545,77.13675 130.05645,77.22525 C129.45195,77.53125 129.07845,77.98125 129.20595,78.61725 C129.25695,78.87825 129.39945,79.08975 129.57795,79.27725 C129.32145,79.41375 129.12045,79.55475 129.01845,79.68525 C128.55495,80.28825 128.73645,80.81925 129.23595,81.22275 C128.17095,82.73175 130.39695,83.08275 131.39895,82.86225 C131.89545,82.75275 131.71995,81.98325 131.22045,82.04175 C130.53195,82.26375 130.29645,82.16925 130.44795,81.80475 C131.65245,82.14975 133.14495,82.09275 133.68045,81.40275 C133.80495,81.24225 133.86495,80.98725 133.69995,80.82225 C133.00245,80.12325 131.27895,80.07825 130.13445,80.55675 C130.03995,80.40675 130.03395,80.21325 130.19145,79.94925 C130.22145,79.89825 130.31295,79.84875 130.43295,79.80075 C131.69295,80.26875 133.54245,80.10075 134.27145,79.53075 C134.38095,79.44525 134.40645,79.26375 134.38095,79.13775 C134.17845,78.10875 132.01245,78.36225 130.47495,78.89325 C130.35945,78.83175 130.26345,78.76425 130.21995,78.68475 C130.05195,78.37425 130.24095,78.12975 130.60845,77.94375 C131.71545,78.59025 134.05695,78.14025 134.76495,77.52825 C134.91345,77.40075 134.90445,77.07075 134.71845,76.97475 C134.14545,76.67775 132.43845,76.57875 131.06895,76.88325 C131.07495,76.76025 131.14845,76.61175 131.30895,76.43325 C132.63795,76.81575 134.66895,76.60425 135.00945,75.84075 C135.08895,75.66225 135.07995,75.44625 134.90295,75.32325" id="Fill-179" stroke="none" fill="#C0B17C" fill-rule="evenodd"></path>
                            <path d="M130.2681,88.0428 C129.3456,87.3753 128.5821,86.5383 127.7796,85.7343 C127.5111,85.4658 127.1361,85.8783 127.3761,86.1438 C128.1486,86.9928 128.9046,88.0713 129.9036,88.6683 C130.3026,88.9068 130.6191,88.2978 130.2681,88.0428" id="Fill-181" stroke="none" fill="#C0B17C" fill-rule="evenodd"></path>
                            <path d="M130.67175,87.3792 C129.92175,86.7192 129.26175,86.0577 128.63175,85.2822 C128.43225,85.0377 128.11275,85.3932 128.29875,85.6182 C128.93925,86.3937 129.59025,87.1647 130.26975,87.9042 C130.59975,88.2627 131.05575,87.6402 130.67175,87.3792" id="Fill-183" stroke="none" fill="#C0B17C" fill-rule="evenodd"></path>
                            <path d="M132.46545,85.575 C131.86245,84.87 131.14545,84.2025 130.46595,83.571 C130.27995,83.3985 130.04145,83.6595 130.19595,83.8425 C130.44045,84.1335 130.66695,84.4365 130.89345,84.738 C130.66845,84.5025 130.44495,84.2655 130.22145,84.027 C129.99945,83.793 129.72345,84.132 129.88995,84.3645 C130.38195,85.056 130.86645,85.746 131.42295,86.385 C131.37495,86.367 131.32395,86.3595 131.27295,86.3625 C130.48995,85.932 129.81045,85.0875 129.24645,84.453 C129.07095,84.2565 128.80995,84.549 128.96895,84.7335 C129.16845,84.966 129.37245,85.1955 129.57195,85.428 C129.38145,85.272 129.18495,85.122 129.00045,84.96 C128.81595,84.801 128.59395,85.1325 128.74695,85.293 C129.50745,86.088 130.32195,86.844 131.04645,87.6735 C131.37045,88.092 131.96595,87.4455 131.60295,87.1095 C131.59695,87.1035 131.58945,87.0975 131.58345,87.0915 C131.68245,86.9715 131.72595,86.7945 131.65545,86.661 C132.01095,87.018 132.45945,86.589 132.35145,86.1915 C132.53445,86.07 132.64695,85.788 132.46545,85.575" id="Fill-185" stroke="none" fill="#C0B17C" fill-rule="evenodd"></path>
                            <path d="M135.15195,85.0857 C135.30195,84.7917 134.97795,84.4227 134.66745,84.6732 C134.60745,84.7227 134.54595,84.7797 134.48445,84.8307 C134.59695,84.7107 134.69895,84.5802 134.81295,84.4617 C135.07845,84.1857 134.70195,83.6982 134.41095,83.9907 C133.70895,84.6987 132.70245,85.5507 132.36045,86.5197 C132.30345,86.6832 132.37395,86.9067 132.52245,87.0012 C132.55395,87.0207 132.58545,87.0417 132.61695,87.0612 C132.72495,87.1317 132.82695,87.1197 132.91695,87.0822 C132.94845,87.3957 133.27095,87.5472 133.50795,87.3972 C133.68495,87.7527 134.15595,87.5517 134.18295,87.2052 C134.16945,87.3807 134.22495,87.1722 134.28645,87.0867 C134.41695,86.9022 134.53245,86.7027 134.65995,86.5167 C134.89395,86.1732 135.12495,85.8477 135.44445,85.5807 C135.67695,85.3872 135.42645,84.9477 135.15195,85.0857" id="Fill-187" stroke="none" fill="#A9944B" fill-rule="evenodd"></path>
                            <path d="M136.38015,86.9061 C136.35615,86.9286 136.33215,86.9571 136.30815,86.9811 C136.32465,86.7231 136.05615,86.4741 135.81015,86.7051 C135.69165,86.8176 135.51765,86.9766 135.34515,87.1581 C135.51765,86.8686 135.73515,86.6001 135.95115,86.3391 C136.23165,86.0001 135.82065,85.4256 135.47415,85.7841 C134.85615,86.4231 134.20515,87.0951 134.20215,88.0356 C134.20215,88.4001 134.50365,88.5126 134.74365,88.4196 C134.77665,88.5366 134.83365,88.6476 134.95815,88.7451 C135.07065,88.8336 135.17265,88.8096 135.25815,88.7541 C135.25365,88.8006 135.23265,88.8456 135.23115,88.8951 C135.22965,89.2941 135.73665,89.3916 135.87465,89.0121 C136.09215,88.4121 136.39215,87.8946 136.81965,87.4191 C137.09715,87.1116 136.70415,86.5866 136.38015,86.9061" id="Fill-189" stroke="none" fill="#A9944B" fill-rule="evenodd"></path>
                            <path d="M136.17,64.2786 C136.1235,64.3071 136.0995,64.3581 136.0845,64.4121 C136.032,64.4766 135.999,64.5591 136.0155,64.6641 C136.05,64.8666 136.0905,64.9521 136.269,65.0511 C136.386,65.1156 136.4835,65.0976 136.584,65.0181 C136.947,64.7316 136.6125,63.9996 136.17,64.2786" id="Fill-191" stroke="none" fill="#A9944B" fill-rule="evenodd"></path>
                            <path d="M135.19005,63.8604 C135.19305,63.8514 135.19755,63.8439 135.20205,63.8364 C135.26805,63.9024 135.36705,63.9234 135.44805,63.8274 C136.15305,62.9889 137.16405,64.1109 137.14155,64.8894 C137.09955,66.2559 135.25605,65.4489 135.59355,64.6824 C135.73455,64.3629 135.48855,63.8829 135.19005,63.8604 M137.53455,62.7609 C136.43955,62.0784 134.71755,62.0334 134.48955,63.5709 C134.47605,63.6579 134.50305,63.7284 134.54805,63.7839 C134.29905,64.4409 134.39655,65.3319 134.73105,65.8434 C135.46305,66.9594 137.19855,67.1784 138.11355,66.1719 C139.00455,65.1909 138.61755,63.4344 137.53455,62.7609" id="Fill-193" stroke="none" fill="#A9944B" fill-rule="evenodd"></path>
                            <path d="M148.45485,72.1953 C148.31985,72.4368 148.11585,72.6528 147.89535,72.8598 C147.94785,72.7893 148.00335,72.7203 148.05585,72.6498 C148.21785,72.4338 147.89085,72.1083 147.69435,72.3243 C147.39435,72.6543 147.09285,72.9768 146.82885,73.3323 C146.72385,73.4733 146.80485,73.6458 146.93085,73.7343 C146.60835,74.0808 147.13335,74.6778 147.42735,74.2983 C147.89385,73.6968 148.57785,73.1163 148.87185,72.4038 C148.97535,72.1518 148.59435,71.9448 148.45485,72.1953" id="Fill-195" stroke="none" fill="#A9944B" fill-rule="evenodd"></path>
                            <path d="M147.4104,71.36625 C147.1089,71.85075 146.4369,72.11775 146.0229,72.50625 C145.7394,72.77175 146.0679,73.38075 146.4324,73.12725 C146.9304,72.78225 147.7689,72.16425 147.8484,71.51175 C147.8784,71.25675 147.5379,71.16075 147.4104,71.36625" id="Fill-197" stroke="none" fill="#A9944B" fill-rule="evenodd"></path>
                        </g>
                    </g>
                </g>
            </g>
        </g>
    </g>
</svg>