<?xml version="1.0" encoding="UTF-8"?>
<svg width="16px" height="18px" viewBox="0 0 16 18" version="1.1" xmlns="http://www.w3.org/2000/svg" xmlns:xlink="http://www.w3.org/1999/xlink">
    <!-- Generator: Sketch 44.1 (41455) - http://www.bohemiancoding.com/sketch -->
    <title>snapshot-icon</title>
    <desc>Created with Sketch.</desc>
    <defs></defs>
    <g id="symbols" stroke="none" stroke-width="1" fill="none" fill-rule="evenodd">
        <g id="wp-menu" transform="translate(-11.000000, -397.000000)" fill="#010101">
            <path d="M11.8958333,400.71599 L17.2291667,397.536993 L13.6666667,403.873508 L11.8958333,400.71599 Z M16.9166667,402.305489 L21.0833333,402.305489 L23.2083333,406.085919 L21.125,409.694511 L16.9166667,409.694511 L16.9166667,409.673031 L14.8541667,406 L16.9166667,402.305489 Z M25.2291667,400.178998 L19.8958333,397 L18.1041667,400.178998 L25.2291667,400.178998 Z M11,403.357995 L14.5625,409.694511 L11,409.694511 L11,403.357995 Z M23.4375,402.305489 L27,402.305489 L27,408.642005 L23.4375,402.305489 Z M26.1041667,411.28401 L20.8125,414.441527 L24.375,408.190931 L26.1041667,411.28401 Z M18.125,414.97852 L19.9166667,411.821002 L12.7708333,411.821002 L18.1041667,415 L18.125,414.97852 Z" id="snapshot-icon"></path>
        </g>
    </g>
</svg>
