<?xml version="1.0" encoding="UTF-8" standalone="no"?>
<svg width="12px" height="18px" viewBox="0 0 12 18" version="1.1" xmlns="http://www.w3.org/2000/svg" xmlns:xlink="http://www.w3.org/1999/xlink">
    <!-- Generator: Sketch 3.8.3 (29802) - http://www.bohemiancoding.com/sketch -->
    <title>Combined Shape</title>
    <desc>Created with Sketch.</desc>
    <defs></defs>
    <g id="workflow" stroke="none" stroke-width="1" fill="none" fill-rule="evenodd">
        <g id="Optin-Dashboard-Initial" transform="translate(-12.000000, -445.000000)" fill="#FFFFFF">
            <g id="wp-admin-+-pop-ups--ADMIN-SIDE-+-pointer">
                <g id="pop-ups--ADMIN-SIDE" transform="translate(0.000000, 437.000000)">
                    <path d="M23.3525923,19.3143808 C23.3828799,19.4511056 23.41024,19.5933694 23.4339727,19.7411443 C23.495982,20.1272533 23.5332279,20.5509851 23.5332279,21.0118408 C23.5332279,23.762062 21.1493663,26 18.9622271,26 C16.7750879,26 14.6850379,25.0841444 13.7448179,23.2506636 C12.804598,21.4171828 10.9241581,17.7502212 12.804598,17.7502212 C14.6850378,17.7502212 15.2278063,21.4980884 17.3234515,21.4980884 C19.4190968,21.4980884 19.5742981,20.7977614 19.6219902,19.7246456 C19.6696823,18.6515299 19.3861373,17.3973813 17.5056979,17.3973813 C15.6252585,17.3973813 14.4154325,18.4040889 13.7448179,17.7502212 C12.804598,16.8334808 13.7448179,15.9167404 13.7448179,15.9167404 C13.7448179,15.9167404 14.6553831,15.0289142 17.3726041,15.0006876 L16.2114093,13.4976476 C16.2114093,13.4976476 14.0010871,11.4389092 14.6529457,10.309857 C15.0337507,9.6502834 16.0254714,10.2653247 17.3124664,11.3809006 C16.9097461,10.6440588 16.0810508,8.8985576 16.8131594,8.16644902 C17.7533793,7.2262291 19.4712373,10.4380214 21.4319313,13.5587927 C22.6215119,15.4522086 23.1337092,17.7779108 23.3525923,19.3143808 Z" id="Combined-Shape"></path>
                </g>
            </g>
        </g>
    </g>
</svg>