<?xml version="1.0" encoding="UTF-8"?>
<svg width="32px" height="51px" viewBox="0 0 32 51" version="1.1" xmlns="http://www.w3.org/2000/svg" xmlns:xlink="http://www.w3.org/1999/xlink">
    <!-- Generator: Sketch 42 (36781) - http://www.bohemiancoding.com/sketch -->
    <title>r</title>
    <desc>Created with Sketch.</desc>
    <defs></defs>
    <g id="Page-1" stroke="none" stroke-width="1" fill="none" fill-rule="evenodd">
        <path d="M34.8699495,40.7828283 C33.3074417,40.7828283 31.9475016,40.1751955 30.7900884,38.9599116 L15.7727273,23.9425505 L0.755366162,38.9599116 C-0.402047033,40.1751955 -1.76198714,40.7828283 -3.32449495,40.7828283 C-4.88700276,40.7828283 -6.24694287,40.1751955 -7.40435606,38.9599116 C-8.61963991,37.8024984 -9.22727273,36.4425583 -9.22727273,34.8800505 C-9.22727273,33.3175427 -8.61963991,31.9576026 -7.40435606,30.8001894 L10.3907828,13.0050505 C10.9694894,12.3684732 11.6783944,11.746373 12.5175189,11.1387311 C13.3566435,10.5310891 14.4417021,10.2272727 15.7727273,10.2272727 C17.1037524,10.2272727 18.2032785,10.5310891 19.0713384,11.1387311 C19.9393983,11.746373 20.6338358,12.3684732 21.1546717,13.0050505 L38.9498106,30.8001894 C40.1650945,31.9576026 40.7727273,33.3175427 40.7727273,34.8800505 C40.7727273,36.4425583 40.1650945,37.8024984 38.9498106,38.9599116 C37.7923974,40.1751955 36.4324573,40.7828283 34.8699495,40.7828283 Z" id="r" fill="#000000" transform="translate(15.772727, 25.505051) scale(-1, 1) rotate(-90.000000) translate(-15.772727, -25.505051) "></path>
    </g>
</svg>