<svg xmlns="http://www.w3.org/2000/svg" xmlns:xlink="http://www.w3.org/1999/xlink" viewBox="0 0 157.2 157.2"><style>.st0{fill:#66bb6a}.st1{fill:#546e7a}.st2{fill:url(#SVGID_1_)}.st3{fill:url(#SVGID_2_)}.st4{fill:url(#SVGID_3_)}.st5{fill:url(#SVGID_4_)}.st6{fill:url(#SVGID_5_)}.st7{fill:url(#SVGID_6_)}.st8{fill:url(#SVGID_7_)}.st9{fill:url(#SVGID_8_)}.st10{fill:url(#SVGID_9_)}.st11{fill:url(#SVGID_10_)}.st12{fill:url(#SVGID_11_)}.st13{fill:url(#SVGID_12_)}.st14{fill:url(#SVGID_13_)}.st15{fill:url(#SVGID_14_)}.st16{fill:#fff}.st17{fill:url(#SVGID_15_)}.st18,.st19{clip-path:url(#SVGID_17_);fill:#fff}.st19{clip-path:url(#SVGID_19_)}</style><g id="Layer_2"><circle class="st0" cx="78.6" cy="78.6" r="78.6"/><defs><circle id="SVGID_18_" cx="78.6" cy="78.6" r="78.6"/></defs><clipPath id="SVGID_1_"><use xlink:href="#SVGID_18_" overflow="visible"/></clipPath><path d="M89.8 84.2c.3.7 1 1.3 1 1.3 13.9 1.7 33.6-.2 48.6-2.2-8.6 18.5-24 30.8-38.1 30.8-26.5 0-46.9-32.1-46.9-32.1 8.2-7.2 21.7-30.8 41.2-30.8s28 10.7 28 10.7l2.2-3.5s-9.1-31.9-34.9-31.9-53.2 42.3-69.2 52c0 0 22 52.2 70.2 52.2 40.4 0 50.6-38.6 52.5-48.2 5.4-.8 9.9-1.6 12.8-2.1 1-2.2 2.1-6.1 1.3-11.3-16.1 6.2-40.5 13.2-69.1 13.2-.1 0 0 1 .4 1.9z" clip-path="url(#SVGID_1_)" fill="#fff"/></g></svg>