<?xml version="1.0" encoding="UTF-8"?>
<!-- Generator: Adobe Illustrator 19.1.0, SVG Export Plug-In . SVG Version: 6.00 Build 0)  -->
<svg version="1.1" id="Isolation_Mode" xmlns="http://www.w3.org/2000/svg" xmlns:xlink="http://www.w3.org/1999/xlink" x="0px" y="0px" viewBox="0 0 490.7 90" style="enable-background:new 0 0 490.7 90;" xml:space="preserve">
<style type="text/css">
	.st0{fill:#FFFFFF;}
	.st1{fill:#7A5BA7;}
	.st2{fill:#3599C1;}
</style>
<g id="Layer_1">
	<g>
		<g>
			<path class="st0" d="M22.7,33.5c6.1,0,11.2,2.2,15.3,6.7c3.7,4.1,5.5,8.8,5.5,14.4c0,5.6-1.9,10.4-5.8,14.6     c-3.9,4.2-8.9,6.2-14.9,6.2c-6.1,0-11.1-2.1-15-6.2c-3.9-4.2-5.8-9-5.8-14.6c0-5.5,1.8-10.3,5.5-14.4     C11.5,35.8,16.6,33.5,22.7,33.5z M22.7,38.5c-4.3,0-7.9,1.6-11,4.7c-3.1,3.1-4.6,7-4.6,11.4c0,2.9,0.7,5.6,2.1,8.1     c1.4,2.5,3.3,4.4,5.7,5.8c2.4,1.4,5,2,7.8,2c2.8,0,5.5-0.7,7.8-2c2.4-1.4,4.3-3.3,5.7-5.8c1.4-2.5,2.1-5.2,2.1-8.1     c0-4.5-1.5-8.3-4.6-11.4C30.6,40.1,26.9,38.5,22.7,38.5z"/>
			<path class="st0" d="M53,34.6h5.1v7.3c2-2.8,4.4-4.9,7-6.3c2.6-1.4,5.6-2.1,8.8-2.1c5.7,0,10.5,2,14.5,6.1c4,4.1,6,9,6,14.7     c0,5.9-2,10.8-6,14.9c-4,4.1-8.8,6.1-14.4,6.1c-3.2,0-6.1-0.7-8.7-2c-2.7-1.3-5.1-3.3-7.2-5.9V89H53V34.6z M73.5,38.5     c-4.4,0-8.2,1.5-11.2,4.6c-3,3.1-4.5,6.9-4.5,11.6c0,3,0.7,5.7,2,8.2c1.4,2.4,3.3,4.3,5.8,5.7c2.5,1.4,5.2,2.1,8,2.1     c2.8,0,5.3-0.7,7.8-2.1c2.4-1.4,4.4-3.4,5.8-6c1.4-2.6,2.2-5.2,2.2-8c0-2.8-0.7-5.5-2.1-8c-1.4-2.5-3.3-4.5-5.8-5.9     C79,39.2,76.4,38.5,73.5,38.5z"/>
			<path class="st0" d="M103.3,34.6h5.1v39.8h-5.1V34.6z"/>
			<path class="st0" d="M119.1,34.6h5.1v7.1c2-2.7,4.3-4.8,6.8-6.1c2.5-1.4,5.2-2,8.1-2c3,0,5.6,0.8,7.9,2.3c2.3,1.5,4,3.6,5.1,6.1     c1.1,2.6,1.6,6.6,1.6,12v20.5h-5.1v-19c0-4.6-0.2-7.7-0.6-9.2c-0.6-2.6-1.7-4.6-3.4-5.9c-1.7-1.3-3.9-2-6.6-2     c-3.1,0-5.9,1-8.3,3.1c-2.5,2-4.1,4.6-4.9,7.6c-0.5,2-0.7,5.6-0.7,10.8v14.6h-5.1V34.6z"/>
			<path class="st0" d="M164.1,34.6h5.1v39.8h-5.1V34.6z"/>
			<path class="st0" d="M198.7,33.5c6.1,0,11.2,2.2,15.3,6.7c3.7,4.1,5.5,8.8,5.5,14.4c0,5.6-1.9,10.4-5.8,14.6     c-3.9,4.2-8.9,6.2-14.9,6.2c-6.1,0-11.1-2.1-15-6.2c-3.9-4.2-5.8-9-5.8-14.6c0-5.5,1.8-10.3,5.5-14.4     C187.5,35.8,192.6,33.5,198.7,33.5z M198.7,38.5c-4.3,0-7.9,1.6-11,4.7c-3.1,3.1-4.6,7-4.6,11.4c0,2.9,0.7,5.6,2.1,8.1     c1.4,2.5,3.3,4.4,5.7,5.8c2.4,1.4,5,2,7.8,2c2.8,0,5.5-0.7,7.8-2c2.4-1.4,4.3-3.3,5.7-5.8c1.4-2.5,2.1-5.2,2.1-8.1     c0-4.5-1.5-8.3-4.6-11.4C206.6,40.1,202.9,38.5,198.7,38.5z"/>
			<path class="st0" d="M229,34.6h5.1v7.1c2-2.7,4.3-4.8,6.8-6.1c2.5-1.4,5.2-2,8.1-2c3,0,5.6,0.8,7.9,2.3c2.3,1.5,4,3.6,5.1,6.1     c1.1,2.6,1.6,6.6,1.6,12v20.5h-5.1v-19c0-4.6-0.2-7.7-0.6-9.2c-0.6-2.6-1.7-4.6-3.4-5.9c-1.7-1.3-3.9-2-6.6-2     c-3.1,0-5.9,1-8.3,3.1c-2.5,2-4.1,4.6-4.9,7.6c-0.5,2-0.7,5.6-0.7,10.8v14.6H229V34.6z"/>
			<path class="st0" d="M315.5,38.9l-3.3,3.4c-2.7-2.7-5.4-4-8-4c-1.7,0-3.1,0.5-4.3,1.6c-1.2,1.1-1.8,2.4-1.8,3.8     c0,1.3,0.5,2.5,1.5,3.7c1,1.2,3,2.6,6.2,4.2c3.8,2,6.4,3.9,7.8,5.7c1.3,1.9,2,3.9,2,6.3c0,3.3-1.1,6-3.4,8.3     c-2.3,2.3-5.2,3.4-8.6,3.4c-2.3,0-4.5-0.5-6.6-1.5c-2.1-1-3.8-2.4-5.2-4.1l3.2-3.7c2.6,3,5.4,4.4,8.3,4.4c2.1,0,3.8-0.7,5.2-2     c1.4-1.3,2.2-2.9,2.2-4.6c0-1.5-0.5-2.8-1.4-3.9c-1-1.1-3.1-2.5-6.5-4.2c-3.6-1.9-6-3.7-7.3-5.5c-1.3-1.8-1.9-3.9-1.9-6.2     c0-3,1-5.5,3.1-7.5c2.1-2,4.7-3,7.8-3C308.1,33.5,311.8,35.3,315.5,38.9z"/>
			<path class="st0" d="M329,19.8h5.1v14.8h8.1V39h-8.1v35.4H329V39h-7v-4.4h7V19.8z"/>
			<path class="st0" d="M387.6,34.6v39.8h-5.1v-6.8c-2.1,2.6-4.6,4.6-7.2,5.9c-2.7,1.3-5.6,2-8.8,2c-5.6,0-10.5-2-14.4-6.1     c-4-4.1-6-9.1-6-14.9c0-5.7,2-10.6,6-14.7c4-4.1,8.9-6.1,14.5-6.1c3.3,0,6.2,0.7,8.9,2.1c2.6,1.4,5,3.5,7,6.3v-7.3H387.6z      M367.1,38.5c-2.9,0-5.5,0.7-7.9,2.1c-2.4,1.4-4.3,3.4-5.8,5.9c-1.4,2.5-2.1,5.2-2.1,8c0,2.8,0.7,5.5,2.2,8     c1.4,2.6,3.4,4.6,5.8,6c2.4,1.4,5,2.1,7.8,2.1c2.8,0,5.5-0.7,8-2.1c2.5-1.4,4.4-3.3,5.8-5.7c1.4-2.4,2-5.1,2-8.2     c0-4.6-1.5-8.5-4.6-11.6C375.3,40,371.5,38.5,367.1,38.5z"/>
			<path class="st0" d="M433.5,34.6h5.1v31.7c0,5.6-0.5,9.7-1.5,12.3c-1.3,3.7-3.7,6.5-7,8.5c-3.3,2-7.3,3-12,3     c-3.4,0-6.5-0.5-9.2-1.5c-2.7-1-4.9-2.3-6.6-3.9c-1.7-1.6-3.3-4-4.7-7.1h5.6c1.5,2.6,3.5,4.6,5.9,5.9c2.4,1.3,5.4,1.9,8.9,1.9     c3.5,0,6.4-0.7,8.9-2c2.4-1.3,4.1-2.9,5.2-4.9c1-2,1.5-5.2,1.5-9.5v-2.1c-1.9,2.4-4.3,4.3-7.1,5.6c-2.8,1.3-5.7,2-8.9,2     c-3.7,0-7.1-0.9-10.3-2.7c-3.2-1.8-5.7-4.3-7.5-7.3c-1.8-3.1-2.6-6.5-2.6-10.1c0-3.7,0.9-7.1,2.8-10.3c1.8-3.2,4.4-5.7,7.6-7.6     c3.2-1.9,6.7-2.8,10.2-2.8c3,0,5.8,0.6,8.3,1.8c2.6,1.2,5.1,3.3,7.5,6.1V34.6z M418.3,38.5c-2.9,0-5.6,0.7-8.1,2.1     c-2.5,1.4-4.4,3.3-5.9,5.8c-1.4,2.5-2.1,5.2-2.1,8c0,4.4,1.5,8,4.4,10.8c2.9,2.9,6.7,4.3,11.4,4.3c4.7,0,8.5-1.4,11.4-4.2     c2.9-2.8,4.3-6.6,4.3-11.2c0-3-0.7-5.7-2-8c-1.3-2.4-3.2-4.2-5.6-5.6C423.7,39.2,421.1,38.5,418.3,38.5z"/>
			<path class="st0" d="M483.1,61.2l4.3,2.3c-1.4,2.8-3.1,5-4.9,6.7c-1.9,1.7-3.9,3-6.3,3.9c-2.3,0.9-4.9,1.3-7.9,1.3     c-6.5,0-11.6-2.1-15.2-6.4c-3.7-4.3-5.5-9.1-5.5-14.4c0-5.1,1.5-9.6,4.7-13.5c3.9-5,9.2-7.5,15.8-7.5c6.8,0,12.2,2.6,16.3,7.7     c2.9,3.6,4.3,8.2,4.4,13.6h-35.8c0.1,4.6,1.6,8.4,4.4,11.4c2.9,3,6.4,4.4,10.6,4.4c2,0,4-0.4,5.9-1.1c1.9-0.7,3.5-1.6,4.9-2.8     C480.1,65.7,481.5,63.8,483.1,61.2z M483.1,50.4c-0.7-2.7-1.7-4.9-3-6.6c-1.3-1.6-3-3-5.2-4c-2.2-1-4.4-1.5-6.8-1.5     c-3.9,0-7.3,1.3-10.1,3.8c-2.1,1.8-3.6,4.6-4.7,8.2H483.1z"/>
		</g>
		<path class="st1" d="M108.4,6.4c-5.4-0.8-10.5,2.9-11.3,8.4c-0.3,2.1,0.1,4.1,0.9,5.9c0.5,0.9,0.9,2.1,0.9,3.4    c0,1.9-0.6,3.5-1.5,4.3l5.8-2.9c0.7,0.3,1.5,0.5,2.3,0.6c5.4,0.8,10.5-2.9,11.3-8.4C117.6,12.2,113.9,7.2,108.4,6.4z"/>
		<path class="st2" d="M162,0.2c7-1,13.4,3.8,14.5,10.7c0.4,2.7-0.1,5.2-1.2,7.5c-0.7,1.1-1.1,2.6-1.1,4.3c0,2.4,0.8,4.4,2,5.5    l-7.4-3.7c-0.9,0.4-1.9,0.7-2.9,0.8c-7,1-13.4-3.8-14.5-10.7C150.3,7.7,155.1,1.2,162,0.2z"/>
	</g>
</g>
</svg>