<?xml version="1.0" encoding="UTF-8"?>
<svg width="50px" height="50px" viewBox="0 0 50 50" version="1.1" xmlns="http://www.w3.org/2000/svg" xmlns:xlink="http://www.w3.org/1999/xlink">
    <!-- Generator: Sketch 41 (35326) - http://www.bohemiancoding.com/sketch -->
    <title>Combined Shape</title>
    <desc>Created with Sketch.</desc>
    <defs></defs>
    <g id="Sprite" stroke="none" stroke-width="1" fill="none" fill-rule="evenodd">
        <g id="Font" transform="translate(-81.000000, -199.000000)" fill="#000000">
            <path d="M112.25,230.25 L130.001231,230.25 C130.552474,230.25 131,229.80148 131,229.248203 L131,218.751797 C131,218.194882 130.552836,217.75 130.001231,217.75 L112.25,217.75 L112.25,199.998769 C112.25,199.447526 111.80148,199 111.248203,199 L100.751797,199 C100.194882,199 99.75,199.447164 99.75,199.998769 L99.75,217.75 L81.998769,217.75 C81.4475257,217.75 81,218.19852 81,218.751797 L81,229.248203 C81,229.805118 81.4471641,230.25 81.998769,230.25 L99.75,230.25 L99.75,248.001231 C99.75,248.552474 100.19852,249 100.751797,249 L111.248203,249 C111.805118,249 112.25,248.552836 112.25,248.001231 L112.25,230.25 Z" id="Combined-Shape"></path>
        </g>
    </g>
</svg>