<?xml version="1.0" encoding="UTF-8"?>
<svg width="50px" height="50px" viewBox="0 0 50 50" version="1.1" xmlns="http://www.w3.org/2000/svg" xmlns:xlink="http://www.w3.org/1999/xlink">
    <!-- Generator: Sketch 41.2 (35397) - http://www.bohemiancoding.com/sketch -->
    <title>1481532252_pen-15</title>
    <desc>Created with Sketch.</desc>
    <defs></defs>
    <g id="Page-1" stroke="none" stroke-width="1" fill="none" fill-rule="evenodd">
        <g id="1481532252_pen-15" fill="#000000">
            <path d="M48.0815175,15.1279183 L45.880642,17.3303502 L32.6722763,4.12354086 L34.8731518,1.92110895 C37.3050584,-0.510797665 41.2477626,-0.510797665 43.6796693,1.92110895 L48.0814202,6.32441634 C50.5103113,8.75486381 50.5103113,12.6960117 48.0815175,15.1279183 Z M17.2631323,41.5399805 C16.6551556,42.1479572 16.6551556,43.1328794 17.2631323,43.740856 C17.8711089,44.3518482 18.8560311,44.3518482 19.4640078,43.740856 L43.6797665,19.5312257 L41.4758755,17.3287938 L17.2631323,41.5399805 Z M6.2557393,30.5356031 C5.64776265,31.1435798 5.64776265,32.1285019 6.2557393,32.7364786 C6.86371595,33.3444553 7.84863813,33.3444553 8.45661479,32.7364786 L32.6722763,8.52529183 L30.4714008,6.32441634 L6.2557393,30.5356031 Z M34.8701362,10.7247082 L10.6574903,34.9373541 C9.44153696,36.1502918 9.44455253,38.1231518 10.6574903,39.3391051 C11.8734436,40.5550584 13.8432879,40.5611868 15.0622568,39.3360895 L39.2749027,15.1280156 L34.8701362,10.7247082 Z M15.0562257,45.9357004 C14.3114786,45.1909533 13.9527237,44.2455253 13.8189689,43.2727626 C13.502821,43.3214008 13.1836576,43.3670233 12.8583658,43.3670233 C11.1955253,43.3670233 9.63307393,42.7164397 8.45661479,41.5400778 C7.28015564,40.3606031 6.63268482,38.8011673 6.63268482,37.1383268 C6.63268482,36.8343385 6.67830739,36.5394942 6.72081712,36.2445525 C5.71459144,36.1077821 4.7844358,35.6669261 4.05486381,34.9373541 C3.98492218,34.8674125 3.96060311,34.7731518 3.89678988,34.697179 L0.0968871595,49.9027237 L15.2628405,46.1059339 C15.1960117,46.0451362 15.1200389,45.9995136 15.0562257,45.9357004 Z" id="Shape"></path>
        </g>
    </g>
</svg>