<?xml version="1.0" encoding="UTF-8"?>
<svg width="50px" height="32px" viewBox="0 0 50 32" version="1.1" xmlns="http://www.w3.org/2000/svg" xmlns:xlink="http://www.w3.org/1999/xlink">
    <!-- Generator: Sketch 42 (36781) - http://www.bohemiancoding.com/sketch -->
    <title>Combined Shape</title>
    <desc>Created with Sketch.</desc>
    <defs></defs>
    <g id="Page-1" stroke="none" stroke-width="1" fill="none" fill-rule="evenodd">
        <path d="M0.0421953184,15.0859446 C0.17893423,6.90485005 7.70011486,-0.259620372 15.8812094,0.0133169817 C19.8012383,-0.168821411 23.4861628,1.53690193 26.4884737,3.93280548 C25.2070193,5.38883168 23.8801655,6.79135135 22.4625126,8.10307206 C18.8532539,5.60880297 13.7204103,4.89592303 10.1111516,7.77716864 C4.94804158,11.348054 4.71293712,19.7793861 9.67931602,23.6232088 C14.508956,28.0058801 23.6374944,25.8299478 24.9719149,19.1194722 C21.9469043,19.0740727 18.9137866,19.1194722 15.8887759,19.0211067 C15.8812094,17.2164773 15.8736428,15.411848 15.8812094,13.6077591 C20.9383872,13.5926259 25.9955651,13.5845189 31.0603095,13.6228922 C31.3635132,17.8688246 30.8025053,22.3876944 28.1941971,25.8980471 C24.2439018,31.4557001 16.3135854,33.0781911 10.1262847,30.6974207 C3.9168248,28.3317835 -0.480979649,21.77318 0.0421953184,15.0859446 Z M40.9244276,9.05051598 L45.4357308,9.05051598 C45.4432974,10.5595082 45.4508639,12.0760671 45.4659971,13.5845189 C46.9749894,13.6001925 48.4915482,13.6001925 50,13.6153257 L50,18.1266288 C48.4915482,18.141762 46.9825559,18.1493286 45.4659971,18.1644617 C45.4508639,19.6804801 45.4432974,21.1894723 45.4357308,22.6984646 L40.9168611,22.6984646 C40.9017279,21.1894723 40.9017279,19.6804801 40.8865947,18.1720283 C39.3776025,18.1568951 37.8615841,18.141762 36.3525918,18.1266288 L36.3525918,13.6153257 C37.8615841,13.6001925 39.3700359,13.5926259 40.8865947,13.5845189 C40.8941613,12.0685005 40.9092945,10.5595082 40.9244276,9.05051598 Z" id="Combined-Shape" fill="#000000"></path>
    </g>
</svg>