<?xml version="1.0" encoding="UTF-8"?>
<svg width="50px" height="78px" viewBox="0 0 50 78" version="1.1" xmlns="http://www.w3.org/2000/svg" xmlns:xlink="http://www.w3.org/1999/xlink">
    <!-- Generator: Sketch 41 (35326) - http://www.bohemiancoding.com/sketch -->
    <title>Combined Shape</title>
    <desc>Created with Sketch.</desc>
    <defs></defs>
    <g id="Sprite" stroke="none" stroke-width="1" fill="none" fill-rule="evenodd">
        <g id="Font" transform="translate(-81.000000, -337.000000)" fill="#000000">
            <path d="M130.21689,386.033534 C130.348196,386.626277 130.46681,387.243034 130.569699,387.883682 C130.838528,389.55758 131,391.394585 131,393.392532 C131,405.315566 120.665245,415.017698 111.183341,415.017698 C101.701437,415.017698 92.6404439,411.047189 88.5643087,403.0985 C84.4881734,395.149811 76.335903,379.252434 84.4881734,379.252434 C92.6404438,379.252434 94.9935076,395.500561 104.078758,395.500561 C113.164008,395.500561 113.836852,392.464434 114.043612,387.812155 C114.250372,383.159877 113.021119,377.722767 104.868851,377.722767 C96.7165822,377.722767 91.4716237,382.087146 88.5643086,379.252434 C84.4881733,375.278089 88.5643087,371.303745 88.5643087,371.303745 C88.5643087,371.303745 92.5118819,367.454752 104.291849,367.332382 L99.2577217,360.816252 C99.2577217,360.816252 89.6753125,351.891004 92.5013149,346.996225 C94.1522188,344.136776 98.4516251,346.803164 104.031134,351.63952 C102.285221,348.44509 98.6925785,340.877819 101.866489,337.703909 C105.942624,333.627774 113.390053,347.551856 121.890249,361.081335 C127.047438,369.28986 129.267967,379.372476 130.21689,386.033534 Z" id="Combined-Shape"></path>
        </g>
    </g>
</svg>