<?xml version="1.0" encoding="UTF-8"?>
<svg width="50px" height="50px" viewBox="0 0 50 50" version="1.1" xmlns="http://www.w3.org/2000/svg" xmlns:xlink="http://www.w3.org/1999/xlink">
    <!-- Generator: Sketch 41 (35326) - http://www.bohemiancoding.com/sketch -->
    <title>Image Copy</title>
    <desc>Created with Sketch.</desc>
    <defs></defs>
    <g id="Sprite" stroke="none" stroke-width="1" fill="none" fill-rule="evenodd">
        <g id="Font" transform="translate(-81.000000, -60.000000)" fill="#000000">
            <path d="M106,81.875 L118.5,97.5 L93.5,97.5 L106,81.875 Z M96.625,78.75 C98.3508898,78.75 99.75,77.3508898 99.75,75.625 C99.75,73.8991102 98.3508898,72.5 96.625,72.5 C94.8991102,72.5 93.5,73.8991102 93.5,75.625 C93.5,77.3508898 94.8991102,78.75 96.625,78.75 Z M87.2685433,66.25 L87.2685433,66.25 L87.2685433,103.75 C87.2685433,103.737041 87.2629626,103.731457 87.25,103.731457 L124.75,103.731457 C124.737041,103.731457 124.731457,103.737037 124.731457,103.75 L124.731457,66.25 C124.731457,66.2629593 124.737037,66.2685433 124.75,66.2685433 L87.25,66.2685433 C87.2629593,66.2685433 87.2685433,66.2629626 87.2685433,66.25 L87.2685433,66.25 Z M87.2314384,60 L124.768562,60 C128.21009,60 131,62.7953555 131,66.2314384 L131,103.768562 C131,107.21009 128.204645,110 124.768562,110 L87.2314384,110 C83.78991,110 81,107.204645 81,103.768562 L81,66.2314384 C81,62.78991 83.7953555,60 87.2314384,60 Z" id="Image-Copy"></path>
        </g>
    </g>
</svg>