<?xml version="1.0" encoding="UTF-8"?>
<svg width="50px" height="30px" viewBox="0 0 50 30" version="1.1" xmlns="http://www.w3.org/2000/svg" xmlns:xlink="http://www.w3.org/1999/xlink">
    <!-- Generator: Sketch 42 (36781) - http://www.bohemiancoding.com/sketch -->
    <title>Shape</title>
    <desc>Created with Sketch.</desc>
    <defs></defs>
    <g id="Page-1" stroke="none" stroke-width="1" fill="none" fill-rule="evenodd">
        <g id="VK" fill-rule="nonzero" fill="#000000">
            <g id="Capa_1">
                <path d="M49.7348266,27.1172367 C49.6742823,26.9824311 49.6178412,26.8706113 49.5654121,26.7810235 C48.697915,25.1668421 47.0401513,23.1855486 44.5931239,20.8365779 L44.5155287,20.7564105 C43.3525137,19.6355741 42.6492338,18.9001254 42.3547189,18.523593 C41.8158385,17.8063255 41.6951147,17.0802972 41.9896297,16.34466 C42.197705,15.7888578 42.9793094,14.615079 44.3326194,12.821722 C45.0444704,11.8713003 45.6082431,11.1095687 46.0245761,10.5356794 C49.0272612,6.41143885 50.3290538,3.77599448 49.9296806,2.62831008 L49.7745815,2.36011198 C49.6703615,2.19864674 49.4013772,2.05093525 48.9679934,1.91622387 C48.5336066,1.78179511 47.9784049,1.75956302 47.3013851,1.84915079 L39.8041097,1.90265853 C39.6826565,1.85819435 39.50923,1.86233932 39.2832832,1.91622387 C39.05761,1.97010842 38.9447278,1.9971449 38.9447278,1.9971449 L38.8142476,2.06450059 L38.7106659,2.14542162 C38.6238615,2.19892935 38.5283948,2.29303891 38.4241748,2.42756187 C38.3205019,2.56161382 38.2337887,2.7189341 38.164491,2.89820385 C37.3482378,5.06781063 36.4201964,7.08499572 35.3786346,8.94966493 C34.7364461,10.0615519 34.1466867,11.0251622 33.6080799,11.8410609 C33.0702025,12.6566771 32.6189472,13.2576028 32.2547699,13.642802 C31.8900454,14.028378 31.5608816,14.3372721 31.2652725,14.5706148 C30.9701192,14.8040517 30.7448107,14.9026831 30.5887999,14.866603 C30.4324243,14.830523 30.2851668,14.7947256 30.1457508,14.7589281 C29.9029356,14.5974629 29.7076256,14.3778739 29.5603681,14.0999729 C29.4124724,13.8220718 29.3129026,13.4722932 29.2608382,13.0509198 C29.2090473,12.6292638 29.1784105,12.2665793 29.1696571,11.9616417 C29.161542,11.657081 29.1652804,11.2262872 29.1828783,10.670485 C29.2009322,10.1144002 29.2090473,9.7381504 29.2090473,9.54088773 C29.2090473,8.85941773 29.2219039,8.11982402 29.2477081,7.32191818 C29.2739683,6.52401234 29.2952135,5.89181091 29.3129938,5.42606753 C29.3306829,4.95985312 29.3388892,4.46660224 29.3388892,3.94659749 C29.3388892,3.42659274 29.3082524,3.01878467 29.2477081,2.72279646 C29.1878933,2.42718506 29.0960739,2.14024041 28.9750766,1.86205671 C28.8533498,1.58415562 28.6751819,1.36918264 28.4413936,1.21657255 C28.2071493,1.06415087 27.9159169,0.943193242 27.5693375,0.853322855 C26.6494113,0.638255673 25.4780076,0.521914031 24.0545793,0.503826909 C20.8266769,0.468029481 18.7525802,0.683379274 17.8327452,1.14959368 C17.4682943,1.34657374 17.1384922,1.61571388 16.8436125,1.95616626 C16.5311349,2.35078581 16.4875503,2.5661356 16.7131324,2.60155622 C17.754603,2.76273885 18.4918934,3.14831484 18.9258243,3.75790736 L19.0821999,4.08093205 C19.2038355,4.31399215 19.3252888,4.72660462 19.4468332,5.31820422 C19.5681952,5.90980383 19.6465198,6.56423734 19.6809863,7.28112795 C19.7676083,8.59027759 19.7676083,9.71092551 19.6809863,10.6431659 C19.5940907,11.5757831 19.5120277,12.3018115 19.4337031,12.8218162 C19.3553785,13.341821 19.238302,13.7631944 19.0821999,14.0858423 C18.9258243,14.4085844 18.8217867,14.605847 18.7696311,14.6774419 C18.7175667,14.7490368 18.6741645,14.7941604 18.639698,14.8118707 C18.4141159,14.9011758 18.179507,14.9466762 17.9366917,14.9466762 C17.6935117,14.9466762 17.3986319,14.8210084 17.0515966,14.5698612 C16.7046525,14.318714 16.3445783,13.9737398 15.9713741,13.5343735 C15.5981698,13.0949129 15.1772778,12.4807986 14.7085157,11.6919364 C14.2401184,10.9030741 13.7541231,9.97073948 13.2508033,8.89493255 L12.8343792,8.11473702 C12.5740572,7.61281939 12.2184508,6.88198662 11.7671955,5.92289815 C11.3156667,4.96343287 10.916567,4.03533743 10.5696229,3.13880026 C10.4309364,2.76226783 10.2225876,2.47560579 9.94494109,2.27834312 L9.81464329,2.19742209 C9.72802123,2.12582723 9.58897004,2.0498048 9.39821917,1.96878957 C9.20719475,1.88786854 9.00787284,1.82983902 8.79943283,1.7941358 L1.66642593,1.84764353 C0.937524153,1.84764353 0.442957823,2.01824654 0.182544578,2.35898154 L0.0783245718,2.52016417 C0.0262601591,2.60994035 0,2.75331847 0,2.95067535 C0,3.14793802 0.0520644127,3.39004168 0.156284419,3.67670372 C1.19757267,6.20513261 2.32995085,8.64359692 3.55341896,10.9924734 C4.77688707,13.34135 5.84005879,15.2334325 6.74229585,16.6670253 C7.64471528,18.1016543 8.5645503,19.455645 9.50180091,20.7283378 C10.4390515,22.0015016 11.0594478,22.8174003 11.3629897,23.1758456 C11.6668963,23.5349503 11.9056085,23.8034311 12.0791261,23.9827008 L12.730068,24.6280908 C13.1465833,25.0585077 13.7582262,25.5739907 14.5652702,26.1745397 C15.3724965,26.7754655 16.2661626,27.3670651 17.2467242,27.9502805 C18.2274682,28.532554 19.3684174,29.0077177 20.6702101,29.3752066 C21.9718204,29.7430723 23.2386907,29.8906896 24.4710034,29.8194715 L27.4648439,29.8194715 C28.0720189,29.7653044 28.5320276,29.5680417 28.8446876,29.2275893 L28.9482694,29.0927837 C29.0179317,28.9857683 29.0831262,28.8194986 29.1433057,28.5957647 C29.2042147,28.3716539 29.2344869,28.1247459 29.2344869,27.856171 C29.2167065,27.0853016 29.2735124,26.3905489 29.4033543,25.772007 C29.533105,25.1536535 29.6810007,24.6874391 29.8464033,24.373458 C30.0117146,24.0597595 30.1982712,23.7950469 30.4058905,23.5804508 C30.6139658,23.3653836 30.7622263,23.2350998 30.8492131,23.1902588 C30.9356528,23.1451352 31.0046769,23.114519 31.0567413,23.0961492 C31.4732566,22.9527711 31.9634462,23.0916275 32.5280397,23.5133777 C33.0921772,23.9347511 33.6213011,24.4550385 34.1162322,25.0733919 C34.6108897,25.6923106 35.2052082,26.3866865 35.8992788,27.1575559 C36.5938053,27.9287079 37.2010714,28.5019377 37.7215332,28.8790354 L38.241995,29.2017775 C38.5895774,29.4171273 39.0408327,29.6143899 39.596308,29.7936597 C40.1507803,29.9728352 40.6365932,30.0176762 41.0537468,29.9280885 L47.7179004,29.8206962 C48.3770487,29.8206962 48.8899424,29.7079343 49.253755,29.4842003 C49.6182971,29.2600896 49.8348522,29.0131815 49.904697,28.7446066 C49.9743593,28.4757491 49.9780977,28.1707173 49.9179182,27.8296997 C49.8561886,27.4895299 49.7953708,27.2516655 49.7348266,27.1172367 Z" id="Shape"></path>
            </g>
        </g>
    </g>
</svg>