<?xml version="1.0" encoding="UTF-8"?>
<svg width="48px" height="50px" viewBox="0 0 48 50" version="1.1" xmlns="http://www.w3.org/2000/svg" xmlns:xlink="http://www.w3.org/1999/xlink">
    <!-- Generator: Sketch 42 (36781) - http://www.bohemiancoding.com/sketch -->
    <title>Shape</title>
    <desc>Created with Sketch.</desc>
    <defs></defs>
    <g id="Page-1" stroke="none" stroke-width="1" fill="none" fill-rule="evenodd">
        <path d="M9.90834028,49.9999991 L0.296535911,49.9999991 L0.296535911,16.9330104 L9.90834028,16.9330104 L9.90834028,49.9999991 Z M9.90834028,5.21221682 C9.90834028,8.10709936 7.9963145,10.4253263 4.92515252,10.4253263 L4.86790154,10.4253263 C1.91202577,10.4253263 0,8.10709936 0,5.21221682 C0,2.25306307 1.96927675,0 4.98318775,0 C7.9963145,0 9.8510893,2.25306307 9.90834028,5.21221682 Z M25.5894605,50 L15.9285844,49.9999998 C15.9285844,49.9999998 16.0675382,19.8990815 15.9285844,16.7334632 L25.5885215,16.7334632 L25.5190447,21.1560348 C26.9057661,18.8539483 29.403179,15.4716981 35.0927741,15.4716981 C42.0320144,15.4716981 47.2343321,20.2935011 47.2343321,30.6558851 L47.2343321,50 L37.5576576,49.9999998 L37.5576576,31.1600277 C37.5576576,26.6257361 35.1641287,24.3226515 31.3475935,24.3226515 C28.434258,24.3226515 26.6992131,26.4091045 25.936845,28.4246781 C25.6579984,29.1434561 25.5894605,30.151742 25.5894605,31.1600281 L25.5894605,50 Z" id="Shape" fill="#000000"></path>
    </g>
</svg>