<?xml version="1.0" encoding="UTF-8"?>
<svg width="45px" height="50px" viewBox="0 0 45 50" version="1.1" xmlns="http://www.w3.org/2000/svg" xmlns:xlink="http://www.w3.org/1999/xlink">
    <!-- Generator: Sketch 41 (35326) - http://www.bohemiancoding.com/sketch -->
    <title>Combined Shape</title>
    <desc>Created with Sketch.</desc>
    <defs></defs>
    <g id="Sprite" stroke="none" stroke-width="1" fill="none" fill-rule="evenodd">
        <g id="Font" transform="translate(0.000000, -60.000000)" fill="#000000">
            <path d="M7.4510913,87.6467261 C7.4510913,87.6467261 11.1766369,89.0438057 20.4905011,89.0438057 C29.8043652,89.0438057 33.5299108,87.6467261 33.5299108,87.6467261 L33.5299108,105.272947 C33.5299108,105.826064 33.210026,106.579331 32.7788032,106.923395 C32.7788032,106.923395 30.2700584,110 20.4905011,110 C10.7109437,110 8.19075115,106.914898 8.19075115,106.914898 C7.78224829,106.561191 7.4510913,105.832364 7.4510913,105.272947 L7.4510913,87.6467261 Z M23.9036351,100.373724 L25.1474331,96.6423302 L26.3912312,100.373724 L30.1226253,101.617522 L26.3912312,102.86132 L25.1474331,106.592714 L23.9036351,102.86132 L20.172241,101.617522 L23.9036351,100.373724 Z M20.4905011,86.7153397 C31.8070923,86.7153397 40.9810021,84.2133643 40.9810021,81.1270212 C40.9810021,78.0406782 31.8070923,75.5387028 20.4905011,75.5387028 C9.17390981,75.5387028 0,78.0406782 0,81.1270212 C0,84.2133643 9.17390981,86.7153397 20.4905011,86.7153397 Z M20.4905011,83.9211805 C29.7495303,83.9211805 37.2554565,82.4616948 37.2554565,80.661328 C37.2554565,78.8609612 29.7495303,77.4014756 20.4905011,77.4014756 C11.2314719,77.4014756 3.72554565,78.8609612 3.72554565,80.661328 C3.72554565,82.4616948 11.2314719,83.9211805 20.4905011,83.9211805 Z M5.39233015,68.8230095 L6.51970488,65.4408853 L7.64707962,68.8230095 L11.0292038,69.9503843 L7.64707962,71.077759 L6.51970488,74.4598832 L5.39233015,71.077759 L2.01020595,69.9503843 L5.39233015,68.8230095 Z M23.5175069,71.1146173 L24.2160467,69.0189979 L24.9145865,71.1146173 L27.010206,71.8131571 L24.9145865,72.5116969 L24.2160467,74.6073163 L23.5175069,72.5116969 L21.4218875,71.8131571 L23.5175069,71.1146173 Z M17.2306486,79.7299416 L17.6963418,78.332862 L18.162035,79.7299416 L19.5591147,80.1956348 L18.162035,80.661328 L17.6963418,82.0584076 L17.2306486,80.661328 L15.833569,80.1956348 L17.2306486,79.7299416 Z M32.1328312,73.2102367 L32.5985244,71.8131571 L33.0642176,73.2102367 L34.4612972,73.6759299 L33.0642176,74.1416231 L32.5985244,75.5387028 L32.1328312,74.1416231 L30.7357516,73.6759299 L32.1328312,73.2102367 Z M15.2256497,66.7150806 C15.0470038,65.701929 15.717846,64.736784 16.7382547,64.5568584 L42.4176804,60.0288828 C43.431715,59.8500811 44.3973282,60.5193918 44.5772196,61.5396069 C44.7558656,62.5527584 44.0850234,63.5179034 43.0646146,63.697829 L17.385189,68.2258046 C16.3711543,68.4046063 15.4055411,67.7352956 15.2256497,66.7150806 Z M16.1428863,66.553347 C16.0535633,66.0467713 16.3827935,65.5652903 16.9010762,65.4739031 L21.4818852,64.6661829 C21.9899449,64.5765983 22.4735965,64.9111046 22.5635422,65.4212121 C22.6528652,65.9277879 22.3236349,66.4092688 21.8053523,66.500656 L17.2245433,67.3083762 C16.7164836,67.3979609 16.232832,67.0634545 16.1428863,66.553347 Z" id="Combined-Shape"></path>
        </g>
    </g>
</svg>