<svg xmlns="http://www.w3.org/2000/svg" width="50" height="40" viewBox="0 0 50 40">
  <path fill="#333" fill-rule="evenodd" d="M10.048726,272.375563 L35,294 L59.9513226,272.37552 C59.983365,272.579415 60,272.788436 60,273.001362 L60,304.284352 C60,306.494243 58.2057317,308.285714 55.9928103,308.285714 L14.0071897,308.285714 C11.7940799,308.285714 10,306.495604 10,304.284352 L10,273.001362 C10,272.78847 10.016652,272.579461 10.048726,272.375563 Z M12.4492979,269.313684 C12.9282197,269.111686 13.4546547,269 14.0071897,269 L55.9928103,269 C56.5454293,269 57.0719213,269.111616 57.5508777,269.313533 L35,288.642857 L12.4492979,269.313684 Z" transform="translate(-10 -269)"/>
</svg>
