<svg xmlns="http://www.w3.org/2000/svg" width="42" height="50" viewBox="0 0 42 50">
  <path fill-rule="evenodd" d="M6.13575686,25.5059437 C9.58274243,29.7081598 14.8157709,32.3891946 20.6749885,32.3891946 C26.5342062,32.3891946 31.7672346,29.7081598 35.2142202,25.5059437 C39.0027552,28.3184214 41.349977,33.0305315 41.349977,40.6022779 C41.349977,48.1204556 31.0124828,50 20.6749885,50 C10.3374943,50 6.75188227e-16,48.1204556 0,40.6022779 C0,33.0305315 2.3472218,28.3184214 6.13575686,25.5059437 Z M20.6749885,26.3136217 C13.4086825,26.3136217 7.51817764,20.4231169 7.51817764,13.1568109 C7.51817764,5.89050487 13.4086825,0 20.6749885,0 C27.9412945,0 33.8317994,5.89050487 33.8317994,13.1568109 C33.8317994,20.4231169 27.9412945,26.3136217 20.6749885,26.3136217 Z"/>
</svg>
