<svg xmlns="http://www.w3.org/2000/svg" width="50" height="50" viewBox="0 0 50 50">
  <path fill-rule="evenodd" d="M11.5384615,30.7692308 L11.5384615,19.2307692 L3.84039357,19.2307692 C1.71940277,19.2307692 0,17.5044652 0,15.3846154 C0,13.2604433 1.72111318,11.5384615 3.84039357,11.5384615 L11.5384615,11.5384615 L11.5384615,3.84039357 C11.5384615,1.71940277 13.2647655,0 15.3846154,0 C17.5087875,0 19.2307692,1.72111318 19.2307692,3.84039357 L19.2307692,11.5384615 L30.7692308,11.5384615 L30.7692308,3.84039357 C30.7692308,1.71940277 32.4955348,0 34.6153846,0 C36.7395567,0 38.4615385,1.72111318 38.4615385,3.84039357 L38.4615385,11.5384615 L46.1596064,11.5384615 C48.2805972,11.5384615 50,13.2647655 50,15.3846154 C50,17.5087875 48.2788868,19.2307692 46.1596064,19.2307692 L38.4615385,19.2307692 L38.4615385,30.7692308 L46.1596064,30.7692308 C48.2805972,30.7692308 50,32.4955348 50,34.6153846 C50,36.7395567 48.2788868,38.4615385 46.1596064,38.4615385 L38.4615385,38.4615385 L38.4615385,46.1596064 C38.4615385,48.2805972 36.7352345,50 34.6153846,50 C32.4912125,50 30.7692308,48.2788868 30.7692308,46.1596064 L30.7692308,38.4615385 L19.2307692,38.4615385 L19.2307692,46.1596064 C19.2307692,48.2805972 17.5044652,50 15.3846154,50 C13.2604433,50 11.5384615,48.2788868 11.5384615,46.1596064 L11.5384615,38.4615385 L3.84039357,38.4615385 C1.71940277,38.4615385 0,36.7352345 0,34.6153846 C0,32.4912125 1.72111318,30.7692308 3.84039357,30.7692308 L11.5384615,30.7692308 Z M19.2307692,30.7692308 L30.7692308,30.7692308 L30.7692308,19.2307692 L19.2307692,19.2307692 L19.2307692,30.7692308 Z"/>
</svg>
