<?xml version="1.0" encoding="UTF-8"?>
<svg width="50px" height="40px" viewBox="0 0 50 40" version="1.1" xmlns="http://www.w3.org/2000/svg" xmlns:xlink="http://www.w3.org/1999/xlink">
    <!-- Generator: Sketch 41 (35326) - http://www.bohemiancoding.com/sketch -->
    <title>Combined Shape</title>
    <desc>Created with Sketch.</desc>
    <defs></defs>
    <g id="Sprite" stroke="none" stroke-width="1" fill="none" fill-rule="evenodd">
        <g id="Font" fill="#000000">
            <path d="M41,9 L41,5.99539757 C41,5.4556644 40.5522847,5 40,5 C39.4438648,5 39,5.44565467 39,5.99539757 L39,9 L35.9953976,9 C35.4556644,9 35,9.44771525 35,10 C35,10.5561352 35.4456547,11 35.9953976,11 L39,11 L39,14.0046024 C39,14.5443356 39.4477153,15 40,15 C40.5561352,15 41,14.5543453 41,14.0046024 L41,11 L44.0046024,11 C44.5443356,11 45,10.5522847 45,10 C45,9.44386482 44.5543453,9 44.0046024,9 L41,9 Z M28,10 L2.61591696,10 L2.56747405,10.1461187 C1.16262976,10.194825 0,11.3637747 0,12.7762557 L0,36.5449011 C0,38.0060883 1.25951557,39.2237443 2.66435986,39.2237443 L39.3356401,39.2237443 C40.7404844,39.2237443 42,38.0060883 42,36.5449011 L42,21.8340831 C41.3495831,21.9432024 40.6814244,22 40,22 C39.5793694,22 39.1637936,21.9783581 38.7543253,21.9361269 L38.7543253,32.7458143 L28.1453287,24.6118721 L33.8000756,20.2763646 C33.0224428,19.8061964 32.3024798,19.2502534 31.6532986,18.6216479 C28.0870925,21.3221888 24.5314355,24.029753 20.9757785,26.7549467 C15.0657439,22.2252664 9.15570934,17.7442922 3.24567474,13.2633181 L28.4490502,13.2633181 C28.1565078,12.2257487 28,11.1311515 28,10 Z M38.7543253,35.9604262 L25.9653979,26.2678843 L22.5743945,28.8980213 L19.3287197,28.8980213 L15.9861592,26.3165906 L3.24567474,35.9604262 L38.7543253,35.9604262 Z M13.8062284,24.6118721 L3.24567474,16.47793 L3.24567474,32.7458143 L13.8062284,24.6118721 Z M40,20 C45.5228475,20 50,15.5228475 50,10 C50,4.4771525 45.5228475,0 40,0 C34.4771525,0 30,4.4771525 30,10 C30,15.5228475 34.4771525,20 40,20 Z" id="Combined-Shape"></path>
        </g>
    </g>
</svg>