<svg xmlns="http://www.w3.org/2000/svg" width="50" height="50" viewBox="0 0 50 50">
  <path fill-rule="evenodd" d="M35.5316725,49.482586 C35.5316725,49.482586 25.0277434,45.350105 14.8336321,35.1583001 C4.63952076,24.9664951 0.50070576,14.4541073 0.50070576,14.4541073 C-0.50474087,12.2928882 0.0519579873,9.16940999 1.74145781,7.4802924 L8.49919723,0.724081862 C9.62494916,-0.401415383 11.1659681,-0.192903023 11.9451467,1.19691933 L17.7711881,11.5888411 C18.5485815,12.9754793 18.2651141,15.0130342 17.1358221,16.1420707 L14.9440092,18.3333877 C14.9440092,18.3333877 18.1668424,23.6723999 22.2444869,27.7491219 C26.3221314,31.8258439 31.4584695,34.8441118 31.4584695,34.8441118 L33.6502824,32.6527948 C34.7785788,31.5247537 36.8166497,31.2462706 38.2029879,32.0310948 L48.8042524,38.0326097 C50.1903458,38.8172954 50.4032574,40.3639419 49.2756424,41.4913018 L42.517903,48.2475123 C40.827208,49.9378248 37.6903439,50.5218257 35.5316725,49.482586 Z"/>
</svg>
