<?xml version="1.0" encoding="UTF-8"?>
<svg width="39px" height="50px" viewBox="0 0 39 50" version="1.1" xmlns="http://www.w3.org/2000/svg" xmlns:xlink="http://www.w3.org/1999/xlink">
    <!-- Generator: Sketch 42 (36781) - http://www.bohemiancoding.com/sketch -->
    <title>Core_Icons</title>
    <desc>Created with Sketch.</desc>
    <defs></defs>
    <g id="Page-1" stroke="none" stroke-width="1" fill="none" fill-rule="evenodd">
        <g id="Core_Icons" fill="#000000">
            <path d="M20.6913691,0 C6.99397543,0 0.08,9.76678891 0.08,17.9696694 C0.08,22.8752863 1.94113441,27.2503411 5.92729541,28.8948061 C6.62730417,29.192032 7.18564449,28.8948061 7.43564762,28.1892417 C7.53009325,27.7059023 7.83287481,26.4031082 7.93843169,25.8975464 C8.13010076,25.1725373 8.04121076,24.9142007 7.53287106,24.2614148 C6.43007948,22.9252869 5.62451384,21.1724872 5.62451384,18.6502334 C5.62451384,11.3723646 11.060693,4.90006133 19.8219138,4.90006133 C27.4803429,4.90006133 31.7553965,9.61123141 31.7553965,15.9085324 C31.7553965,24.1891916 28.072017,31.1865014 22.6358379,31.1865014 C19.6163556,31.1865014 17.4079947,28.6920258 18.1107812,25.6447654 C19.0135703,22.0169422 20.67748,18.0724484 20.67748,15.4501934 C20.67748,13.1084974 19.4191309,11.114028 16.8052093,11.114028 C13.7218374,11.114028 11.2634733,14.300179 11.2634733,18.5446766 C11.2634733,21.2919332 12.1662624,23.1364007 12.1662624,23.1364007 C12.1662624,23.1364007 8.99955608,36.4171225 8.44399357,38.7810409 C7.33842418,43.4172101 8.29121388,49.0811699 8.34399232,49.6811774 C8.44399357,50.0145149 8.84122077,50.1061827 9.0467789,49.8617352 C9.34400484,49.4783971 12.9746058,44.9422292 14.2801777,40.4671732 C14.5857371,39.1560456 16.2940918,32.5698521 16.2940918,32.5698521 C17.3052156,34.4587646 20.2246966,36.1365634 23.2441788,36.1365634 C32.5081837,36.1393412 38.7471506,27.9614611 38.7471506,16.6668753 C38.7471506,8.16676888 31.613728,0 20.6913691,0 L20.6913691,0 Z" id="Shape"></path>
        </g>
    </g>
</svg>