<?xml version="1.0" encoding="UTF-8"?>
<svg width="50px" height="50px" viewBox="0 0 50 50" version="1.1" xmlns="http://www.w3.org/2000/svg" xmlns:xlink="http://www.w3.org/1999/xlink">
    <!-- Generator: Sketch 41.1 (35376) - http://www.bohemiancoding.com/sketch -->
    <title>Combined Shape</title>
    <desc>Created with Sketch.</desc>
    <defs></defs>
    <g id="Sprite" stroke="none" stroke-width="1" fill="none" fill-rule="evenodd">
        <g id="Font" transform="translate(-149.000000, -278.000000)" fill="#000000">
            <path d="M180.25,309.25 L192.743347,309.25 C196.204645,309.25 199,306.45178 199,303 C199,299.555244 196.198801,296.75 192.743347,296.75 L180.25,296.75 L180.25,284.256653 C180.25,280.795355 177.45178,278 174,278 C170.555244,278 167.75,280.801199 167.75,284.256653 L167.75,296.75 L155.256653,296.75 C151.795355,296.75 149,299.54822 149,303 C149,306.444756 151.801199,309.25 155.256653,309.25 L167.75,309.25 L167.75,321.743347 C167.75,325.204645 170.54822,328 174,328 C177.444756,328 180.25,325.198801 180.25,321.743347 L180.25,309.25 Z" id="Combined-Shape"></path>
        </g>
    </g>
</svg>