<?xml version="1.0" encoding="UTF-8"?>
<svg width="50px" height="43px" viewBox="0 0 50 43" version="1.1" xmlns="http://www.w3.org/2000/svg" xmlns:xlink="http://www.w3.org/1999/xlink">
    <!-- Generator: Sketch 42 (36781) - http://www.bohemiancoding.com/sketch -->
    <title>Combined Shape</title>
    <desc>Created with Sketch.</desc>
    <defs></defs>
    <g id="Page-1" stroke="none" stroke-width="1" fill="none" fill-rule="evenodd">
        <path d="M22.7517497,12.8356083 L28.2349717,1.64983555 L28.5907841,0.923978301 L29.3709543,1.08313303 L37.7513865,2.7927412 C38.3344662,1.16329023 39.8673797,0 41.6666667,0 C43.9678531,0 45.8333333,1.90278981 45.8333333,4.25 C45.8333333,6.59721019 43.9678531,8.5 41.6666667,8.5 C39.5801787,8.5 37.8518877,6.9357039 37.5475542,4.89418735 L29.6875,3.1875 L25.0965919,12.7501565 C30.0824383,12.7663161 34.6545753,14.0329816 38.229454,16.133499 C39.2801268,14.1204409 41.3581597,12.75 43.75,12.75 C47.2017797,12.75 50,15.6041847 50,19.125 C50,22.0022986 48.1311894,24.4343834 45.5641014,25.2273106 C45.741252,26.0078468 45.8333333,26.8087455 45.8333333,27.625 C45.8333333,35.8402357 36.5059323,42.5 25,42.5 C13.4940677,42.5 4.16666667,35.8402357 4.16666667,27.625 C4.16666667,26.8087455 4.25874805,26.0078468 4.43589861,25.2273106 C1.86881058,24.4343834 0,22.0022986 0,19.125 C0,15.6041847 2.79822031,12.75 6.25,12.75 C8.64184034,12.75 10.7198732,14.1204409 11.770546,16.133499 C14.8244429,14.3390987 18.606109,13.1532186 22.7517497,12.8356083 Z M18.102718,36.0490065 C19.856953,36.7647344 22.1365717,37.1875 25,37.1875 C27.8634283,37.1875 30.143047,36.7647344 31.897282,36.0490065 C33.0065259,35.5964349 33.7109686,35.1174139 34.0699029,34.751301 L32.5967638,33.248699 C32.4348647,33.4138361 31.9674324,33.7316901 31.1235514,34.0759935 C29.622578,34.6883906 27.6053217,35.0625 25,35.0625 C22.3946783,35.0625 20.377422,34.6883906 18.8764486,34.0759935 C18.0325676,33.7316901 17.5651353,33.4138361 17.4032362,33.248699 L15.9300971,34.751301 C16.2890314,35.1174139 16.9934741,35.5964349 18.102718,36.0490065 Z M17.7083333,27.625 C19.4342232,27.625 20.8333333,26.1979076 20.8333333,24.4375 C20.8333333,22.6770924 19.4342232,21.25 17.7083333,21.25 C15.9824435,21.25 14.5833333,22.6770924 14.5833333,24.4375 C14.5833333,26.1979076 15.9824435,27.625 17.7083333,27.625 Z M32.2916667,27.625 C34.0175565,27.625 35.4166667,26.1979076 35.4166667,24.4375 C35.4166667,22.6770924 34.0175565,21.25 32.2916667,21.25 C30.5657768,21.25 29.1666667,22.6770924 29.1666667,24.4375 C29.1666667,26.1979076 30.5657768,27.625 32.2916667,27.625 Z" id="Combined-Shape" fill="#000000"></path>
    </g>
</svg>