<?xml version="1.0" encoding="UTF-8"?>
<svg width="50px" height="50px" viewBox="0 0 50 50" version="1.1" xmlns="http://www.w3.org/2000/svg" xmlns:xlink="http://www.w3.org/1999/xlink">
    <!-- Generator: Sketch 41.1 (35376) - http://www.bohemiancoding.com/sketch -->
    <title>Path Copy 3</title>
    <desc>Created with Sketch.</desc>
    <defs></defs>
    <g id="Sprite" stroke="none" stroke-width="1" fill="none" fill-rule="evenodd">
        <g id="Font" transform="translate(-154.000000, -351.000000)" fill="#000000">
            <path d="M201.659035,364.662077 C204.738342,361.58277 204.768462,356.484015 201.642224,353.357776 C198.494189,350.209742 193.454877,350.224011 190.337923,353.340965 L179,364.678888 L167.662077,353.340965 C164.58277,350.261658 159.484015,350.231538 156.357776,353.357776 C153.209742,356.505811 153.224011,361.545123 156.340965,364.662077 L167.678888,376 L156.340965,387.337923 C153.261658,390.41723 153.231538,395.515985 156.357776,398.642224 C159.505811,401.790258 164.545123,401.775989 167.662077,398.659035 L179,387.321112 L190.337923,398.659035 C193.41723,401.738342 198.515985,401.768462 201.642224,398.642224 C204.790258,395.494189 204.775989,390.454877 201.659035,387.337923 L190.321112,376 L201.659035,364.662077 Z" id="Path-Copy-3"></path>
        </g>
    </g>
</svg>