<?xml version="1.0" encoding="UTF-8"?>
<svg width="46px" height="50px" viewBox="0 0 46 50" version="1.1" xmlns="http://www.w3.org/2000/svg" xmlns:xlink="http://www.w3.org/1999/xlink">
    <!-- Generator: Sketch 41 (35326) - http://www.bohemiancoding.com/sketch -->
    <title>Combined Shape</title>
    <desc>Created with Sketch.</desc>
    <defs></defs>
    <g id="Sprite" stroke="none" stroke-width="1" fill="none" fill-rule="evenodd">
        <g id="Font" transform="translate(0.000000, -199.000000)" fill="#000000">
            <path d="M19,231 L19,242.846154 L10,247 L10,249 L36,249 L36,247 L27,242.846154 L27,231 L32,231 L32,228.001099 C32.1845129,227.862506 32.3657257,227.719757 32.5434994,227.57299 C40.5781085,223.021128 46,214.393739 46,204.5 C46,203.996598 45.9859635,203.496475 45.9582605,203 L43.9753966,203 L38,203 L38,199.993398 C38,199.444946 37.5531114,199 37.0018463,199 L8.99815369,199 C8.44736519,199 8,199.444759 8,199.993398 L8,203 L2.02460342,203 L0.0417395163,203 C0.0140365168,203.496475 0,203.996598 0,204.5 C0,214.393739 5.42189147,223.021128 13.4564975,227.572989 C13.6342743,227.719757 13.8154871,227.862506 14,228.001099 L14,231 L19,231 Z M8.30175289,219.008355 C5.29546556,215.448324 3.37449697,210.942086 3.04920683,206 L8,206 L8,217 L8.03280455,217 C8.07775638,217.682947 8.16841594,218.353409 8.30175289,219.008355 Z M37.6982471,219.008355 C40.7045344,215.448324 42.625503,210.942086 42.9507932,206 L38,206 L38,217 L37.9671954,217 C37.9222436,217.682947 37.8315841,218.353409 37.6982471,219.008355 Z M31.5714285,210.2867 C31.570501,216.357645 23,221 23,221 C23,221 14.429499,216.357645 14.4285715,210.2867 C14.4285714,207.91878 16.3473511,206 18.7142857,206 C21.0812204,206 23,207.91878 23,210.285714 L31.5714285,210.2867 Z M31.5714286,210.285714 L23,210.285714 C23,207.91878 24.9187796,206 27.2857143,206 C29.6526489,206 31.5714286,207.91878 31.5714286,210.285714 L31.5714286,210.285714 Z" id="Combined-Shape"></path>
        </g>
    </g>
</svg>