<?xml version="1.0" encoding="UTF-8"?>
<svg width="50px" height="47px" viewBox="0 0 50 47" version="1.1" xmlns="http://www.w3.org/2000/svg" xmlns:xlink="http://www.w3.org/1999/xlink">
    <!-- Generator: Sketch 41 (35326) - http://www.bohemiancoding.com/sketch -->
    <title>Combined Shape</title>
    <desc>Created with Sketch.</desc>
    <defs></defs>
    <g id="Sprite" stroke="none" stroke-width="1" fill="none" fill-rule="evenodd">
        <g id="Font" transform="translate(0.000000, -130.000000)" fill="#000000">
            <path d="M17.7205882,151.805667 L13.6764706,151.805667 L13.6764706,154.01155 L17.7205882,154.01155 L17.7205882,158.055667 L19.9264706,158.055667 L19.9264706,154.01155 L23.9705882,154.01155 L23.9705882,151.805667 L19.9264706,151.805667 L19.9264706,147.76155 L17.7205882,147.76155 L17.7205882,151.805667 Z M25,176.42843 C25,176.42843 1.76643267,163.296413 0.094741171,144.822893 C0.0322045199,144.316117 0,143.799947 0,143.276256 C0,143.198745 0.000705486268,143.121399 0.0021103879,143.044224 C0.000705963624,142.940563 0,142.836747 0,142.732777 C0,142.570254 0.0134995817,142.415479 0.0400551106,142.268232 C0.553330054,135.836046 5.93577637,130.776256 12.5,130.776256 C19.4035594,130.776256 25,136.372696 25,143.276256 C25,136.372696 30.5964406,130.776256 37.5,130.776256 C44.1373448,130.776256 49.5664373,135.949399 49.9752799,142.483689 C49.9916885,142.559787 50,142.642695 50,142.732777 C50,142.836747 49.999294,142.940563 49.9978896,143.044224 C49.9992945,143.121399 50,143.198745 50,143.276256 C50,143.799947 49.9677955,144.316117 49.9052588,144.822893 C48.2335673,163.296413 25,176.42843 25,176.42843 Z M28.0882353,150.310686 L28.0882353,148.102248 C29.1127735,148.056713 29.8299394,147.988411 30.2397547,147.897341 C30.8924234,147.753147 31.4236575,147.464763 31.8334727,147.03218 C32.1142721,146.736202 32.3267657,146.341571 32.4709599,145.848275 C32.5544408,145.552297 32.5961807,145.332215 32.5961807,145.18802 L35.2941176,145.18802 L35.2941176,159.363004 L31.9700771,159.363004 L31.9700771,150.310686 L28.0882353,150.310686 Z" id="Combined-Shape"></path>
        </g>
    </g>
</svg>