<?xml version="1.0" encoding="UTF-8"?>
<svg width="50px" height="44px" viewBox="0 0 50 44" version="1.1" xmlns="http://www.w3.org/2000/svg" xmlns:xlink="http://www.w3.org/1999/xlink">
    <!-- Generator: Sketch 41 (35326) - http://www.bohemiancoding.com/sketch -->
    <title>Content</title>
    <desc>Created with Sketch.</desc>
    <defs></defs>
    <g id="Sprite" stroke="none" stroke-width="1" fill="none" fill-rule="evenodd">
        <g id="Font" transform="translate(-81.000000, 0.000000)" fill="#000000">
            <path d="M81,26.994723 C81,25.8930679 81.8890643,25 82.9909141,25 L129.009086,25 C130.108637,25 131,25.8954726 131,26.994723 L131,29.255277 C131,30.3569321 130.110936,31.25 129.009086,31.25 L82.9909141,31.25 C81.8913626,31.25 81,30.3545274 81,29.255277 L81,26.994723 Z M81,14.494723 C81,13.3930679 81.8890643,12.5 82.9909141,12.5 L129.009086,12.5 C130.108637,12.5 131,13.3954726 131,14.494723 L131,16.755277 C131,17.8569321 130.110936,18.75 129.009086,18.75 L82.9909141,18.75 C81.8913626,18.75 81,17.8545274 81,16.755277 L81,14.494723 Z M81,1.99472299 C81,0.893067902 81.8890643,0 82.9909141,0 L129.009086,0 C130.108637,0 131,0.895472616 131,1.99472299 L131,4.25527701 C131,5.3569321 130.110936,6.25 129.009086,6.25 L82.9909141,6.25 C81.8913626,6.25 81,5.35452738 81,4.25527701 L81,1.99472299 Z M81,39.494723 C81,38.3930679 81.9015501,37.5 83.0023664,37.5 L110.247634,37.5 C111.35351,37.5 112.25,38.3954726 112.25,39.494723 L112.25,41.755277 C112.25,42.8569321 111.34845,43.75 110.247634,43.75 L83.0023664,43.75 C81.89649,43.75 81,42.8545274 81,41.755277 L81,39.494723 Z" id="Content"></path>
        </g>
    </g>
</svg>