<?xml version="1.0" encoding="UTF-8"?>
<svg width="50px" height="64px" viewBox="0 0 50 64" version="1.1" xmlns="http://www.w3.org/2000/svg" xmlns:xlink="http://www.w3.org/1999/xlink">
    <!-- Generator: Sketch 42 (36781) - http://www.bohemiancoding.com/sketch -->
    <title>DELETE</title>
    <desc>Created with Sketch.</desc>
    <defs></defs>
    <g id="Page-1" stroke="none" stroke-width="1" fill="none" fill-rule="evenodd">
        <path d="M34.0909091,13.6363636 L15.9090909,13.6363636 L11.3636364,13.6363636 L0,13.6363636 L0,11.097843 C0,9.98944401 0.889064278,9.09090909 1.99091407,9.09090909 L12.1395714,9.09090909 C14.0115551,3.79458012 19.0626417,0 25,0 C30.9373583,0 35.9884449,3.79458012 37.8604286,9.09090909 L48.0090859,9.09090909 C49.1086374,9.09090909 50,9.98894464 50,11.097843 L50,13.6363636 L38.6363636,13.6363636 L34.0909091,13.6363636 Z M32.8747073,9.09090909 C31.3028463,6.37363014 28.3649198,4.54545455 25,4.54545455 C21.6350802,4.54545455 18.6971537,6.37363014 17.1252927,9.09090909 L32.8747073,9.09090909 Z M2.27272727,18.1818182 L47.7272727,18.1818182 L47.7272727,62.6447083 C47.7272727,63.1923844 47.2773931,63.6363636 46.7356174,63.6363636 L3.26438262,63.6363636 C2.71670649,63.6363636 2.27272727,63.186484 2.27272727,62.6447083 L2.27272727,18.1818182 Z M6.81818182,22.7272727 L6.81818182,59.0909091 L43.1818182,59.0909091 L43.1818182,22.7272727 L6.81818182,22.7272727 Z M11.3636364,28.2757227 C11.3636364,27.7217836 11.8160898,27.2727273 12.3724201,27.2727273 L14.9003072,27.2727273 C15.4574431,27.2727273 15.9090909,27.723342 15.9090909,28.2757227 L15.9090909,53.5424591 C15.9090909,54.0963982 15.4566375,54.5454545 14.9003072,54.5454545 L12.3724201,54.5454545 C11.8152842,54.5454545 11.3636364,54.0948398 11.3636364,53.5424591 L11.3636364,28.2757227 Z M34.0909091,28.2757227 C34.0909091,27.7217836 34.5433625,27.2727273 35.0996928,27.2727273 L37.6275799,27.2727273 C38.1847158,27.2727273 38.6363636,27.723342 38.6363636,28.2757227 L38.6363636,53.5424591 C38.6363636,54.0963982 38.1839102,54.5454545 37.6275799,54.5454545 L35.0996928,54.5454545 C34.5425569,54.5454545 34.0909091,54.0948398 34.0909091,53.5424591 L34.0909091,28.2757227 Z M22.7272727,28.2757227 C22.7272727,27.7217836 23.1797262,27.2727273 23.7360564,27.2727273 L26.2639436,27.2727273 C26.8210794,27.2727273 27.2727273,27.723342 27.2727273,28.2757227 L27.2727273,53.5424591 C27.2727273,54.0963982 26.8202738,54.5454545 26.2639436,54.5454545 L23.7360564,54.5454545 C23.1789206,54.5454545 22.7272727,54.0948398 22.7272727,53.5424591 L22.7272727,28.2757227 Z" id="DELETE" fill="#000000"></path>
    </g>
</svg>