<?xml version="1.0" encoding="UTF-8"?>
<svg width="48px" height="55px" viewBox="0 0 48 55" version="1.1" xmlns="http://www.w3.org/2000/svg" xmlns:xlink="http://www.w3.org/1999/xlink">
    <!-- Generator: Sketch 41.2 (35397) - http://www.bohemiancoding.com/sketch -->
    <title>1481531176_editor-trash-delete-recycle-bin-glyph</title>
    <desc>Created with Sketch.</desc>
    <defs></defs>
    <g id="Page-1" stroke="none" stroke-width="1" fill="none" fill-rule="evenodd">
        <g id="1481531176_editor-trash-delete-recycle-bin-glyph" fill="#000000">
            <g id="miu">
                <g id="Artboard-1">
                    <path d="M1.50301,2.5 C1.50301,2.5 0.2500025,2.5 0.25,5 C0.25,7.5 1.50301,7.5 1.50301,7.5 L46.49699,7.5 C46.49699,7.5 47.75,7.5 47.75,5 C47.75,2.5 46.49699,2.5 46.49699,2.5 L1.50301,2.5 L1.50301,2.5 Z M2.6843875,10 L45.1843875,10 L40.1843875,55 L7.6843875,55 L2.6843875,10 Z M20.1843875,0 C17.6843875,0 17.6843875,2.5 17.6843875,2.5 L30.1843875,2.5 C30.1843875,2.5 30.1843875,0 27.6843875,0 L20.1843875,0 L20.1843875,0 Z M15.1843875,50 L17.6843875,50 L15.1843875,9.9072275 L12.6843875,9.9072275 L15.1843875,50 Z M32.6843875,9.9072275 L30.1843875,50 L32.6843875,50 L35.1843875,9.9072275 L32.6843875,9.9072275 L32.6843875,9.9072275 Z M22.6843875,9.9072275 L22.6843875,50 L25.1843875,50 L25.1843875,9.9072275 L22.6843875,9.9072275 L22.6843875,9.9072275 Z" id="editor-trash-delete-recycle-bin-glyph"></path>
                </g>
            </g>
        </g>
    </g>
</svg>