<?xml version="1.0" encoding="UTF-8"?>
<svg width="50px" height="41px" viewBox="0 0 50 41" version="1.1" xmlns="http://www.w3.org/2000/svg" xmlns:xlink="http://www.w3.org/1999/xlink">
    <!-- Generator: Sketch 42 (36781) - http://www.bohemiancoding.com/sketch -->
    <title>Shape</title>
    <desc>Created with Sketch.</desc>
    <defs></defs>
    <g id="Page-1" stroke="none" stroke-width="1" fill="none" fill-rule="evenodd">
        <g id="Core_Icons" fill="#000000">
            <path d="M50.001,5.12768998 C48.1626566,5.93656109 46.1860697,6.4777694 44.1065356,6.71896006 C46.2272486,5.47182787 47.8567562,3.48935832 48.6156244,1.13627872 C46.6302135,2.28928772 44.4418495,3.13933773 42.1005353,3.58054015 C40.238661,1.62160139 37.5737984,0.398 34.6236249,0.398 C28.952703,0.398 24.3612565,4.91297147 24.3612565,10.5044769 C24.3612565,11.2868758 24.4465556,12.054568 24.6230366,12.7957881 C16.0960644,12.3751751 8.53679622,8.34846767 3.47473375,2.23634343 C2.60115295,3.73643167 2.08935814,5.47182787 2.08935814,7.3219367 C2.08935814,10.8250839 3.89828808,13.922325 6.6572739,15.7253722 C4.96893929,15.6753693 3.39237596,15.2224014 2.0099417,14.469416 C1.99523495,14.5076535 1.99523495,14.5547151 1.99523495,14.6017767 C1.99523495,19.4961822 5.54250244,23.5699513 10.2368962,24.4994177 C9.37508083,24.728843 8.47208653,24.855321 7.5367374,24.855321 C6.86905106,24.855321 6.49844103,24.6376612 5.88369898,24.5170658 C7.18671681,28.5320079 10.2192481,31.1968705 14.7077475,31.285111 C11.2104829,33.9911525 7.75733861,35.6971352 2.94234949,35.6971352 C2.11583028,35.6971352 0.798105712,35.7883171 0.001,35.6971352 C4.53656092,38.5620096 9.92511318,40.4062358 15.7283957,40.4062358 C34.59127,40.4062358 44.9124654,25.0170952 44.9124654,11.6692513 C44.9124654,11.2280488 44.909524,10.7956705 44.8859932,10.3662334 C46.8861109,8.93673757 48.6244484,7.15427978 50.001,5.12768998 L50.001,5.12768998 Z" id="Shape"></path>
        </g>
    </g>
</svg>