<svg xmlns="http://www.w3.org/2000/svg" width="47" height="51" viewBox="0 0 47 51">
  <path fill-rule="evenodd" d="M27.0732802,43.2647771 L27.0732802,7.48937104 L38.6761146,7.48937104 L42.5437261,16.1914968 L46.4113376,16.1914968 L45.5063897,1.71233099 C45.4721729,1.16486216 45.0042249,0.757774027 44.4530974,0.801825504 C44.4530974,0.801825504 34.3250517,1.68795385 23.2056688,1.68795385 C12.0862858,1.68795385 1.95824014,0.801825504 1.95824014,0.801825504 C1.41073968,0.757214966 0.939008103,1.16736718 0.904947865,1.71233099 L0,16.1914968 L3.86761146,16.1914968 L7.73522293,7.48937104 L19.3380573,7.48937104 L19.3380573,43.2647771 L11.6028344,47.1323885 L11.6028344,51 L23.2056688,50.0330971 L34.8085032,51 L34.8085032,47.1323885 L27.0732802,43.2647771 Z"/>
</svg>
