<svg xmlns="http://www.w3.org/2000/svg" width="50" height="41" viewBox="0 0 50 41">
  <path fill-rule="evenodd" d="M0,6.2586254 C0,2.80208204 2.79535549,0 6.23143837,0 L43.7685616,0 C47.21009,0 50,2.79232077 50,6.2586254 L50,34.3663746 C50,37.822918 47.2046445,40.625 43.7685616,40.625 L6.23143837,40.625 C2.78990999,40.625 0,37.8326792 0,34.3663746 L0,6.2586254 Z M3.125,6.2586254 L3.125,34.3663746 C3.125,36.1057053 4.51473512,37.5 6.23143837,37.5 L43.7685616,37.5 C45.4780067,37.5 46.875,36.0977582 46.875,34.3663746 L46.875,6.2586254 C46.875,4.51929465 45.4852649,3.125 43.7685616,3.125 L6.23143837,3.125 C4.52199333,3.125 3.125,4.52724182 3.125,6.2586254 Z M25,22.9166667 L25,28.125 L21.875,28.125 L21.875,12.5 L28.1282607,12.5 C29.8666865,12.5 31.25,13.8976503 31.25,15.6217393 L31.25,18.7532607 C31.25,20.4916865 29.8523497,21.875 28.1282607,21.875 L27.5,21.875 L31.25,28.125 L28.125,28.125 L25,22.9166667 Z M25,15.625 L26.5478611,15.625 C27.4188909,15.625 28.125,16.3497925 28.125,17.1875 C28.125,18.0504449 27.4561405,18.75 26.5478611,18.75 L25,18.75 L25,15.625 Z M13.0020853,25 L15.1229147,25 C15.4002577,25 15.625,24.7736815 15.625,24.4945034 L15.625,12.5 L18.75,12.5 L18.75,26.1302122 C18.75,27.2288119 17.8547156,28.125 16.7503263,28.125 L11.3746737,28.125 C10.2739144,28.125 9.375,27.2319031 9.375,26.1302122 L9.375,12.5 L12.5,12.5 L12.5,24.4945034 C12.5,24.7830391 12.7247913,25 13.0020853,25 Z M37.5,25 L40.625,25 L40.625,28.125 L35.3791706,28.125 C34.8244846,28.125 34.375,27.676755 34.375,27.1238168 L34.375,12.5 L37.5,12.5 L37.5,25 Z"/>
</svg>
